<?xml version="1.0" standalone="no"?>
<!DOCTYPE svg PUBLIC "-//W3C//DTD SVG 1.1//EN" "http://www.w3.org/Graphics/SVG/1.1/DTD/svg11.dtd" >
<svg xmlns="http://www.w3.org/2000/svg">
<metadata>
Copyright (c) 2015 by Fontsmith Ltd. All rights reserved. This font may not be altered in any way without prior permission of Fontsmith Ltd.
</metadata>
<defs>
<font id="INGMeGrWeb-BoldItalic" horiz-adv-x="583" >
  <font-face 
    font-family="ING Me Gr Web"
    font-weight="700"
    font-style="italic"
    font-stretch="normal"
    units-per-em="1000"
    panose-1="2 0 8 6 4 0 0 9 0 4"
    ascent="750"
    descent="-250"
    x-height="528"
    cap-height="720"
    bbox="-154.227 -252 1243 978"
    underline-thickness="92"
    underline-position="-8"
    slope="-8"
    unicode-range="U+000D-FB04"
  />
<missing-glyph horiz-adv-x="694" 
d="M90 720h514v-720h-514v720zM522 669h-350l176 -263zM553 98v524l-175 -262zM522 52l-174 262l-176 -262h350zM142 98l174 262l-174 262v-524z" />
    <glyph glyph-name="fi" unicode="fi" horiz-adv-x="618" 
d="M167 16q-3 -16 -20 -16h-86q-17 0 -14 16l58 417h-63q-15 0 -14 17l9 61q3 17 18 17h63l3 22q15 112 86 169t182 57q42 0 87.5 -10t80.5 -27q8 -4 8 -10t-4 -15l-22 -52q-4 -9 -10 -10.5t-14 1.5q-25 10 -59.5 17t-65.5 7q-68 0 -105 -31.5t-45 -100.5l-2 -17h134
q17 0 14 -17l-9 -61q-1 -17 -18 -17h-134zM408 0q-16 0 -15 16l70 496q1 16 19 16h86q16 0 15 -16l-70 -496q-1 -16 -19 -16h-86z" />
    <glyph glyph-name="fl" unicode="fl" horiz-adv-x="638" 
d="M542 179q-3 -24 -5 -38.5t-2 -19.5q0 -30 27 -30h12q9 0 10.5 -3.5t-0.5 -13.5l-6 -47q-3 -16 -14 -21q-8 -4 -21.5 -7t-28.5 -3q-26 0 -46 7t-34 25q-19 25 -19 70q0 11 2.5 35t7.5 56l43 309q7 48 12 91t7 66q-20 11 -48 16.5t-56 5.5q-60 0 -95.5 -26.5t-44.5 -88.5
l-5 -34h134q17 0 14 -17l-9 -61q-1 -17 -18 -17h-134l-58 -417q-3 -16 -20 -16h-86q-17 0 -14 16l58 417h-63q-15 0 -14 17l9 61q3 17 18 17h63l6 36q14 104 85 158t182 54q51 0 100 -11.5t91 -32.5q9 -5 17 -13.5t8 -22.5q0 -20 -5.5 -75.5t-20.5 -160.5z" />
    <glyph glyph-name="f_f" unicode="ff" horiz-adv-x="716" 
d="M225 433l-58 -417q-3 -16 -20 -16h-86q-17 0 -14 16l58 417h-63q-15 0 -14 17l9 61q3 17 18 17h63l5 34q14 99 77.5 152.5t158.5 53.5q30 0 55.5 -4.5t42.5 -12.5q8 -4 11 -9.5t-1 -16.5l-20 -52q-7 -16 -27 -12q-14 3 -30 5.5t-33 2.5q-48 0 -77 -28t-37 -79l-5 -34h239
l6 36q14 104 77.5 158t158.5 54q30 0 55.5 -4.5t42.5 -12.5q8 -4 11 -9.5t-1 -16.5l-20 -52q-7 -16 -27 -12q-14 3 -30 5.5t-33 2.5q-48 0 -77.5 -27.5t-37.5 -87.5l-5 -34h134q17 0 14 -17l-9 -61q-1 -17 -18 -17h-134l-58 -417q-3 -16 -20 -16h-86q-17 0 -14 16l58 417
h-239z" />
    <glyph glyph-name="f_f_i" unicode="ffi" horiz-adv-x="977" 
d="M480 550q15 112 86 169t182 57q42 0 87.5 -10t80.5 -27q8 -4 8 -10t-4 -15l-22 -52q-4 -9 -10 -10.5t-14 1.5q-25 10 -59.5 17t-65.5 7q-68 0 -105 -31.5t-45 -100.5l-2 -17h134q17 0 14 -17l-9 -61q-1 -17 -18 -17h-134l-58 -417q-3 -16 -20 -16h-86q-17 0 -14 16
l58 417h-239l-58 -417q-3 -16 -20 -16h-86q-17 0 -14 16l58 417h-63q-15 0 -14 17l9 61q3 17 18 17h63l5 34q14 99 77.5 152.5t158.5 53.5q30 0 55.5 -4.5t42.5 -12.5q8 -4 11 -9.5t-1 -16.5l-20 -52q-7 -16 -27 -12q-14 3 -30 5.5t-33 2.5q-48 0 -77 -28t-37 -79l-5 -34
h239zM767 0q-16 0 -15 16l70 496q1 16 19 16h86q16 0 15 -16l-70 -496q-1 -16 -19 -16h-86z" />
    <glyph glyph-name="f_f_l" unicode="ffl" horiz-adv-x="997" 
d="M901 179q-3 -24 -5 -38.5t-2 -19.5q0 -30 27 -30h12q9 0 10.5 -3.5t-0.5 -13.5l-6 -47q-3 -16 -14 -21q-8 -4 -21.5 -7t-28.5 -3q-26 0 -46 7t-34 25q-19 25 -19 70q0 11 2.5 35t7.5 56l43 309q6 45 11.5 89.5t7.5 67.5q-20 11 -48 16.5t-56 5.5q-60 0 -95.5 -26.5
t-44.5 -88.5l-5 -34h134q17 0 14 -17l-9 -61q-1 -17 -18 -17h-134l-58 -417q-3 -16 -20 -16h-86q-17 0 -14 16l58 417h-239l-58 -417q-3 -16 -20 -16h-86q-17 0 -14 16l58 417h-63q-15 0 -14 17l9 61q3 17 18 17h63l5 34q14 99 77.5 152.5t158.5 53.5q30 0 55.5 -4.5
t42.5 -12.5q8 -4 11 -9.5t-1 -16.5l-20 -52q-7 -16 -27 -12q-14 3 -30 5.5t-33 2.5q-48 0 -77 -28t-37 -79l-5 -34h239l6 36q14 104 85 158t182 54q51 0 100 -11.5t91 -32.5q9 -5 17 -13.5t8 -22.5q0 -20 -5.5 -75.5t-20.5 -160.5z" />
    <glyph glyph-name=".notdef" horiz-adv-x="694" 
d="M90 720h514v-720h-514v720zM522 669h-350l176 -263zM553 98v524l-175 -262zM522 52l-174 262l-176 -262h350zM142 98l174 262l-174 262v-524z" />
    <glyph glyph-name=".null" horiz-adv-x="0" 
 />
    <glyph glyph-name=".null" horiz-adv-x="0" 
 />
    <glyph glyph-name="nonmarkingreturn" unicode="&#xd;" horiz-adv-x="248" 
 />
    <glyph glyph-name="space" unicode=" " horiz-adv-x="248" 
 />
    <glyph glyph-name="nonbreakingspace" unicode="&#xa0;" horiz-adv-x="248" 
 />
    <glyph glyph-name="A" unicode="A" horiz-adv-x="642" 
d="M422 175h-256l-72 -156q-10 -19 -30 -19h-83q-21 0 -10 22l331 680q5 10 11 14t19 4h76q23 0 26 -18l144 -682q3 -20 -17 -20h-82q-14 0 -19.5 5.5t-7.5 16.5zM214 274h188l-8 49l-43 252q-29 -66 -58.5 -133t-52.5 -114z" />
    <glyph glyph-name="B" unicode="B" 
d="M44 0q-20 0 -17 19l97 682q3 19 22 19h138q128 0 189 -39t61 -127q0 -26 -7.5 -53t-23 -51t-38.5 -43t-54 -29q52 -18 81.5 -55t29.5 -90q0 -63 -23 -107.5t-64 -72.5t-96.5 -40.5t-120.5 -12.5h-174zM229 101q30 0 59.5 5t53 18.5t38 37t14.5 60.5q0 100 -132 100h-68
l-31 -221h66zM260 419q67 0 107 29t40 89q0 18 -5.5 32t-14.5 23q-17 17 -44 21.5t-59 4.5h-48l-28 -199h52z" />
    <glyph glyph-name="C" unicode="C" horiz-adv-x="570" 
d="M293 -10q-64 0 -112 21t-80.5 59.5t-49 93t-16.5 121.5q0 79 20.5 158t64 143t111 104t160.5 40q54 0 100 -13.5t78 -37.5q16 -13 4 -31l-33 -50q-14 -20 -30 -10q-30 18 -59.5 26.5t-64.5 8.5q-62 0 -105 -31.5t-69 -79.5t-37.5 -105.5t-11.5 -109.5q0 -45 8.5 -81.5
t27.5 -62.5t48 -40.5t70 -14.5q32 0 68 9.5t65 20.5q22 8 28 -8l20 -54q4 -11 0.5 -17.5t-12.5 -11.5q-39 -21 -87.5 -34t-105.5 -13z" />
    <glyph glyph-name="D" unicode="D" horiz-adv-x="652" 
d="M43 0q-20 0 -17 19l97 682q3 19 22 19h154q98 0 162 -22.5t100 -67.5q28 -34 43 -82.5t15 -116.5q0 -58 -9.5 -113.5t-30 -104.5t-52.5 -90.5t-78 -72.5q-40 -27 -99.5 -38.5t-131.5 -11.5h-175zM235 618l-73 -516h76q92 0 149 44t80.5 117t23.5 161q0 39 -7.5 71.5
t-21.5 54.5q-23 37 -63 52.5t-104 15.5h-60z" />
    <glyph glyph-name="E" unicode="E" horiz-adv-x="541" 
d="M43 0q-20 0 -17 19l96 682q3 19 22 19h378q21 0 18 -19l-9 -65q-3 -19 -23 -19h-274l-28 -202h231q20 0 17 -18l-9 -65q-3 -19 -23 -19h-231l-29 -210h278q20 0 17 -19l-9 -65q-3 -19 -23 -19h-382z" />
    <glyph glyph-name="F" unicode="F" horiz-adv-x="504" 
d="M150 19q-3 -19 -23 -19h-84q-20 0 -17 19l97 682q3 19 22 19h370q21 0 18 -19l-9 -65q-3 -19 -23 -19h-266l-29 -202h224q20 0 17 -18l-9 -65q-3 -19 -23 -19h-223z" />
    <glyph glyph-name="G" unicode="G" horiz-adv-x="643" 
d="M450 295h-120q-19 0 -18 19l9 65q3 18 23 18h223q20 0 17 -18l-43 -313q-2 -16 -8 -22.5t-22 -14.5q-42 -18 -95.5 -28.5t-106.5 -10.5q-134 0 -205 71.5t-71 217.5q0 87 22.5 168.5t68.5 144t116 100.5t165 38q66 0 115 -18t82 -44q15 -11 2 -30l-30 -46q-8 -13 -15 -15
t-15 3q-67 44 -147 44q-62 0 -106.5 -28t-73 -74.5t-41.5 -106.5t-13 -125q0 -91 40.5 -142.5t124.5 -51.5q59 0 96 14z" />
    <glyph glyph-name="H" unicode="H" horiz-adv-x="666" 
d="M43 0q-20 0 -17 19l96 682q3 19 22 19h84q21 0 18 -19l-40 -286h270l40 286q3 19 22 19h84q21 0 18 -19l-96 -682q-3 -19 -23 -19h-84q-20 0 -17 19l41 294h-269l-41 -294q-3 -19 -23 -19h-85z" />
    <glyph glyph-name="I" unicode="I" horiz-adv-x="280" 
d="M47 0q-20 0 -17 19l96 682q3 19 22 19h84q21 0 18 -19l-96 -682q-3 -19 -23 -19h-84z" />
    <glyph glyph-name="J" unicode="J" horiz-adv-x="439" 
d="M122 -10q-40 0 -78 9.5t-62 23.5q-13 7 -6 25l25 58q5 9 10 11.5t16 -2.5q20 -8 44 -14t45 -6q29 0 49 9t33 26.5t21 44t13 62.5l54 380h-164q-20 0 -17 19l9 65q3 19 23 19h268q20 0 17 -19l-66 -468q-17 -118 -73 -180.5t-161 -62.5z" />
    <glyph glyph-name="K" unicode="K" horiz-adv-x="597" 
d="M43 0q-20 0 -17 19l96 682q3 19 22 19h84q21 0 18 -19l-41 -284h29q17 0 26.5 5.5t18.5 16.5l215 263q8 11 15.5 14.5t20.5 3.5h86q12 0 14 -7.5t-6 -16.5l-272 -328l189 -346q5 -10 0.5 -16t-13.5 -6h-88q-14 0 -21 5t-12 15l-139 267q-8 15 -16 19.5t-26 4.5h-35
l-41 -292q-3 -19 -23 -19h-84z" />
    <glyph glyph-name="L" unicode="L" horiz-adv-x="502" 
d="M163 103h263q20 0 17 -19l-9 -65q-3 -19 -23 -19h-368q-20 0 -17 19l96 682q3 19 22 19h85q21 0 18 -19z" />
    <glyph glyph-name="M" unicode="M" horiz-adv-x="799" 
d="M346 119q-17 0 -24.5 4t-9.5 16l-40 151q-14 53 -27.5 109.5t-27.5 118.5q-3 -26 -8 -61.5t-11 -75.5t-12.5 -80.5t-12.5 -76.5l-35 -202q-4 -22 -24 -22h-72q-14 0 -18 5t-2 18l122 675q3 12 8.5 17t18.5 5h77q14 0 20.5 -4t9.5 -15l57 -220q8 -30 16 -61.5t15 -61
t12.5 -56t9.5 -45.5q14 28 29.5 58.5t31 60.5t30 58t26.5 51l114 216q6 11 13.5 15t19.5 4h81q24 0 21 -22l-69 -675q-1 -23 -26 -23h-72q-23 0 -20 22l30 261q8 76 15 130.5t14 104.5q-22 -46 -52 -107.5t-61 -118.5l-79 -153q-7 -12 -14.5 -16t-24.5 -4h-49z" />
    <glyph glyph-name="N" unicode="N" horiz-adv-x="684" 
d="M296 322q-26 55 -48 103.5t-39 93.5q-2 -21 -5 -49t-6.5 -58.5t-7.5 -61.5t-8 -57l-38 -274q-3 -19 -23 -19h-78q-20 0 -17 19l96 682q3 19 22 19h66q15 0 22 -4t12 -14l151 -312q10 -21 21 -45.5t22 -49.5t20.5 -48.5t17.5 -43.5q2 21 5 48.5t6.5 57.5t7.5 60t8 57
l39 275q3 19 22 19h76q21 0 18 -19l-96 -682q-3 -19 -23 -19h-67q-15 0 -21 4t-11 14z" />
    <glyph glyph-name="O" unicode="O" horiz-adv-x="687" 
d="M654 441q0 -80 -20 -160.5t-63.5 -145t-112.5 -105t-166 -40.5q-59 0 -106.5 18.5t-81.5 55.5t-52.5 90.5t-18.5 124.5q0 80 21 160.5t65 145t113 105t165 40.5q58 0 105.5 -20t81 -57t52 -91t18.5 -121zM307 96q60 0 102 32t68 81.5t37.5 109t11.5 115.5q0 46 -11 81.5
t-30 59.5t-45.5 36.5t-56.5 12.5q-62 0 -104.5 -32.5t-68.5 -82t-37.5 -109.5t-11.5 -114q0 -95 39.5 -142.5t106.5 -47.5z" />
    <glyph glyph-name="P" unicode="P" horiz-adv-x="551" 
d="M43 0q-20 0 -17 19l96 682q3 19 22 19h141q58 0 106 -9.5t82 -32t52.5 -60t18.5 -93.5q0 -59 -19.5 -108t-56 -84t-89 -54t-119.5 -19q-20 0 -39.5 0.5t-36.5 2.5l-34 -244q-3 -19 -23 -19h-84zM234 618l-36 -254q15 -2 32.5 -2.5t34.5 -0.5q74 0 112.5 41.5t38.5 112.5
q0 59 -36 81t-94 22h-52z" />
    <glyph glyph-name="Q" unicode="Q" horiz-adv-x="687" 
d="M654 441q0 -56 -9.5 -112.5t-30 -108.5t-52 -96t-75.5 -75q17 -26 37 -50t40 -45q15 -18 -5 -34l-51 -39q-23 -17 -38 -1q-19 20 -44.5 52.5t-48.5 67.5q-20 -5 -41 -7.5t-44 -2.5q-59 0 -106.5 18.5t-81.5 55.5t-52.5 90.5t-18.5 124.5q0 80 21 160.5t65 145t113 105
t165 40.5q58 0 105.5 -20t81 -57t52 -91t18.5 -121zM307 96q60 0 102 32t68 81.5t37.5 109t11.5 115.5q0 46 -11 81.5t-30 59.5t-45.5 36.5t-56.5 12.5q-62 0 -104.5 -32.5t-68.5 -82t-37.5 -109.5t-11.5 -114q0 -95 39.5 -142.5t106.5 -47.5z" />
    <glyph glyph-name="R" unicode="R" horiz-adv-x="587" 
d="M282 259q-7 17 -14 20.5t-25 3.5h-56l-37 -264q-3 -19 -23 -19h-84q-20 0 -17 19l96 682q3 19 22 19h161q50 0 94 -8t77 -28.5t52 -56t19 -91.5q0 -81 -39.5 -139.5t-120.5 -92.5l128 -278q5 -11 1.5 -18.5t-16.5 -7.5h-83q-14 0 -20 4t-11 15zM234 618l-33 -235h64
q68 0 111.5 35.5t43.5 102.5q0 54 -29.5 75.5t-95.5 21.5h-61z" />
    <glyph glyph-name="S" unicode="S" horiz-adv-x="508" 
d="M54 148q33 -22 72.5 -37t77.5 -15q53 0 86 27t33 74q0 22 -9 39t-23.5 31.5t-33.5 27t-39 25.5q-29 18 -55.5 37t-46.5 42t-32.5 52.5t-12.5 68.5q0 47 18.5 86t51.5 66.5t80 42.5t104 15q49 0 92.5 -14.5t72.5 -34.5q14 -10 1 -32l-29 -51q-12 -20 -30 -8q-24 16 -55 26
t-60 10q-54 0 -88 -25t-34 -66q0 -20 7.5 -35.5t22.5 -29t37 -27.5t50 -30q77 -46 106.5 -93t29.5 -105q0 -55 -21 -97t-55.5 -70.5t-79 -43t-90.5 -14.5q-60 0 -117 19.5t-93 48.5q-13 11 -1 31l33 53q7 10 14.5 10.5t15.5 -4.5z" />
    <glyph glyph-name="T" unicode="T" horiz-adv-x="511" 
d="M348 617l-84 -598q-3 -19 -23 -19h-84q-20 0 -17 19l84 598h-164q-20 0 -17 19l9 65q3 19 22 19h452q21 0 18 -19l-9 -65q-3 -19 -23 -19h-164z" />
    <glyph glyph-name="U" unicode="U" horiz-adv-x="666" 
d="M590 286q-11 -74 -33 -129t-58.5 -92.5t-90 -56t-125.5 -18.5q-122 0 -178.5 52.5t-56.5 152.5q0 27 4.5 64t12.5 94l49 348q3 19 23 19h84q20 0 17 -19l-52 -359q-6 -44 -9.5 -78.5t-3.5 -51.5q0 -58 30 -87t96 -29q73 0 113 44t51 129l61 432q3 19 23 19h84
q20 0 17 -19z" />
    <glyph glyph-name="V" unicode="V" horiz-adv-x="612" 
d="M235 429q14 -88 23.5 -167t17.5 -139q13 33 26 66.5t27 69.5t31 76.5t37 87.5l119 278q8 19 29 19h84q21 0 11 -22l-305 -680q-8 -18 -31 -18h-92q-13 0 -18 4t-7 14l-122 682q-2 9 2.5 14.5t13.5 5.5h88q22 0 25 -19z" />
    <glyph glyph-name="W" unicode="W" horiz-adv-x="920" 
d="M606 379q6 -65 9 -130.5t5 -119.5q17 55 39 120.5t45 125.5l121 326q5 11 10.5 15t18.5 4h82q21 0 12 -22l-270 -676q-5 -13 -12 -17.5t-21 -4.5h-89q-13 0 -18 4.5t-7 16.5l-27 278q-6 61 -9.5 122t-5.5 128q-21 -67 -44.5 -133.5t-49.5 -138.5l-95 -256q-5 -13 -12 -17
t-19 -4h-93q-14 0 -19.5 4.5t-7.5 16.5l-86 677q-3 22 18 22h85q11 0 17 -4t8 -15l31 -314q3 -29 6 -62.5t5.5 -67.5t4.5 -66.5t3 -60.5q7 25 17 56.5t21.5 67t24 72t25.5 71.5l113 303q5 13 10.5 16.5t19.5 3.5h79q14 0 19 -3.5t7 -16.5z" />
    <glyph glyph-name="X" unicode="X" horiz-adv-x="584" 
d="M117 223q36 49 65.5 89t49.5 65q-12 25 -31.5 68t-40.5 92l-71 162q-3 8 1 14.5t14 6.5h87q13 0 19.5 -3t11.5 -14l49 -119q12 -30 24 -58.5t22 -56.5l76 115l81 119q7 10 14 13.5t21 3.5h92q10 0 12 -6t-4 -14l-156 -211q-21 -29 -46.5 -62t-45.5 -59q11 -22 28.5 -60.5
t33.5 -74.5l94 -211q5 -9 0.5 -15.5t-14.5 -6.5h-88q-14 0 -20 4t-11 14l-65 151q-11 26 -22.5 54t-20.5 51l-71 -103l-104 -153q-12 -18 -37 -18h-89q-10 0 -12.5 6t5.5 16z" />
    <glyph glyph-name="Y" unicode="Y" horiz-adv-x="542" 
d="M171 0q-20 0 -17 19l37 261l-144 420q-4 9 0.5 14.5t14.5 5.5h85q28 0 33 -19l38 -123q15 -49 29 -94.5t26 -87.5q19 35 44 80t54 93l81 133q7 11 14 14.5t21 3.5h83q10 0 13 -5.5t-2 -14.5l-265 -420l-37 -261q-3 -19 -23 -19h-85z" />
    <glyph glyph-name="Z" unicode="Z" horiz-adv-x="539" 
d="M-2 0q-20 0 -17 19l6 46q2 16 7 27.5t18 28.5l379 496h-289q-20 0 -17 19l9 65q3 19 22 19h418q21 0 18 -19l-7 -46q-3 -17 -7.5 -27.5t-15.5 -24.5l-384 -500h320q20 0 17 -19l-9 -65q-3 -19 -23 -19h-445z" />
    <glyph glyph-name="a" unicode="a" horiz-adv-x="559" 
d="M366 73q-12 -16 -26.5 -31t-33.5 -26.5t-42 -18.5t-52 -7q-85 0 -132 57t-47 161q0 61 16.5 120.5t49 106t81 75t111.5 28.5q42 0 74.5 -18t49.5 -44l10 34q3 10 8 14t16 4h64q20 0 17 -16l-29 -190l-19 -135q-7 -46 -9.5 -92t-4.5 -79q0 -16 -19 -16h-63q-20 0 -20 15
v58zM393 387q-15 20 -39.5 33.5t-54.5 13.5q-35 0 -62 -19.5t-45 -50t-27 -69.5t-9 -78q0 -56 21 -90.5t68 -34.5q53 0 85 40.5t43 113.5z" />
    <glyph glyph-name="b" unicode="b" horiz-adv-x="561" 
d="M247 91q36 0 65 16.5t50 46t32.5 70.5t11.5 91q0 55 -23 86.5t-73 31.5q-26 0 -45.5 -8t-34.5 -22q-13 -12 -20.5 -34t-12.5 -53l-32 -212q17 -5 38.5 -9t43.5 -4zM220 488q25 24 56 37t73 13t75.5 -15.5t57 -43t35.5 -66.5t12 -86q0 -68 -17.5 -129.5t-53.5 -107.5
t-91.5 -73t-131.5 -27q-49 0 -97.5 10t-82.5 25q-18 8 -14 30l97 695q3 16 20 16h85q17 0 14 -16z" />
    <glyph glyph-name="c" unicode="c" horiz-adv-x="487" 
d="M248 -10q-107 0 -161 62.5t-54 167.5q0 61 18 118t53.5 101.5t88.5 71.5t122 27q48 0 90 -15.5t70 -37.5q8 -6 7.5 -13.5t-7.5 -17.5l-27 -45q-12 -19 -30 -7q-24 14 -50.5 22.5t-55.5 8.5q-40 0 -69.5 -18t-48.5 -47.5t-28 -66.5t-9 -75q0 -59 27 -95t89 -36
q29 0 57.5 8t55.5 20q21 10 26 -9l15 -48q3 -11 1.5 -18t-10.5 -12q-33 -20 -77.5 -33t-92.5 -13z" />
    <glyph glyph-name="d" unicode="d" horiz-adv-x="566" 
d="M441 -4q-39 0 -59 16.5t-27 49.5q-26 -33 -66.5 -52.5t-79.5 -19.5q-43 0 -76 16t-55 45.5t-33.5 70t-11.5 89.5q0 59 16.5 117.5t48.5 105t80 75.5t111 29q38 0 68 -12t51 -32l36 256q3 16 20 16h84q17 0 14 -16l-87 -619q-3 -21 1.5 -29.5t24.5 -9.5q14 0 13 -17
l-9 -51q-2 -8 -5.5 -12t-13.5 -9q-7 -3 -20.5 -5t-24.5 -2zM395 398q-17 15 -41 25t-52 10q-40 0 -67.5 -20.5t-45 -52t-25.5 -70t-8 -73.5q0 -56 21 -90.5t68 -34.5q53 0 85 40.5t43 113.5z" />
    <glyph glyph-name="e" unicode="e" horiz-adv-x="535" 
d="M252 -10q-57 0 -98 16.5t-68 46.5t-40 71t-13 89q0 66 18.5 125t53.5 103.5t85.5 70.5t115.5 26q48 0 85 -15.5t62 -43t37.5 -66.5t12.5 -85q0 -14 -1 -29t-3 -30q-5 -29 -12 -39t-18 -10h-313q2 -61 31 -93.5t96 -32.5q36 0 68 8.5t61 21.5q19 9 24 -10l16 -51
q2 -11 0 -17t-13 -12q-37 -20 -85 -32t-102 -12zM296 436q-52 0 -83 -35.5t-45 -90.5h216q3 25 -1.5 47.5t-15.5 40t-28.5 28t-42.5 10.5z" />
    <glyph glyph-name="f" unicode="f" horiz-adv-x="357" 
d="M167 16q-3 -16 -20 -16h-86q-17 0 -14 16l58 417h-63q-15 0 -14 17l9 61q3 17 18 17h63l6 36q14 104 77.5 158t158.5 54q30 0 55.5 -4.5t42.5 -12.5q8 -4 11 -9.5t-1 -16.5l-20 -52q-7 -16 -27 -12q-14 3 -30 5.5t-33 2.5q-48 0 -77.5 -27.5t-37.5 -87.5l-5 -34h134
q17 0 14 -17l-9 -61q-1 -17 -18 -17h-134z" />
    <glyph glyph-name="g" unicode="g" horiz-adv-x="555" 
d="M206 -152q66 0 96 39t41 120l5 42q-23 -26 -57 -40.5t-72 -14.5q-43 0 -77 16.5t-58 45t-36.5 68t-12.5 86.5q0 58 15.5 116.5t48 105.5t81.5 76.5t116 29.5q40 0 72 -18.5t49 -41.5l8 31q3 11 8.5 15t18.5 4h56q21 0 20 -14q-2 -15 -4.5 -40.5t-6 -56.5t-7.5 -64t-8 -62
l-34 -252q-10 -72 -29 -126t-50 -91t-75.5 -55.5t-105.5 -18.5q-43 0 -86.5 9.5t-75.5 25.5q-9 5 -11 10t1 14l19 52q8 22 25 15q31 -11 64 -18.5t62 -7.5zM395 379q-15 26 -39.5 40.5t-54.5 14.5q-39 0 -66 -20.5t-44 -52.5t-25 -70t-8 -73q0 -56 21 -89.5t68 -33.5
q53 0 86 40.5t44 113.5z" />
    <glyph glyph-name="h" unicode="h" horiz-adv-x="571" 
d="M51 0q-18 0 -15 16l103 734q3 16 19 16h85q18 0 15 -16l-38 -269q29 26 67.5 41.5t81.5 15.5q38 0 71.5 -13.5t53.5 -39.5q17 -21 24.5 -46.5t7.5 -60.5q0 -13 -2.5 -36t-6.5 -50l-39 -276q-3 -16 -20 -16h-83q-18 0 -15 16l34 242q5 30 8 56.5t3 40.5q0 40 -21 57.5
t-59 17.5q-21 0 -42 -5t-38 -16q-15 -9 -25 -24t-16 -43q-4 -19 -8.5 -46t-9.5 -61l-31 -219q-3 -16 -19 -16h-85z" />
    <glyph glyph-name="i" unicode="i" horiz-adv-x="264" 
d="M54 0q-16 0 -15 16l70 496q1 16 19 16h86q16 0 15 -16l-70 -496q-1 -16 -19 -16h-86zM134 627q-19 0 -16 17l15 101q3 17 20 17h101q20 0 17 -17l-15 -101q-3 -17 -21 -17h-101z" />
    <glyph glyph-name="j" unicode="j" horiz-adv-x="261" 
d="M-60 -233q-25 0 -47 4.5t-37 11.5t-8 25l16 51q4 10 8.5 14t16.5 1q11 -3 26.5 -5t23.5 -2q44 0 65.5 26t30.5 91l74 528q3 16 19 16h86q18 0 15 -16l-71 -506q-19 -134 -74 -189q-29 -27 -65.5 -38.5t-78.5 -11.5zM134 627q-19 0 -16 17l15 101q3 17 20 17h101
q20 0 17 -17l-15 -101q-3 -17 -21 -17h-101z" />
    <glyph glyph-name="k" unicode="k" horiz-adv-x="502" 
d="M51 0q-18 0 -15 16l103 734q3 16 19 16h84q18 0 15 -16l-61 -434h27q13 0 20.5 3t16.5 15l140 178q8 9 12.5 12.5t17.5 3.5h78q10 0 12.5 -6t-4.5 -15l-187 -234l136 -253q5 -8 0.5 -14t-12.5 -6h-82q-14 0 -19.5 4.5t-10.5 13.5l-95 184q-6 11 -11 14t-18 3h-35
l-28 -203q-3 -16 -19 -16h-84z" />
    <glyph glyph-name="l" unicode="l" horiz-adv-x="267" 
d="M143 -4q-26 0 -46 7t-34 25q-19 25 -19 70q0 11 2.5 35t7.5 56l43 309q10 72 15.5 118.5t8 75t3 41.5t1.5 18q3 15 20 15h80q19 0 19 -16q0 -10 -2 -36t-6.5 -64t-11 -85.5t-13.5 -101.5l-40 -284q-4 -24 -5.5 -38.5t-1.5 -19.5q0 -30 27 -30h12q9 0 10.5 -3.5
t-0.5 -13.5l-6 -47q-3 -16 -14 -21q-8 -4 -21.5 -7t-28.5 -3z" />
    <glyph glyph-name="m" unicode="m" horiz-adv-x="874" 
d="M210 472q30 31 70 48t85 17q43 0 81.5 -20.5t53.5 -59.5q35 39 79.5 60t93.5 21q43 0 74 -14t51 -40q15 -20 23 -45t8 -58q0 -7 -1 -18.5t-2.5 -25.5t-3.5 -29.5t-4 -30.5l-37 -261q-3 -16 -20 -16h-83q-18 0 -15 16l35 249q4 29 6.5 53t2.5 38q0 17 -3 27.5t-10 19.5
q-9 14 -27.5 20t-41.5 6q-38 0 -69 -20q-17 -11 -25 -26t-13 -35q-5 -19 -10 -48.5t-10 -63.5l-31 -220q-3 -16 -19 -16h-83q-18 0 -15 16l33 240q5 33 8 60t3 41q0 29 -13 46q-17 26 -65 26q-46 0 -78 -23q-14 -11 -22.5 -29t-13.5 -41q-5 -19 -9.5 -47.5t-8.5 -55.5
l-30 -217q-3 -16 -19 -16h-84q-18 0 -15 16l44 313q4 31 7.5 61.5t6 55.5t4.5 42.5t3 23.5q1 16 19 16h71q19 0 20 -15v-19t-1 -22z" />
    <glyph glyph-name="n" unicode="n" horiz-adv-x="570" 
d="M210 473q32 30 75.5 47.5t81.5 17.5t71.5 -13.5t53.5 -39.5q17 -21 24.5 -46.5t7.5 -60.5q0 -13 -2.5 -41.5t-7.5 -60.5l-38 -260q-3 -16 -20 -16h-83q-18 0 -15 16l34 242q5 30 8 56.5t3 40.5q0 40 -21 57.5t-59 17.5q-21 0 -42 -5t-38 -16q-15 -9 -25 -24t-16 -43
q-4 -19 -8.5 -46t-9.5 -61l-31 -219q-3 -16 -19 -16h-84q-18 0 -15 16l43 313q9 63 14.5 111t7.5 72q1 16 19 16h72q19 0 19 -20v-35z" />
    <glyph glyph-name="o" unicode="o" horiz-adv-x="557" 
d="M243 -10q-101 0 -155.5 56t-54.5 157q0 72 18.5 133t54.5 106t89 70.5t122 25.5q99 0 153 -56t54 -157q0 -65 -15 -125t-49 -107t-87.5 -75t-129.5 -28zM256 94q42 0 70 20t45 51.5t24 70t7 75.5q0 53 -23.5 88t-75.5 35q-41 0 -69 -20t-45.5 -51t-25.5 -69t-8 -75
q0 -54 24.5 -89.5t76.5 -35.5z" />
    <glyph glyph-name="p" unicode="p" horiz-adv-x="566" 
d="M18 -242q-16 0 -15 17l77 554q4 31 8 61t6.5 54.5t4 42t2.5 25.5q1 16 19 16h75q17 0 17 -15q1 -7 0.5 -16t-1.5 -21q29 29 65 45.5t82 16.5q39 0 71 -15.5t55 -43.5t35.5 -67.5t12.5 -87.5q0 -56 -15.5 -115t-47 -107.5t-80.5 -80t-116 -31.5q-35 0 -63.5 10t-52.5 27
l-36 -252q-1 -17 -19 -17h-84zM262 95q38 0 66 20t46 51.5t26.5 70.5t8.5 76q0 55 -23.5 88.5t-72.5 33.5q-25 0 -47 -8.5t-37 -24.5q-11 -13 -19.5 -34t-13.5 -56l-25 -183q18 -16 41 -25t50 -9z" />
    <glyph glyph-name="q" unicode="q" horiz-adv-x="553" 
d="M342 44q-25 -26 -59 -40t-74 -14q-41 0 -73.5 15t-55.5 42.5t-35 65.5t-12 85q0 69 20 131t58.5 108.5t96 73.5t132.5 27q47 0 91.5 -11t73.5 -28q10 -6 13 -14t1 -23l-56 -401q-6 -40 -11 -81t-8.5 -78.5t-6 -69t-2.5 -53.5q0 -21 -23 -21h-70q-13 0 -17.5 4.5
t-5.5 14.5q-1 13 0 39t4 60.5t7.5 77t11.5 90.5zM155 213q0 -54 21 -87.5t68 -33.5q53 0 85 40.5t43 113.5l25 179q-16 6 -34.5 9t-36.5 3q-32 0 -56 -9.5t-46 -29.5q-38 -34 -53.5 -85t-15.5 -100z" />
    <glyph glyph-name="r" unicode="r" horiz-adv-x="369" 
d="M51 0q-18 0 -15 16l44 313q9 63 13.5 110t7.5 73q1 16 19 16h72q10 0 13 -3.5t4 -11.5q0 -9 -0.5 -22t-1.5 -27l-2 -28t-2 -24q73 125 170 125q16 0 21.5 -4.5t3.5 -16.5l-9 -68q-3 -19 -20 -19q-49 -2 -80 -23.5t-54 -52.5q-11 -15 -20 -33t-16 -40.5t-13 -51t-11 -65.5
l-21 -147q-3 -16 -19 -16h-84z" />
    <glyph glyph-name="s" unicode="s" horiz-adv-x="457" 
d="M42 119q6 12 13.5 13t15.5 -4q27 -16 58.5 -27.5t69.5 -11.5q17 0 33.5 3t29.5 10.5t21 19t8 28.5q0 11 -4.5 20t-15.5 16.5t-30 15.5t-47 17q-27 9 -51 20.5t-42 28t-28 39.5t-10 55q0 42 16.5 74.5t46 55t69.5 34.5t87 12q38 0 79 -12.5t70 -34.5q15 -12 1 -30l-31 -44
q-8 -11 -15 -11.5t-15 4.5q-20 13 -45.5 22t-55.5 9q-15 0 -30.5 -3t-28 -10t-20.5 -18.5t-8 -28.5q0 -15 7 -25t19 -17.5t28 -13t34 -11.5q31 -11 56.5 -22.5t43.5 -27t27.5 -37.5t9.5 -53q0 -41 -15.5 -75t-44 -58t-68.5 -37.5t-89 -13.5q-56 0 -100 15t-72 37
q-12 9 -1 30z" />
    <glyph glyph-name="t" unicode="t" horiz-adv-x="385" 
d="M253 528h124q15 0 14 -17l-9 -61q-3 -17 -18 -17h-125l-33 -236q-1 -5 -2 -13.5t-2 -17.5t-2 -17.5t-1 -11.5q0 -25 14 -36t37 -11q14 0 33 3.5t32 8.5q11 4 16 1t7 -13l7 -49q3 -20 -17 -28q-23 -10 -51.5 -16.5t-57.5 -6.5q-76 0 -109 36q-14 15 -22 35.5t-8 49.5
q0 12 3 44t8 70l30 208h-68q-17 0 -14 17l9 61q1 17 18 17h68l20 139q1 16 19 16h85q16 0 15 -16z" />
    <glyph glyph-name="u" unicode="u" horiz-adv-x="568" 
d="M366 60q-32 -30 -72 -50t-88 -20q-40 0 -72.5 14t-52.5 40q-14 20 -22 44t-8 59q0 14 3 47.5t8 68.5l36 249q3 16 20 16h84q17 0 14 -16l-37 -266q-3 -23 -5 -40t-2 -31q0 -40 18.5 -60t66.5 -20q21 0 40.5 7t36.5 19q14 10 22.5 24.5t14.5 37.5q4 19 9 47t10 62l31 220
q3 16 21 16h83q17 0 14 -16l-44 -313q-9 -63 -13 -108.5t-6 -74.5q-1 -16 -27 -16h-66q-11 0 -15 4.5t-4 13.5v18t2 24z" />
    <glyph glyph-name="v" unicode="v" horiz-adv-x="503" 
d="M411 512q4 9 9 12.5t16 3.5h79q18 0 11 -19q-23 -63 -54 -131t-65 -132.5t-67.5 -123t-60.5 -102.5q-7 -12 -15.5 -16t-22.5 -4h-65q-13 0 -20 3.5t-10 14.5l-104 491q-2 9 2.5 14t13.5 5h82q11 0 16.5 -3t7.5 -12l41 -224q9 -45 15.5 -85t12.5 -79q21 40 46 90t49 101.5
t46 102.5t37 93z" />
    <glyph glyph-name="w" unicode="w" horiz-adv-x="770" 
d="M504 322q3 -26 6.5 -54t6 -55t4.5 -51t3 -42q21 45 41.5 94t40 99.5t37 101t32.5 98.5q3 8 7.5 11.5t15.5 3.5h77q17 0 10 -19q-20 -62 -44 -125.5t-51 -126t-55.5 -122.5t-57.5 -115q-6 -11 -12.5 -15.5t-19.5 -4.5h-79q-23 0 -26 20l-22 174q-7 51 -10 98t-4 101
q-12 -46 -28.5 -90.5t-39.5 -100.5l-75 -182q-8 -20 -32 -20h-85q-13 0 -18.5 4.5t-7.5 15.5l-70 489q-3 19 16 19h77q11 0 16 -2t7 -13l25 -209q3 -21 5.5 -46.5t4.5 -51t3.5 -49t2.5 -39.5q6 16 14.5 40t18.5 50.5l20 53t19 47.5l81 200q5 11 10.5 15t18.5 4h73
q13 0 17.5 -4t5.5 -15z" />
    <glyph glyph-name="x" unicode="x" horiz-adv-x="499" 
d="M-2 0q-11 0 -12.5 6.5t4.5 14.5l116 148q22 27 46.5 56t43.5 52q-15 26 -29 53.5t-30 58.5l-62 119q-4 8 -0.5 14t14.5 6h83q22 0 29 -15l31 -65q12 -25 22 -45.5t17 -36.5q14 21 29.5 42t27.5 38l47 67q7 8 13 11.5t19 3.5h89q11 0 12.5 -6t-4.5 -14l-112 -140l-74 -94
q10 -17 25 -44.5t32 -61.5l77 -148q4 -8 0.5 -14t-14.5 -6h-83q-21 0 -29 15l-42 87l-42 88l-64 -91l-62 -84q-8 -10 -18 -12.5t-21 -2.5h-79z" />
    <glyph glyph-name="y" unicode="y" horiz-adv-x="565" 
d="M210 -152q66 0 96 39t41 120l5 40q-30 -26 -67 -41.5t-79 -15.5q-40 0 -72.5 14t-52.5 40q-14 20 -22 44t-8 59q0 14 3 47.5t8 68.5l36 249q3 16 20 16h84q17 0 14 -16l-37 -266q-3 -23 -5 -40t-2 -31q0 -40 18.5 -60t66.5 -20q21 0 40.5 7t36.5 19q14 10 22.5 24.5
t14.5 37.5q4 19 9 47t10 62l31 220q3 16 21 16h83q17 0 14 -16l-67 -473q-10 -72 -29 -126t-50 -91t-75.5 -55.5t-105.5 -18.5q-43 0 -86.5 9.5t-75.5 25.5q-9 5 -11 10t1 14l19 52q8 22 25 15q31 -11 64 -18.5t62 -7.5z" />
    <glyph glyph-name="z" unicode="z" horiz-adv-x="461" 
d="M300 433h-216q-15 0 -14 18l9 60q1 17 18 17h349q16 0 15 -17l-4 -33q-4 -24 -22 -46l-275 -337h231q18 0 15 -18l-9 -60q-1 -17 -19 -17h-366q-15 0 -14 17l4 31q2 14 7 23t15 21z" />
    <glyph glyph-name="ampersand" unicode="&#x26;" horiz-adv-x="682" 
d="M554 389q2 9 7 14t17 5h65q14 0 16.5 -6t0.5 -15q-13 -54 -36 -106.5t-55 -100.5l91 -95q14 -14 -3 -28l-57 -52q-18 -15 -30 -2l-79 86q-45 -43 -106.5 -71t-132.5 -28q-53 0 -96 14.5t-73.5 40t-47 60.5t-16.5 76q0 40 14 73.5t38.5 60.5t57 48.5t69.5 37.5
q-23 29 -34 63.5t-11 70.5q0 43 17.5 78.5t48 61.5t73 40.5t92.5 14.5q36 0 67 -11t54 -30.5t36 -46t13 -58.5q0 -72 -47 -123.5t-126 -82.5l120 -126q38 63 53 137zM272 93q48 0 88 16t67 45l-173 183q-21 -8 -40.5 -21t-34 -30.5t-23.5 -39t-9 -47.5q-1 -48 33.5 -77
t91.5 -29zM365 630q-18 0 -34 -6t-29 -17t-20.5 -27t-7.5 -36q0 -27 11 -50.5t38 -53.5q51 19 82.5 48.5t31.5 78.5q0 27 -18.5 45t-53.5 18z" />
    <glyph glyph-name="at" unicode="@" horiz-adv-x="811" 
d="M363 -10q-77 0 -138 21t-103.5 60.5t-65 95.5t-22.5 125q0 100 35.5 181t97 138t144 88t177.5 31q66 0 122.5 -21t97.5 -58t64 -88t23 -111q0 -53 -15 -105.5t-43.5 -93.5t-70.5 -66.5t-97 -25.5q-48 0 -73 18t-33 43q-19 -26 -52.5 -43.5t-67.5 -17.5q-55 0 -89 35.5
t-34 105.5q0 42 15.5 86t43 79.5t66.5 58.5t87 23q36 0 59.5 -12t39.5 -32l11 21q4 7 8 9.5t13 2.5h50q19 0 13 -17l-62 -190q-6 -18 -11 -33.5t-5 -29.5t11 -23.5t28 -9.5q32 0 54.5 20.5t36.5 52t20.5 68.5t6.5 69q0 44 -15.5 81t-45 63.5t-72.5 41t-98 14.5
q-71 0 -133.5 -24.5t-109 -69.5t-74 -108.5t-27.5 -141.5q0 -53 16.5 -96t47.5 -73t76.5 -46.5t104.5 -16.5q47 0 95 8t86 21q11 4 14 -8l8 -45q2 -8 -1 -11.5t-9 -5.5q-42 -18 -97 -28t-108 -10zM501 439q-9 14 -25.5 24t-37.5 10q-26 0 -47.5 -15.5t-36.5 -40t-23.5 -54
t-8.5 -57.5q0 -32 14 -49t38 -17q19 0 34 9t28 25q12 15 20.5 35.5t18.5 49.5z" />
    <glyph glyph-name="exclam" unicode="!" horiz-adv-x="294" 
d="M192 250q-1 -13 -16 -13h-74q-15 0 -14 13l48 452q2 9 6 13.5t15 4.5h96q20 0 17 -18zM52 0q-21 0 -18 19l15 104q3 19 22 19h105q22 0 19 -19l-15 -104q-3 -19 -23 -19h-105z" />
    <glyph glyph-name="exclamdown" unicode="&#xa1;" horiz-adv-x="294" 
d="M87.9941 278.983q1 12.999 16 12.999h73.9951q14.999 0 13.999 -12.999l-47.9971 -451.973q-2 -9 -6 -13.499q-3.99902 -4.5 -14.999 -4.5h-95.9941q-19.998 0 -16.999 17.999zM227.986 528.968q20.998 0 17.999 -18.999l-14.999 -103.993q-3 -18.999 -21.999 -18.999
h-104.993q-21.999 0 -18.999 18.999l14.999 103.993q3 18.999 22.998 18.999h104.994z" />
    <glyph glyph-name="question" unicode="?" horiz-adv-x="431" 
d="M220 253q-2 -16 -19 -16h-78q-17 0 -15 16l4 24q4 31 14.5 55t25.5 43t35 35t43 30q22 13 39 25.5t28.5 25.5t17.5 28.5t6 35.5q0 32 -21 51t-61 19q-28 0 -64 -9t-61 -20q-19 -8 -24 5l-21 58q-3 9 -1 15.5t15 13.5q32 16 81 29t104 13q39 0 72 -11t57 -31t37 -48
t13 -63q0 -36 -10.5 -65t-29.5 -54t-46 -46.5t-60 -42.5q-35 -22 -54 -42t-23 -50zM78 0q-21 0 -18 19l15 104q3 19 22 19h105q22 0 19 -19l-15 -104q-3 -19 -23 -19h-105z" />
    <glyph glyph-name="questiondown" unicode="&#xbf;" horiz-adv-x="431" 
d="M207.987 275.983q2 15.999 18.999 15.999h77.9951q16.999 0 14.999 -15.999l-4 -23.999q-4 -30.998 -14.499 -54.9961q-10.499 -23.999 -25.498 -42.998q-14.999 -18.998 -34.998 -34.9971t-42.9971 -29.999q-21.999 -12.999 -38.998 -25.498t-28.498 -25.498
q-11.499 -13 -17.499 -28.499t-6 -35.4971q0 -31.998 20.999 -50.9971t60.9961 -18.999q27.998 0 63.9961 8.99902q35.998 9 60.9961 19.999q18.999 8 23.999 -5l20.999 -57.9961q2.99902 -8.99902 1 -15.499q-2 -6.49902 -15 -13.499q-31.998 -15.999 -80.9941 -28.998
q-48.9971 -12.999 -103.994 -12.999q-38.998 0 -71.9961 10.999q-32.9971 10.999 -56.9961 30.998q-23.998 19.999 -36.998 47.9971q-12.999 27.998 -12.999 62.9961q0 35.998 10.5 64.9961q10.499 28.998 29.498 53.9971q18.999 24.998 45.9971 46.4971
q26.998 21.498 59.9961 42.4971q34.998 21.999 53.9971 41.9971q18.999 19.999 22.998 49.9971zM349.979 528.968q20.999 0 17.999 -18.999l-14.999 -103.993q-3 -18.999 -21.999 -18.999h-104.993q-21.999 0 -18.999 18.999l14.999 103.993q3 18.999 22.999 18.999h104.993
z" />
    <glyph glyph-name="asterisk" unicode="*" horiz-adv-x="405" 
d="M282 532l73 -90q3 -5 3 -9t-8 -10l-58 -40q-12 -11 -19 4l-49 104l-77 -104q-6 -8 -11 -8.5t-10 4.5l-46 40q-7 6 -5.5 10t6.5 9l93 90l-112 27q-15 4 -7 19l29 60q5 8 8 10.5t11 -0.5l99 -48l6 117q1 8 5 10.5t10 2.5h66q6 0 9.5 -2.5t1.5 -10.5l-26 -117l118 48
q8 3 10.5 0.5t4.5 -10.5l13 -60q2 -8 -0.5 -12.5t-12.5 -6.5z" />
    <glyph glyph-name="period" unicode="." horiz-adv-x="235" 
d="M23 0q-21 0 -18 19l15 104q3 19 22 19h105q22 0 19 -19l-15 -104q-3 -19 -23 -19h-105z" />
    <glyph glyph-name="comma" unicode="," horiz-adv-x="235" 
d="M2 -169q-20 0 -14 18l53 152l-24 12q-10 5 -13 11.5t-1 21.5l11 77q3 19 22 19h105q22 0 19 -19l-8 -53q-2 -15 -5 -28t-7 -26t-10 -26t-14 -29l-57 -112q-6 -11 -10.5 -14.5t-15.5 -3.5h-31z" />
    <glyph glyph-name="colon" unicode=":" horiz-adv-x="235" 
d="M69 365q-21 0 -18 19l15 104q3 19 22 19h105q22 0 19 -19l-15 -104q-3 -19 -23 -19h-105zM23 0q-21 0 -18 19l15 104q3 19 22 19h105q22 0 19 -19l-15 -104q-3 -19 -23 -19h-105z" />
    <glyph glyph-name="semicolon" unicode=";" horiz-adv-x="235" 
d="M69 365q-21 0 -18 19l15 104q3 19 22 19h105q22 0 19 -19l-15 -104q-3 -19 -23 -19h-105zM5 -169q-20 0 -14 18l53 152l-24 12q-10 5 -13 11.5t-1 21.5l11 77q3 19 22 19h105q22 0 19 -19l-8 -53q-2 -15 -5 -28t-7 -26t-10 -26t-14 -29l-57 -112q-6 -11 -10.5 -14.5
t-15.5 -3.5h-31z" />
    <glyph glyph-name="ellipsis" unicode="&#x2026;" horiz-adv-x="705" 
d="M23 0q-21 0 -18 19l15 104q3 19 22 19h105q22 0 19 -19l-15 -104q-3 -19 -23 -19h-105zM258 0q-21 0 -18 19l15 104q3 19 22 19h105q22 0 19 -19l-15 -104q-3 -19 -23 -19h-105zM493 0q-21 0 -18 19l15 104q3 19 22 19h105q22 0 19 -19l-15 -104q-3 -19 -23 -19h-105z
" />
    <glyph glyph-name="periodcentered" unicode="&#xb7;" horiz-adv-x="235" 
d="M57 294q-21 0 -18 19l15 104q3 19 22 19h105q22 0 19 -19l-15 -104q-3 -19 -23 -19h-105z" />
    <glyph glyph-name="uni22C5" unicode="&#x22c5;" horiz-adv-x="235" 
d="M57 294q-21 0 -18 19l15 104q3 19 22 19h105q22 0 19 -19l-15 -104q-3 -19 -23 -19h-105z" />
    <glyph glyph-name="bullet" unicode="&#x2022;" horiz-adv-x="340" 
d="M67 241q-37 0 -31 33l24 175q6 34 41 34h176q39 0 33 -34l-24 -175q-3 -17 -13 -25t-30 -8h-176z" />
    <glyph glyph-name="slash" unicode="/" horiz-adv-x="347" 
d="M83 9q-5 -15 -22 -15h-85q-16 0 -9 16l310 702q4 8 8.5 11.5t13.5 3.5h86q17 0 10 -16z" />
    <glyph glyph-name="parenleft" unicode="(" horiz-adv-x="331" 
d="M72 205q0 74 15.5 149t44.5 147t71 138.5t95 123.5q13 13 27 4l44 -31q10 -6 9.5 -13t-8.5 -18q-84 -112 -127 -237t-43 -263q-1 -87 16.5 -159t43.5 -135q5 -11 3 -18t-13 -13l-50 -25q-17 -10 -26 4q-43 66 -72.5 152t-29.5 194z" />
    <glyph glyph-name="brokenbar" unicode="&#xa6;" horiz-adv-x="267" 
d="M89 365q-17 0 -14 16l51 369q3 16 20 16h78q17 0 14 -16l-51 -369q-3 -16 -20 -16h-78zM4 -242q-16 0 -15 16l52 369q3 16 19 16h78q18 0 15 -16l-52 -369q-1 -16 -19 -16h-78z" />
    <glyph glyph-name="parenright" unicode=")" horiz-adv-x="331" 
d="M277 417q0 -73 -15.5 -148t-44.5 -147t-71 -139t-95 -124q-13 -13 -27 -4l-44 31q-15 11 -1 31q84 112 127 237t43 263q0 87 -15.5 159t-44.5 135q-5 11 -3 18t13 13l50 25q17 10 26 -4q43 -66 72.5 -152t29.5 -194z" />
    <glyph glyph-name="bracketleft" unicode="[" horiz-adv-x="327" 
d="M140 740q2 13 15 13h212q13 0 11 -13l-9 -62q-1 -13 -15 -13h-111l-99 -709h111q13 0 11 -13l-9 -62q-2 -13 -15 -13h-212q-13 0 -11 13z" />
    <glyph glyph-name="backslash" unicode="\" horiz-adv-x="349" 
d="M65 711q-1 16 14 16h86q17 0 18 -15l115 -702q1 -16 -15 -16h-86q-9 0 -12.5 3.5t-5.5 11.5z" />
    <glyph glyph-name="bracketright" unicode="]" horiz-adv-x="327" 
d="M193 -119q-2 -13 -15 -13h-212q-13 0 -11 13l9 62q1 13 15 13h111l99 709h-111q-13 0 -11 13l9 62q2 13 15 13h212q13 0 11 -13z" />
    <glyph glyph-name="braceleft" unicode="{" horiz-adv-x="317" 
d="M38 347q1 11 15 13q33 4 50.5 25.5t22.5 58.5l22 154q11 80 51.5 117.5t129.5 37.5h36q14 0 12 -13l-9 -62q-2 -13 -15 -13h-20q-35 0 -51.5 -19.5t-21.5 -57.5l-18 -131q-8 -60 -32.5 -94.5t-68.5 -49.5q33 -17 48 -39.5t15 -60.5q0 -14 -3 -37l-6 -46l-7 -52
q-3 -23 -5 -42t-2 -25q0 -50 53 -50h20q13 0 11 -13l-9 -62q-2 -13 -14 -13h-31q-74 0 -109 32.5t-35 92.5q0 14 2 35.5t7 55.5l9 66q2 17 4 30t2 22q0 25 -11.5 39.5t-39.5 19.5q-12 2 -11 13z" />
    <glyph glyph-name="bar" unicode="|" horiz-adv-x="269" 
d="M23 -242q-16 0 -15 16l137 976q3 16 20 16h78q17 0 14 -16l-137 -976q-1 -16 -19 -16h-78z" />
    <glyph glyph-name="braceright" unicode="}" horiz-adv-x="317" 
d="M288 279q-1 -11 -15 -13q-33 -4 -50.5 -25.5t-22.5 -58.5l-22 -154q-11 -80 -51.5 -117.5t-129.5 -37.5h-36q-14 0 -12 13l9 62q2 13 15 13h20q35 0 51.5 19.5t21.5 57.5l18 131q8 60 32.5 94.5t68.5 49.5q-33 17 -48 43.5t-15 64.5q0 8 3 29.5t6 45.5l7 52q3 23 5 42
t2 25q0 50 -53 50h-20q-13 0 -11 13l9 62q2 13 14 13h31q74 0 109 -32.5t35 -92.5q0 -14 -2 -35.5t-7 -55.5l-9 -66q-2 -17 -4 -30t-2 -22q0 -25 11.5 -39.5t39.5 -19.5q12 -2 11 -13z" />
    <glyph glyph-name="hyphen" unicode="-" horiz-adv-x="378" 
d="M339 261q-3 -17 -19 -17h-279q-16 0 -13 17l9 65q1 17 18 17h279q15 0 14 -17z" />
    <glyph glyph-name="uni00AD" unicode="&#xad;" horiz-adv-x="378" 
d="M339 261q-3 -17 -19 -17h-279q-16 0 -13 17l9 65q1 17 18 17h279q15 0 14 -17z" />
    <glyph glyph-name="endash" unicode="&#x2013;" horiz-adv-x="500" 
d="M481 255q-1 -17 -18 -17h-440q-15 0 -14 17l8 57q3 17 19 17h440q16 0 13 -17z" />
    <glyph glyph-name="emdash" unicode="&#x2014;" horiz-adv-x="1000" 
d="M980 255q-1 -17 -18 -17h-940q-15 0 -14 17l8 57q3 17 19 17h940q16 0 13 -17z" />
    <glyph glyph-name="underscore" unicode="_" horiz-adv-x="500" 
d="M447 -194q-3 -17 -19 -17h-489q-16 0 -13 17l8 57q3 17 17 17h490q17 0 14 -17z" />
    <glyph glyph-name="dagger" unicode="&#x2020;" horiz-adv-x="467" 
d="M466 411q-3 -17 -19 -17h-149l-72 -515q-3 -16 -19 -16h-78q-18 0 -15 16l72 515h-149q-16 0 -13 17l9 65q3 17 18 17h149l30 211q3 16 19 16h78q18 0 15 -16l-30 -211h149q17 0 14 -17z" />
    <glyph glyph-name="daggerdbl" unicode="&#x2021;" horiz-adv-x="484" 
d="M475 418q-3 -17 -19 -17h-149l-30 -219h149q16 0 13 -17l-9 -65q-3 -17 -18 -17h-149l-29 -204q-3 -16 -19 -16h-78q-18 0 -15 16l29 204h-149q-17 0 -14 17l9 65q3 17 19 17h149l30 219h-149q-16 0 -13 17l9 65q3 17 18 17h149l29 204q3 16 19 16h78q18 0 15 -16
l-29 -204h149q17 0 14 -17z" />
    <glyph glyph-name="section" unicode="&#xa7;" horiz-adv-x="515" 
d="M481 360q0 -23 -8 -43t-21 -37.5t-30.5 -33t-36.5 -29.5q11 -14 19 -34t8 -43q0 -43 -19 -76.5t-49.5 -56.5t-70 -35t-79.5 -12q-55 0 -93 12.5t-64 32.5q-15 10 -1 30l25 46q11 17 30 7q23 -13 53 -21.5t56 -8.5q14 0 30.5 2.5t31 9.5t24 18t9.5 29q1 26 -22 41t-72 29
q-38 11 -66.5 23.5t-48.5 29.5t-30 40t-10 55q0 45 26.5 78.5t71.5 59.5q-14 14 -22.5 35.5t-8.5 52.5q0 36 15.5 67t43.5 53.5t67.5 35.5t86.5 13q51 0 91.5 -12t66.5 -31q16 -11 1 -30l-26 -46q-8 -11 -15 -11.5t-15 4.5q-23 14 -51 21.5t-54 7.5q-12 0 -28 -3t-30.5 -9.5
t-24.5 -18t-10 -29.5q0 -14 7.5 -23.5t20 -16t29 -11.5t33.5 -11q44 -14 74.5 -28.5t49.5 -32t27.5 -39.5t8.5 -51zM219 426q-25 -13 -40.5 -29.5t-15.5 -38.5q0 -28 27 -44t78 -33l41 -14q25 12 40 30.5t15 38.5q0 26 -27 43t-78 33q-10 3 -20.5 6.5t-19.5 7.5z" />
    <glyph glyph-name="paragraph" unicode="&#xb6;" horiz-adv-x="601" 
d="M434 632h-71l-106 -753q-3 -16 -19 -16h-67q-18 0 -15 16l59 423q-42 2 -74.5 16.5t-54.5 38.5t-33.5 56t-11.5 69q0 53 19.5 97t54.5 75.5t84.5 48.5t109.5 17h301q17 0 14 -17l-8 -54q-1 -17 -18 -17h-63l-106 -753q-3 -16 -19 -16h-67q-18 0 -15 16z" />
    <glyph glyph-name="registered" unicode="&#xae;" horiz-adv-x="786" 
d="M346 -10q-69 0 -126.5 24t-98.5 67t-64 102t-23 129q0 88 31 164t85.5 132.5t130.5 89t166 32.5q69 0 126 -26t98 -70t64 -102.5t23 -122.5q0 -81 -30.5 -157t-85 -134t-130 -93t-166.5 -35zM356 63q67 0 125 27.5t100.5 74t66.5 107.5t24 129q0 55 -17 102t-47.5 81.5
t-74 53.5t-95.5 19q-71 0 -130 -27t-101 -73t-65 -108.5t-23 -132.5q0 -56 17 -102t48.5 -80t75 -52.5t96.5 -18.5zM384 378q35 0 57.5 17t22.5 53q0 28 -19 38t-48 10h-37l-17 -118h41zM246 159q-12 0 -10 10l54 386q1 8 9 8h108q72 0 105 -29t33 -77q0 -20 -6 -41t-17 -39
t-27.5 -32.5t-38.5 -21.5l65 -147q7 -17 -9 -17h-52q-9 0 -13 2t-7 9l-61 144h-44l-20 -145q-1 -5 -3 -7.5t-9 -2.5h-57z" />
    <glyph glyph-name="copyright" unicode="&#xa9;" horiz-adv-x="786" 
d="M376 151q-75 0 -114 45.5t-39 117.5q0 46 13.5 91.5t40.5 81.5t67.5 58.5t93.5 22.5q30 0 52.5 -7t42.5 -21q10 -7 2 -20l-18 -35q-5 -7 -9 -8t-11 3q-17 9 -31 14t-34 5q-31 0 -54.5 -16.5t-39 -42t-23 -57.5t-7.5 -62q0 -43 20 -71t68 -28q17 0 35.5 5t30.5 10
q13 6 16 -5l11 -37q2 -11 -8 -17q-20 -12 -47.5 -19.5t-57.5 -7.5zM346 -10q-69 0 -126.5 24t-98.5 67t-64 102t-23 129q0 88 31 164t85.5 132.5t130.5 89t166 32.5q69 0 126 -26t98 -70t64 -102.5t23 -122.5q0 -81 -30.5 -157t-85 -134t-130 -93t-166.5 -35zM356 63
q67 0 125 27.5t100.5 74t66.5 107.5t24 129q0 55 -17 102t-47.5 81.5t-74 53.5t-95.5 19q-71 0 -130 -27t-101 -73t-65 -108.5t-23 -132.5q0 -56 17 -102t48.5 -80t75 -52.5t96.5 -18.5z" />
    <glyph glyph-name="trademark" unicode="&#x2122;" horiz-adv-x="842" 
d="M219 332q-2 -8 -5 -11.5t-11 -3.5h-63q-15 0 -12 15l44 312h-97q-16 0 -13 14l6 48q3 14 17 14h285q16 0 13 -14l-6 -48q-3 -14 -17 -14h-97zM796 331q-2 -7 -4.5 -10.5t-11.5 -3.5h-59q-16 0 -13 15l15 146q3 32 6 60.5t7 53.5q-14 -27 -27.5 -53t-30.5 -57l-45 -86
q-5 -8 -9 -11t-13 -3h-48q-9 0 -12.5 3t-5.5 11l-24 82q-8 29 -15.5 57t-14.5 57q-3 -29 -7 -60.5t-10 -62.5l-25 -137q-3 -15 -17 -15h-57q-9 0 -11.5 3.5t-0.5 10.5l71 372q2 11 7 14t12 3h67q11 0 15 -3.5t6 -11.5l39 -140q7 -25 12.5 -45.5t8.5 -37.5q8 17 19.5 39.5
t22.5 43.5l77 140q5 8 9.5 11.5t15.5 3.5h71q7 0 11.5 -3t3.5 -14z" />
    <glyph glyph-name="quotedblleft" unicode="&#x201c;" horiz-adv-x="459" 
d="M229.986 719.956q19.998 0 13.999 -17.999l-52.9971 -151.99l23.999 -12q9.99902 -4.99902 12.999 -11.499q3 -6.49902 1 -21.499l-11 -76.9951q-2.99902 -18.999 -21.998 -18.999h-104.994q-21.998 0 -18.998 18.999l7.99902 52.9971q2 14.999 5 27.998
q2.99902 12.999 6.99902 25.999q4 12.999 10 25.998q5.99902 12.999 13.999 28.998l56.9961 111.993q6 10.999 10.5 14.499q4.49902 3.5 15.499 3.5h30.998zM434.974 719.956q19.999 0 13.999 -17.999l-52.9971 -151.99l23.999 -12q9.99902 -4.99902 12.999 -11.499
q3 -6.49902 1 -21.499l-10.999 -76.9951q-3 -18.999 -21.999 -18.999h-104.993q-21.999 0 -18.999 18.999l7.99902 52.9971q2 14.999 5 27.998t6.99902 25.999q4 12.999 10 25.998q5.99902 12.999 13.999 28.998l56.9961 111.993q6 10.999 10.5 14.499
q4.49902 3.5 15.499 3.5h30.998z" />
    <glyph glyph-name="quotedblright" unicode="&#x201d;" horiz-adv-x="459" 
d="M87 409q-20 0 -14 18l53 152l-24 12q-10 5 -13 11.5t-1 21.5l11 77q3 19 22 19h105q22 0 19 -19l-8 -53q-2 -15 -5 -28t-7 -26t-10 -26t-14 -29l-57 -112q-6 -11 -10.5 -14.5t-15.5 -3.5h-31zM292 409q-20 0 -14 18l53 152l-24 12q-10 5 -13 11.5t-1 21.5l11 77
q3 19 22 19h105q22 0 19 -19l-8 -53q-2 -15 -5 -28t-7 -26t-10 -26t-14 -29l-57 -112q-6 -11 -10.5 -14.5t-15.5 -3.5h-31z" />
    <glyph glyph-name="quoteleft" unicode="&#x2018;" horiz-adv-x="254" 
d="M238 720q20 0 14 -18l-53 -152l24 -12q10 -5 13 -11.5t1 -21.5l-11 -77q-3 -19 -22 -19h-105q-22 0 -19 19l8 53q2 15 5 28t7 26t10 26t14 29l57 112q6 11 10.5 14.5t15.5 3.5h31z" />
    <glyph glyph-name="quoteright" unicode="&#x2019;" horiz-adv-x="254" 
d="M87 409q-20 0 -14 18l53 152l-24 12q-10 5 -13 11.5t-1 21.5l11 77q3 19 22 19h105q22 0 19 -19l-8 -53q-2 -15 -5 -28t-7 -26t-10 -26t-14 -29l-57 -112q-6 -11 -10.5 -14.5t-15.5 -3.5h-31z" />
    <glyph glyph-name="guillemotleft" unicode="&#xab;" horiz-adv-x="526" 
d="M52 270q-7 12 -5 29l1 9q2 11 5 16t8 12l151 183q11 13 17.5 14.5t16.5 -5.5l38 -26q9 -5 10 -12t-8 -19l-126 -177l76 -162q10 -21 -10 -31l-36 -20q-19 -11 -31 9zM269 270q-7 12 -5 29l1 9q2 11 5 16t8 12l151 183q11 13 17.5 14.5t16.5 -5.5l38 -26q9 -5 10 -12
t-8 -19l-126 -177l76 -162q10 -21 -10 -31l-36 -20q-19 -11 -31 9z" />
    <glyph glyph-name="guillemotright" unicode="&#xbb;" horiz-adv-x="521" 
d="M273.983 339.979q6.99902 -11.999 5 -28.998l-1 -9q-2 -10.999 -5 -15.999t-8 -11.999l-150.99 -182.989q-10.999 -12.999 -17.499 -14.499t-16.499 5.5l-37.998 25.998q-8.99902 5 -9.99902 11.999q-1 7 8 18.999l125.992 176.989l-75.9961 161.99
q-9.99902 20.999 10 30.998l35.998 19.999q18.998 10.999 30.998 -8.99902zM490.97 339.979q7 -11.999 5 -28.998l-1 -9q-2 -10.999 -5 -15.999q-2.99902 -5 -7.99902 -11.999l-150.991 -182.989q-10.999 -12.999 -17.499 -14.499q-6.49902 -1.5 -16.499 5.5
l-37.9971 25.998q-9 5 -10 11.999q-1 7 8 18.999l125.992 176.989l-75.9951 161.99q-10 20.999 9.99902 30.998l35.998 19.999q18.999 10.999 30.998 -8.99902z" />
    <glyph glyph-name="guilsinglleft" unicode="&#x2039;" horiz-adv-x="309" 
d="M52 270q-7 12 -5 29l1 9q2 11 5 16t8 12l151 183q11 13 17.5 14.5t16.5 -5.5l38 -26q9 -5 10 -12t-8 -19l-126 -177l76 -162q10 -21 -10 -31l-36 -20q-19 -11 -31 9z" />
    <glyph glyph-name="guilsinglright" unicode="&#x203a;" horiz-adv-x="309" 
d="M274 334q7 -12 5 -29l-1 -9q-2 -11 -5 -16t-8 -12l-151 -183q-11 -13 -17.5 -14.5t-16.5 5.5l-38 26q-9 5 -10 12t8 19l126 177l-76 162q-10 21 10 31l36 20q11 6 17.5 4.5t13.5 -13.5z" />
    <glyph glyph-name="quotesinglbase" unicode="&#x201a;" horiz-adv-x="254" 
d="M23 -232q-20 0 -14 18l53 152l-24 12q-10 5 -13 11.5t-1 21.5l11 77q3 19 22 19h105q22 0 19 -19l-8 -53q-2 -15 -5 -28t-7 -26t-10 -26t-14 -29l-57 -112q-6 -11 -10.5 -14.5t-15.5 -3.5h-31z" />
    <glyph glyph-name="quotedblbase" unicode="&#x201e;" horiz-adv-x="459" 
d="M23 -232q-20 0 -14 18l53 152l-24 12q-10 5 -13 11.5t-1 21.5l11 77q3 19 22 19h105q22 0 19 -19l-8 -53q-2 -15 -5 -28t-7 -26t-10 -26t-14 -29l-57 -112q-6 -11 -10.5 -14.5t-15.5 -3.5h-31zM228 -232q-20 0 -14 18l53 152l-24 12q-10 5 -13 11.5t-1 21.5l11 77
q3 19 22 19h105q22 0 19 -19l-8 -53q-2 -15 -5 -28t-7 -26t-10 -26t-14 -29l-57 -112q-6 -11 -10.5 -14.5t-15.5 -3.5h-31z" />
    <glyph glyph-name="arrowleft" unicode="&#x2190;" horiz-adv-x="656" 
d="M264 123q5 -7 2 -13.5t-24 -24.5l-8 -6q-21 -17 -27.5 -20.5t-12.5 4.5l-149 187q-9 11 -11 16t-1 10q0 8 3 13.5t18 19.5l206 185q7 7 13 4t23 -22l7 -8q17 -20 19 -26.5t-5 -12.5l-119 -104h386q10 0 12 -7t-2 -38q0 -18 -2.5 -28.5t-6.5 -15t-7.5 -5.5t-6.5 -1h-397z
" />
    <glyph glyph-name="arrowup" unicode="&#x2191;" horiz-adv-x="656" 
d="M382 418l-57 -402q0 -5 -1 -8t-5 -5t-12.5 -2.5t-24.5 -0.5h-6q-33 0 -40 2.5t-6 13.5l56 398l-121 -104q-7 -5 -12.5 -2t-20.5 20l-9 11q-17 19 -18.5 25.5t4.5 11.5l211 177q14 11 18.5 14t10.5 3h8q5 0 8.5 -2.5t14.5 -14.5l163 -178q6 -7 3 -13.5t-23 -23.5l-8 -6
q-21 -18 -28 -21t-12 2z" />
    <glyph glyph-name="arrowright" unicode="&#x2192;" horiz-adv-x="656" 
d="M366 434q-5 7 -2 13t24 24l8 7q20 17 27 20t12 -5l149 -186q10 -12 11.5 -16.5t0.5 -9.5q0 -8 -3 -14t-17 -20l-206 -185q-8 -7 -13.5 -4t-22.5 23l-8 7q-17 20 -19 26.5t6 13.5l118 104h-385q-5 0 -8 1t-4.5 5.5t-1 13.5t3.5 25q0 18 2.5 28.5t6.5 15t7.5 5.5t6.5 1h397
z" />
    <glyph glyph-name="arrowdown" unicode="&#x2193;" horiz-adv-x="656" 
d="M261 152l58 402q0 5 1 8t5 5t12.5 2.5t24.5 0.5h7q32 0 39.5 -2.5t5.5 -13.5l-56 -398l121 104q7 5 13 2.5t20 -20.5l9 -10q17 -21 19 -27t-5 -11l-210 -177q-14 -11 -19 -14t-11 -3h-7q-5 0 -9 3t-15 14l-163 178q-6 7 -2 14t24 24l8 7q21 17 27 19.5t11 -2.5z" />
    <glyph glyph-name="uni266A" unicode="&#x266a;" horiz-adv-x="690" 
d="M513 408q-3 -2 -5.5 -0.5t-8.5 10.5l-4 6q-6 9 -6.5 11.5t2.5 4.5q32 22 32 50q0 16 -8.5 27t-22 19t-31.5 14t-37 13q-17 5 -32.5 13t-29.5 20v-472q0 -64 -37.5 -99t-108.5 -35q-56 0 -86 24t-30 56t29.5 56t82.5 24q24 0 50 -7t46 -20v588q0 5 3.5 7t19.5 2h8
q16 0 19.5 -2t3.5 -7v-25q24 -18 51 -29t53 -21q25 -9 47.5 -18t39.5 -22t27 -31t10 -46q0 -31 -20 -60.5t-57 -50.5z" />
    <glyph glyph-name="grave" unicode="`" horiz-adv-x="343" 
d="M216 591q-14 0 -21 10l-98 150q-8 15 11 15h89q8 0 11.5 -2.5t6.5 -8.5l68 -151q3 -6 0 -9.5t-8 -3.5h-59z" />
    <glyph glyph-name="acute" unicode="&#xb4;" horiz-adv-x="343" 
d="M126 591q-16 0 -4 17l108 147q8 11 22 11h89q8 0 10 -4t-5 -11l-136 -150q-5 -5 -10 -7.5t-13 -2.5h-61z" />
    <glyph glyph-name="dieresis" unicode="&#xa8;" horiz-adv-x="343" 
d="M59 612q-17 0 -14 16l12 86q1 16 19 16h87q17 0 16 -16l-12 -86q-3 -16 -21 -16h-87zM278 612q-17 0 -14 16l12 86q1 16 19 16h87q17 0 16 -16l-12 -86q-3 -16 -21 -16h-87z" />
    <glyph glyph-name="circumflex" unicode="&#x2c6;" horiz-adv-x="343" 
d="M371 646q9 -12 -3 -22l-30 -28q-11 -10 -20 -1l-87 91l-126 -91q-12 -9 -20 1l-30 35q-5 7 -3.5 11.5t6.5 9.5l104 95q9 8 16 11.5t18 3.5h70q11 0 17.5 -3.5t12.5 -11.5z" />
    <glyph glyph-name="tilde" unicode="&#x2dc;" horiz-adv-x="343" 
d="M382 677q-23 -25 -53 -43t-63 -18q-19 0 -33.5 6t-27 12.5t-24.5 12.5t-26 6q-15 0 -30 -8.5t-32 -22.5q-3 -3 -6.5 -4t-8.5 4l-30 39q-7 9 3 19q23 25 53 43t63 18q19 0 33.5 -6t27.5 -12.5l25 -12.5t26 -6q15 0 29.5 8.5t31.5 22.5q4 3 7 4t8 -4l31 -39q7 -8 -4 -19z
" />
    <glyph glyph-name="macron" unicode="&#xaf;" horiz-adv-x="343" 
d="M380 649q-1 -17 -18 -17h-264q-15 0 -14 17l8 54q1 17 18 17h264q15 0 14 -17z" />
    <glyph glyph-name="breve" unicode="&#x2d8;" horiz-adv-x="343" 
d="M211 602q-67 0 -103 35.5t-30 99.5q1 8 4.5 10.5t11.5 2.5h58q13 0 13 -12q0 -59 56 -59q55 0 74 59q3 12 15 12h58q8 0 12 -2.5t2 -10.5q-10 -66 -57 -100.5t-114 -34.5z" />
    <glyph glyph-name="dotaccent" unicode="&#x2d9;" horiz-adv-x="343" 
d="M166 610q-16 0 -15 16l13 86q1 16 19 16h87q17 0 16 -16l-13 -86q-1 -16 -20 -16h-87z" />
    <glyph glyph-name="ring" unicode="&#x2da;" horiz-adv-x="343" 
d="M206 586q-42 0 -68 27.5t-26 66.5q0 24 10.5 44.5t27.5 35t39 23t45 8.5q20 0 37 -7t29.5 -19.5t19.5 -29t7 -35.5q0 -23 -10 -43.5t-26.5 -36t-38.5 -25t-46 -9.5zM214 648q17 0 31 12.5t14 30.5q0 14 -7.5 26t-25.5 12q-16 0 -31.5 -12t-15.5 -33q0 -16 9.5 -26
t25.5 -10z" />
    <glyph glyph-name="cedilla" unicode="&#xb8;" horiz-adv-x="343" 
d="M114 -233q-25 0 -44.5 4t-32.5 9q-9 4 -5 16l15 42q3 8 6 9t10 -1q8 -2 22.5 -4t25.5 -2q6 0 14.5 1t15.5 4.5t12 10t5 17.5q0 27 -43 27q-22 0 -49 -3q-8 0 -9 3t1 11l29 101q1 9 11 9h60q7 0 8 -2.5t-1 -10.5l-10 -46h2q42 0 68 -19t25 -64q0 -24 -11 -44.5
t-29.5 -35.5t-43.5 -23.5t-52 -8.5z" />
    <glyph glyph-name="hungarumlaut" unicode="&#x2dd;" horiz-adv-x="343" 
d="M38 595q-5 0 -7 2.5t3 10.5l102 147q8 11 22 11h80q18 0 6 -14l-125 -147q-5 -6 -9 -8t-12 -2h-60zM224 595q-5 0 -7 2.5t3 10.5l102 147q8 11 22 11h80q18 0 6 -14l-125 -147q-5 -6 -9 -8t-12 -2h-60z" />
    <glyph glyph-name="ogonek" unicode="&#x2db;" horiz-adv-x="343" 
d="M123 -230q-51 0 -78.5 24.5t-27.5 66.5q0 23 9 45.5t24.5 42.5t35.5 36t43 26q9 5 18.5 6.5t25.5 1.5h38q10 0 10.5 -5.5t-4.5 -8.5q-17 -9 -35.5 -21.5t-34.5 -27.5t-26 -33t-10 -38q0 -19 12 -26.5t29 -7.5q9 0 21 2.5t21 6.5t11.5 2t4.5 -9l9 -40q2 -10 -0.5 -14.5
t-13.5 -9.5q-36 -19 -82 -19z" />
    <glyph glyph-name="caron" unicode="&#x2c7;" horiz-adv-x="343" 
d="M273 603q-9 -8 -16 -11.5t-18 -3.5h-70q-11 0 -17.5 3.5t-12.5 11.5l-75 96q-4 5 -4.5 10t6.5 11l39 34q7 6 11 6t9 -5l89 -91l115 91q6 5 10.5 5t9.5 -6l30 -33q5 -7 3.5 -12t-6.5 -10z" />
    <glyph glyph-name="grave.cap" horiz-adv-x="343" 
d="M231 779q-8 0 -12 2.5t-8 7.5l-96 151q-5 7 -1.5 11t11.5 4h89q8 0 11.5 -2.5t6.5 -8.5l70 -152q2 -5 0 -9t-8 -4h-63z" />
    <glyph glyph-name="acute.cap" horiz-adv-x="343" 
d="M161 780q-13 0 -4 13l115 151q8 11 22 11h89q19 0 6 -15l-138 -150q-10 -10 -24 -10h-66z" />
    <glyph glyph-name="dieresis.cap" horiz-adv-x="343" 
d="M78 791q-16 0 -15 16l12 86q3 16 20 16h87q18 0 15 -16l-12 -86q-1 -16 -20 -16h-87zM299 791q-16 0 -15 16l12 86q3 16 20 16h87q18 0 15 -16l-12 -86q-1 -16 -20 -16h-87z" />
    <glyph glyph-name="circumflex.cap" horiz-adv-x="343" 
d="M387 831q5 -7 5 -11t-8 -11l-31 -26q-7 -6 -11 -6t-9 5l-84 89l-120 -91q-6 -5 -10.5 -5t-9.5 6l-33 33q-6 7 -4 11.5t7 9.5l104 97q9 8 16 11.5t18 3.5h70q11 0 17.5 -3.5t12.5 -11.5z" />
    <glyph glyph-name="tilde.cap" horiz-adv-x="343" 
d="M402 858q-23 -25 -53 -43t-63 -18q-19 0 -33.5 6t-27 13t-24.5 13t-26 6q-15 0 -30 -9t-32 -23q-4 -3 -7 -4t-8 4l-31 39q-7 8 4 19q23 25 53 43t63 18q19 0 33.5 -6t27.5 -13t25 -13t26 -6q15 0 29.5 9t31.5 23q3 3 6.5 4t8.5 -4l30 -39q8 -8 -3 -19z" />
    <glyph glyph-name="macron.cap" horiz-adv-x="343" 
d="M381 835q-1 -17 -18 -17h-264q-15 0 -14 17l8 54q3 17 18 17h264q17 0 14 -17z" />
    <glyph glyph-name="breve.cap" horiz-adv-x="343" 
d="M227 789q-62 0 -100 30t-38 88v7.5t1 9.5q1 13 17 13h58q12 0 12 -12q0 -31 17 -45t44 -14q52 0 69 59q3 12 16 12h58q8 0 11.5 -2.5t1.5 -10.5q-10 -63 -55 -99t-112 -36z" />
    <glyph glyph-name="dotaccent.cap" horiz-adv-x="343" 
d="M180 807q-16 0 -15 16l12 86q3 16 20 16h87q18 0 15 -16l-12 -86q-1 -16 -20 -16h-87z" />
    <glyph glyph-name="ring.cap" horiz-adv-x="343" 
d="M220 773q-41 0 -67.5 27t-26.5 65q0 22 9.5 42.5t26 36.5t38 25t45.5 9q20 0 37.5 -6.5t30.5 -18.5t20.5 -28t7.5 -35q0 -24 -10 -45.5t-26.5 -37t-38.5 -25t-46 -9.5zM228 835q15 0 30 12.5t15 32.5q0 15 -10 25.5t-25 10.5q-18 0 -31.5 -12t-13.5 -31q0 -17 9 -27.5
t26 -10.5z" />
    <glyph glyph-name="hungarumlaut.cap" horiz-adv-x="343" 
d="M77 783q-5 0 -7.5 2.5t2.5 10.5l102 147q8 11 23 11h80q17 0 6 -14l-126 -147q-5 -6 -8.5 -8t-11.5 -2h-60zM265 783q-5 0 -7.5 2.5t2.5 10.5l102 147q8 11 23 11h80q17 0 6 -14l-126 -147q-5 -6 -8.5 -8t-11.5 -2h-60z" />
    <glyph glyph-name="caron.cap" horiz-adv-x="343" 
d="M300 797q-9 -8 -16.5 -11.5t-18.5 -3.5h-70q-11 0 -17 3.5t-12 11.5l-73 97q-4 5 -4.5 9.5t7.5 11.5l35 31q7 6 11 6t9 -5l85 -89l120 91q6 5 10.5 5t9.5 -6l30 -33q6 -7 4 -12t-7 -10z" />
    <glyph glyph-name="zero" unicode="0" 
d="M235 -10q-98 0 -151.5 65t-53.5 199q0 48 7 101.5t23 106.5t41 101.5t60.5 85.5t82.5 59t106 22q97 0 150.5 -63t53.5 -193q0 -46 -7 -99.5t-22.5 -107.5t-40 -104t-60 -88.5t-82.5 -61.5t-107 -23zM250 92q43 0 76 36t55.5 92.5t34.5 124t12 130.5q0 153 -95 153
q-42 0 -75 -35.5t-55.5 -90.5t-34.5 -120.5t-12 -125.5q0 -164 94 -164z" />
    <glyph glyph-name="one" unicode="1" 
d="M419 720q16 0 13 -15l-85 -608h128q14 0 13 -15l-10 -67q-2 -15 -17 -15h-390q-15 0 -13 15l10 67q1 15 17 15h141l69 493l-137 -67q-19 -9 -24 7l-22 56q-6 18 12 26l188 92q17 8 31 12t35 4h41z" />
    <glyph glyph-name="two" unicode="2" 
d="M463 104q16 0 13 -15l-10 -74q-2 -15 -17 -15h-409q-19 0 -16 20l7 54q11 80 64.5 146t147.5 137q39 29 71 52.5t54.5 45.5t35 44.5t12.5 49.5q0 42 -29 61t-68 19q-42 0 -84 -13.5t-77 -33.5q-17 -9 -24 5l-27 54q-4 9 -0.5 14.5t14.5 13.5q18 13 42.5 24.5t52 19.5
t57 12.5t57.5 4.5q44 0 82.5 -10.5t67.5 -31t46 -51t17 -70.5q0 -49 -15 -84t-43.5 -65t-68.5 -60t-89 -69q-27 -21 -54.5 -42t-50 -43t-39.5 -46.5t-23 -53.5h303z" />
    <glyph glyph-name="three" unicode="3" 
d="M536 720q17 0 14 -16l-5 -43q-1 -11 -4 -20t-9.5 -18t-16 -20t-24.5 -26l-161 -165q86 -7 134 -50t48 -116q0 -56 -22 -103t-60 -81t-89.5 -53t-110.5 -19q-63 0 -115.5 16t-84.5 39q-14 9 -5 25l31 57q10 15 24 8q33 -19 71 -31.5t83 -12.5q71 0 111 37.5t40 97.5
q-1 30 -12 48.5t-30.5 29t-46.5 14.5t-58 4h-41q-16 0 -13 14l5 40q2 17 6.5 25.5t15.5 19.5l188 195h-249q-15 0 -13 15l11 74q1 15 17 15h371z" />
    <glyph glyph-name="four" unicode="4" 
d="M287 704q6 10 11.5 13t16.5 3h85q8 0 11.5 -4t-1.5 -13l-250 -432h159l22 158q3 15 18 15h92q15 0 12 -15l-22 -158h73q16 0 13 -15l-10 -73q-2 -15 -17 -15h-73l-22 -153q-1 -15 -17 -15h-92q-14 0 -13 15l22 153h-268q-19 0 -17 18l4 38q2 18 5.5 28.5t12.5 25.5z" />
    <glyph glyph-name="five" unicode="5" 
d="M236 437q23 6 46 8.5t49 2.5q101 0 149 -60q38 -46 38 -121q0 -58 -20.5 -108.5t-58 -88t-89.5 -59t-116 -21.5q-66 0 -111 13t-81 35q-8 5 -7.5 10.5t4.5 13.5l26 61q4 9 10 10.5t13 -2.5q30 -16 69.5 -28t77.5 -12t67.5 12.5t49 34t29.5 50t10 61.5q0 57 -31 81t-87 24
q-18 0 -32.5 -1t-29 -3.5t-31 -6.5t-37.5 -9q-8 -2 -16.5 3t-6.5 17l50 351q1 15 17 15h354q14 0 13 -15l-11 -74q-2 -15 -17 -15h-265l-25 -179v0z" />
    <glyph glyph-name="six" unicode="6" 
d="M266 -10q-110 0 -161 63t-51 176q0 88 19.5 177t62 161t109.5 117.5t161 45.5q39 0 72.5 -9.5t59.5 -24.5q8 -5 7 -12t-6 -16l-26 -48q-10 -15 -27 -7t-39.5 13t-45.5 5q-40 0 -72.5 -16t-56.5 -44t-39.5 -66.5t-22.5 -82.5q31 20 67 31.5t80 11.5t77.5 -13.5t56 -38.5
t33.5 -59t11 -75q0 -54 -19.5 -105.5t-55 -92.5t-85 -66t-109.5 -25zM281 90q32 0 56 16t40.5 40.5t24.5 55t8 60.5q0 46 -21.5 75t-72.5 29q-35 0 -68 -11t-58 -26q-8 -30 -10 -55.5t-2 -42.5q0 -141 103 -141z" />
    <glyph glyph-name="seven" unicode="7" 
d="M564 720q16 0 13 -15l-7 -53q-2 -15 -7 -25t-16 -30l-315 -580q-5 -8 -11.5 -12.5t-18.5 -4.5h-95q-22 0 -10 19l343 597h-318q-16 0 -13 15l10 74q3 15 17 15h428z" />
    <glyph glyph-name="eight" unicode="8" 
d="M191 375q-16 13 -31 28t-26 33t-18 40t-7 50q0 44 19 81.5t51.5 64.5t76.5 42.5t94 15.5q39 0 73 -11t60 -32t41 -50.5t15 -66.5q0 -62 -37 -104t-101 -76q21 -12 41 -29t35.5 -38.5t24.5 -47.5t9 -55q0 -54 -22 -96.5t-59 -72.5t-85.5 -45.5t-100.5 -15.5
q-42 0 -80.5 11.5t-68.5 34.5t-48 56t-18 77q0 36 12 67.5t33.5 57.5t51.5 46.5t65 34.5zM319 433q45 23 72 53.5t27 69.5q0 34 -24 55.5t-62 21.5q-45 0 -74 -27t-29 -69q0 -19 7.5 -34t19.5 -27.5t28.5 -23t34.5 -19.5zM267 328q-23 -10 -44 -23.5t-36.5 -31.5t-25 -40
t-9.5 -48q0 -42 30 -68.5t77 -26.5q24 0 46.5 8t40.5 23t28.5 36t10.5 47q0 22 -10 40t-26.5 33t-37.5 27.5t-44 23.5z" />
    <glyph glyph-name="nine" unicode="9" 
d="M395 318q-25 -20 -64 -33.5t-75 -13.5q-47 0 -82 14t-58.5 39t-35.5 59.5t-12 75.5q0 53 19 102t54 86.5t84 60t109 22.5q104 0 154 -68t50 -185q0 -80 -16 -166t-53.5 -157.5t-100.5 -117.5t-156 -46q-55 0 -96 13.5t-67 30.5q-7 5 -8 10.5t7 18.5l24 49q7 15 25 6
q20 -10 53.5 -19.5t62.5 -9.5q73 0 119 59t63 170zM408 404q3 18 5 43t2 41q0 65 -21 103.5t-72 38.5q-32 0 -55.5 -14t-39.5 -35.5t-24 -49t-8 -54.5q0 -46 23.5 -77t79.5 -31q27 0 58.5 10.5t51.5 24.5z" />
    <glyph glyph-name="dollar" unicode="$" 
d="M383 815q17 0 14 -16l-11 -79q47 -5 80.5 -18t53.5 -27q14 -11 2 -31l-30 -51q-11 -19 -29 -7q-24 14 -45 22.5t-46 11.5l-28 -201q41 -22 71.5 -43t50.5 -44t30 -49t10 -58q0 -38 -13 -75.5t-40.5 -68.5t-69 -52.5t-98.5 -28.5l-11 -81q-3 -16 -20 -16h-37q-17 0 -14 16
l11 79q-29 0 -58 6t-54 15.5t-45 20.5t-32 21q-8 6 -7 14t6 17l33 53q7 10 14.5 10.5t15.5 -4.5q32 -21 66 -34.5t75 -15.5l31 220q-27 14 -56 30.5t-53 38.5t-39.5 52t-15.5 71q0 43 16 79t45.5 62t69.5 42.5t88 22.5l12 80q3 16 20 16h37zM382 201q0 29 -16.5 48.5
t-40.5 35.5l-25 -177q38 11 60 34.5t22 58.5zM220 529q0 -25 16.5 -43t40.5 -32l23 162q-38 -9 -59 -31.5t-21 -55.5z" />
    <glyph glyph-name="cent" unicode="&#xa2;" 
d="M401 633q16 0 15 -16l-13 -89q29 -5 59 -16t57 -31q8 -7 7.5 -14t-7.5 -17l-30 -46q-7 -11 -14 -11.5t-15 4.5q-17 10 -34 17t-37 11l-46 -326q21 4 43 11t38 15q20 9 25 -9l13 -47q3 -11 1 -17t-10 -12q-20 -14 -55.5 -26t-69.5 -16l-13 -97q-1 -16 -19 -16h-37
q-16 0 -15 16l13 94q-46 2 -81.5 20.5t-59.5 48.5t-36.5 70t-12.5 87q0 59 18 112t52 94t83 68t112 34l13 88q1 16 19 16h37zM191 231q0 -52 20.5 -86t60.5 -45l46 324q-56 -14 -91.5 -64.5t-35.5 -128.5z" />
    <glyph glyph-name="Euro" unicode="&#x20ac;" 
d="M435 259q-3 -17 -19 -17h-185q5 -65 38.5 -104.5t107.5 -39.5q33 0 63.5 9t52.5 20q21 10 27 -6l18 -55q4 -11 1 -17t-13 -12q-32 -20 -78 -33.5t-98 -13.5q-57 0 -102 18t-77 51t-49.5 79.5t-19.5 103.5h-66q-16 0 -13 17l6 48q3 17 19 17h56q1 11 1.5 17.5t2.5 17.5
q3 22 6 32h-51q-16 0 -13 17l6 48q3 17 19 17h62q39 118 118 187.5t197 69.5q52 0 95 -13t68 -33q17 -14 6 -30l-31 -51q-15 -20 -31 -10q-23 14 -50 23t-61 9q-66 0 -112 -37t-72 -115h191q16 0 13 -17l-6 -48q-3 -17 -19 -17h-201q-2 -5 -3 -13.5t-3 -18.5
q-2 -11 -2.5 -17.5t-1.5 -17.5h196q16 0 13 -17z" />
    <glyph glyph-name="florin" unicode="&#x192;" 
d="M470 372q-3 -17 -18 -17h-132l-64 -233q-29 -107 -86 -169.5t-148 -62.5q-27 0 -51.5 5.5t-40.5 13.5q-8 4 -10 9t3 16l17 53q5 11 10 13t13 0q17 -4 31 -7t25 -3q25 0 43 7.5t31.5 23.5t24 41t19.5 59l64 234h-81q-17 0 -14 17l8 60q3 17 19 17h93l15 54
q15 55 36.5 97.5t51 71t69 43.5t91.5 15q23 0 46 -4.5t40 -12.5q8 -3 9.5 -8t-3.5 -16l-22 -55q-5 -11 -10.5 -13t-13.5 0q-17 4 -29.5 6t-23.5 2q-51 0 -78.5 -29t-44.5 -95l-14 -56h120q16 0 13 -17z" />
    <glyph glyph-name="sterling" unicode="&#xa3;" 
d="M160 421l9 64q16 113 77.5 179t172.5 66q38 0 76.5 -10t66.5 -25q9 -5 9 -10.5t-5 -17.5l-22 -51q-5 -11 -10.5 -12.5t-14.5 3.5q-22 10 -46.5 16t-51.5 6q-60 0 -90 -34t-39 -100l-10 -74h170q15 0 14 -17l-9 -59q-1 -17 -18 -17h-170l-8 -58q-10 -68 -31 -106.5
t-53 -61.5h293q15 0 14 -17l-10 -68q-1 -17 -18 -17h-421q-15 0 -14 17l8 53q2 11 5.5 18t14.5 14q42 25 61.5 62.5t27.5 96.5l9 67h-67q-15 0 -14 17l9 59q1 17 18 17h67z" />
    <glyph glyph-name="yen" unicode="&#xa5;" 
d="M464 147q-3 -17 -19 -17h-127l-15 -111q-3 -19 -23 -19h-87q-20 0 -17 19l16 111h-128q-16 0 -13 17l7 48q1 17 18 17h128l8 57h-128q-15 0 -14 17l7 48q3 17 19 17h97l-120 349q-4 9 0.5 14.5t14.5 5.5h83q28 0 33 -19l42 -132q7 -22 14 -47t13.5 -48t12 -43.5
t9.5 -33.5q7 13 17 33t22.5 42.5t26 47.5t27.5 49l77 133q7 11 14 14.5t21 3.5h82q10 0 13 -5.5t-2 -14.5l-209 -349h93q16 0 13 -17l-7 -48q-1 -17 -18 -17h-127l-8 -57h127q15 0 14 -17z" />
    <glyph glyph-name="uni20B9" unicode="&#x20b9;" 
d="M443 447q-7 -34 -28 -64t-53 -53t-73.5 -37t-88.5 -15l232 -257q7 -8 2.5 -14.5t-15.5 -6.5h-97q-15 0 -22.5 3t-14.5 10l-213 234q-9 10 -13 17.5t-4 18.5q0 3 0.5 12t2.5 17l5 32q2 10 6 14.5t15 4.5h83q63 0 105.5 23t51.5 61h-228q-17 0 -10 19l25 60q4 9 9 12t15 3
h200q0 39 -18 59q-12 13 -27.5 17t-44.5 4h-142q-21 0 -12 19l29 65q4 9 9 12t16 3h407q22 0 13 -19l-31 -65q-5 -10 -10.5 -12.5t-16.5 -2.5h-98q15 -11 27 -34t15 -46h90q20 0 13 -19l-31 -60q-5 -10 -10 -12.5t-16 -2.5h-54z" />
    <glyph glyph-name="uni20AE" unicode="&#x20ae;" 
d="M332 237l-30 -218q-3 -19 -23 -19h-84q-20 0 -17 19l23 162l-122 -52q-12 -5 -11 5l8 59q3 17 13 21l124 52l11 84l-121 -52q-12 -5 -11 5l8 60q2 8 4 13t9 8l123 52l26 181h-164q-20 0 -17 19l9 65q3 19 22 19h452q21 0 18 -19l-9 -65q-3 -19 -23 -19h-164l-18 -125
l121 51q12 5 11 -5l-8 -58q-2 -8 -4 -13t-9 -8l-123 -53l-12 -84l121 51q13 7 11 -5l-8 -57q-1 -8 -3 -13t-10 -8z" />
    <glyph glyph-name="uni20B1" unicode="&#x20b1;" 
d="M47 0q-20 0 -17 19l52 374h-47q-16 0 -13 17l4 34q3 17 19 17h47l7 54h-47q-16 0 -13 17l4 34q3 17 19 17h47l17 118q3 19 22 19h141q104 0 167 -35t84 -102h52q16 0 13 -17l-4 -34q-3 -17 -19 -17h-37q0 -27 -8 -54h38q16 0 13 -17l-4 -34q-3 -17 -19 -17h-51
q-34 -70 -96 -106.5t-152 -36.5q-20 0 -41 1.5t-38 5.5l-33 -238q-3 -19 -22 -19h-85zM414 461q5 12 7 26t3 28h-201l-7 -54h198zM272 340q39 0 70 14t47 39h-183l-6 -46q16 -4 35.5 -5.5t36.5 -1.5zM240 629l-7 -46h179q-14 25 -42 35.5t-72 10.5h-58z" />
    <glyph glyph-name="won" unicode="&#x20a9;" horiz-adv-x="920" 
d="M818 373l-23 -57h106q16 0 13 -17l-5 -34q-1 -17 -18 -17h-123l-90 -226q-5 -13 -12 -17.5t-21 -4.5h-89q-13 0 -18 4.5t-7 16.5l-21 227h-125l-85 -227q-5 -13 -12 -17t-19 -4h-93q-14 0 -19.5 4.5t-7.5 16.5l-29 227h-121q-15 0 -14 17l5 34q3 17 19 17h102l-7 57h-89
q-17 0 -14 17l5 34q1 17 18 17h71l-32 257q-3 22 18 22h85q11 0 17 -4t8 -15l25 -260h129l97 259q5 13 10.5 16.5t19.5 3.5h79q14 0 19 -3.5t7 -16.5l23 -259h128l97 260q5 11 10.5 15t18.5 4h82q21 0 12 -22l-103 -257h71q15 0 14 -17l-5 -34q-3 -17 -18 -17h-89zM320 373
h-97l5 -57h73zM703 373h-97l4 -57h72zM410 316h93l-4 57h-69zM233 248q2 -32 3.5 -64.5t3.5 -65.5l39 130h-46zM619 117q8 29 18.5 62.5t22.5 68.5h-46q2 -34 3 -67.5t2 -63.5zM492 560q-9 -29 -18.5 -59t-20.5 -60h42q-3 57 -3 119z" />
    <glyph glyph-name="lira" unicode="&#x20a4;" 
d="M270 387l-9 -68h172q16 0 13 -17l-6 -48q-3 -17 -19 -17h-173q-5 -28 -12.5 -48.5t-17.5 -36.5t-22 -28t-26 -22h293q15 0 14 -17l-10 -68q-1 -17 -18 -17h-421q-15 0 -14 17l8 53q2 11 5.5 18t14.5 14q38 22 57 54.5t28 80.5h-72q-16 0 -13 17l6 48q3 17 19 17h72l9 68
h-72q-16 0 -13 17l6 46q3 17 18 17h72l4 27q16 115 76.5 175.5t172.5 60.5q38 0 76.5 -10t66.5 -25q9 -5 9 -10.5t-5 -17.5l-22 -51q-5 -11 -10.5 -12.5t-14.5 3.5q-22 10 -46.5 16t-51.5 6q-60 0 -89.5 -32.5t-39.5 -101.5l-4 -28h172q17 0 14 -17l-6 -46q-3 -17 -19 -17
h-172z" />
    <glyph glyph-name="uni20B4" unicode="&#x20b4;" 
d="M420 387q-24 -18 -49 -34.5t-51 -33.5h206q15 0 14 -17l-7 -48q-3 -17 -18 -17h-291q-23 -28 -23 -71q0 -32 22.5 -51t67.5 -19q35 0 66.5 8.5t63.5 24.5q10 5 17 4.5t11 -10.5l14 -59q4 -19 -12 -27q-42 -22 -90 -34.5t-103 -12.5q-93 0 -138.5 42t-45.5 106
q0 26 6.5 51t21.5 48h-62q-17 0 -14 17l7 48q1 17 18 17h111q21 19 44.5 35.5t46.5 32.5h-192q-17 0 -14 17l6 46q3 17 19 17h286q17 14 29 34t12 53q0 32 -25 52t-71 20q-15 0 -32 -3t-33.5 -7.5t-31.5 -10t-26 -11.5q-20 -11 -28 7l-19 51q-6 21 12 31q18 9 41 17.5
t48.5 15t52 10.5t51.5 4q88 0 138.5 -38t52.5 -111q0 -30 -11 -59t-34 -55h63q16 0 13 -17l-6 -46q-3 -17 -18 -17h-116z" />
    <glyph glyph-name="dong" unicode="&#x20ab;" 
d="M382 578h-138q-8 0 -10.5 3t-0.5 12l5 41q2 8 5 10.5t11 2.5h138l8 59q3 14 17 14h91q16 0 13 -14l-8 -59h37q8 0 11 -2.5t1 -10.5l-5 -41q-2 -9 -5.5 -12t-11.5 -3h-37l-50 -359q-2 -12 5 -15.5t18 -3.5q14 0 11 -15l-8 -55q-1 -7 -4 -9.5t-11 -5.5q-14 -5 -30.5 -7
t-30.5 -2q-25 0 -44 12t-25 34q-20 -23 -50.5 -38.5t-71.5 -15.5q-36 0 -65.5 13t-50.5 37t-32 57.5t-11 74.5q0 45 15.5 91t44.5 82.5t70.5 60t94.5 23.5q24 0 50.5 -7t44.5 -22zM359 412q-11 14 -31 21t-40 7q-29 0 -50 -13t-35 -34.5t-20.5 -48.5t-6.5 -55q0 -42 18 -69
t54 -27q33 0 59.5 19t32.5 61zM41 0q-16 0 -13 17l5 35q1 17 18 17h405q15 0 14 -17l-5 -35q-3 -17 -19 -17h-405z" />
    <glyph glyph-name="uni20BA" unicode="&#x20ba;" 
d="M272 423l-10 -71l158 74q12 6 11 -5l-8 -57q-1 -8 -3 -13t-10 -8l-160 -76l-23 -159q69 11 117.5 48t80.5 94q8 14 21 8l67 -26q13 -4 4 -20q-27 -52 -66.5 -91.5t-87 -66.5t-102 -40.5t-112.5 -13.5h-39q-26 0 -21 26l25 177l-92 -43q-13 -5 -12 5l9 59q2 16 13 21
l94 44l10 70l-92 -43q-13 -5 -12 5l9 60q2 16 13 21l94 44l36 255q3 19 22 19h87q21 0 18 -19l-27 -192l158 74q14 5 11 -5l-8 -58q-1 -8 -3 -13t-10 -8z" />
    <glyph glyph-name="uni0E3F" unicode="&#xe3f;" 
d="M212 0h-168q-20 0 -17 19l97 682q3 19 22 19h138h15t15 -1l11 80q1 16 19 16h37q16 0 15 -16l-12 -87q150 -27 150 -160q0 -26 -7.5 -53t-23 -51t-38.5 -43t-54 -29q52 -18 81.5 -55.5t29.5 -90.5q0 -55 -17.5 -95t-49 -67.5t-75.5 -43t-96 -21.5l-12 -84q-3 -16 -19 -16
h-37q-18 0 -15 16zM226 101l31 221h-63l-31 -221h63zM271 419l28 199h-63l-28 -199h63zM394 222q0 35 -16.5 60t-48.5 36l-30 -210q39 10 67 36t28 78zM386 597q-6 6 -18 13l-25 -183q32 11 48 41.5t16 68.5q0 18 -6 34.5t-15 25.5z" />
    <glyph glyph-name="numbersign" unicode="#" horiz-adv-x="584" 
d="M250 417l-39 -111h125l39 111h-125zM498 502h54q17 0 14 -17l-7 -51q-2 -9 -5.5 -13t-12.5 -4h-71l-40 -111h54q17 0 14 -17l-8 -51q-2 -10 -5.5 -13.5t-12.5 -3.5h-72l-46 -134q-3 -8 -7 -11t-15 -3h-61q-10 0 -11.5 4.5t0.5 11.5l46 132h-124l-48 -134q-3 -8 -7 -11
t-15 -3h-61q-10 0 -11.5 4.5t0.5 11.5l47 132h-54q-17 0 -14 17l8 51q2 10 5.5 13.5t12.5 3.5h73l39 111h-54q-17 0 -14 17l7 51q2 9 5 13t13 4h71l47 131q3 8 7 11t15 3h59q17 0 12 -16l-46 -129h125l48 131q3 8 7 11t15 3h59q17 0 12 -16z" />
    <glyph glyph-name="percent" unicode="%" horiz-adv-x="917" 
d="M207 319q-67 0 -108.5 40t-41.5 121q0 43 13 87.5t39 80.5t65 59t92 23q66 0 106 -38t40 -115q0 -46 -12.5 -92t-38 -83t-64 -60t-90.5 -23zM217 400q27 0 45 17t28.5 42.5t14.5 55.5t4 56q0 78 -54 78q-28 0 -46 -17t-29 -42t-15.5 -53.5t-4.5 -51.5q0 -40 15 -62.5
t42 -22.5zM259 9q-5 -8 -9 -11.5t-13 -3.5h-75q-8 0 -11 4t2 12l492 702q5 8 9 11.5t13 3.5h75q8 0 11.5 -4t-1.5 -12zM645 -10q-67 0 -108.5 40t-41.5 121q0 43 13 87.5t39 80.5t65 59t92 23q66 0 106 -38t40 -115q0 -46 -12.5 -92t-38 -83t-64 -60t-90.5 -23zM655 71
q27 0 45 17t28.5 42.5t14.5 55.5t4 56q0 78 -54 78q-28 0 -46 -17t-29 -42t-15.5 -53.5t-4.5 -51.5q0 -40 15 -62.5t42 -22.5z" />
    <glyph glyph-name="perthousand" unicode="&#x2030;" horiz-adv-x="1310" 
d="M207 319q-67 0 -108.5 40t-41.5 121q0 43 13 87.5t39 80.5t65 59t92 23q66 0 106 -38t40 -115q0 -46 -12.5 -92t-38 -83t-64 -60t-90.5 -23zM217 400q27 0 45 17t28.5 42.5t14.5 55.5t4 56q0 78 -54 78q-28 0 -46 -17t-29 -42t-15.5 -53.5t-4.5 -51.5q0 -40 15 -62.5
t42 -22.5zM259 9q-5 -8 -9 -11.5t-13 -3.5h-75q-8 0 -11 4t2 12l492 702q5 8 9 11.5t13 3.5h75q8 0 11.5 -4t-1.5 -12zM645 -10q-67 0 -108.5 40t-41.5 121q0 43 13 87.5t39 80.5t65 59t92 23q66 0 106 -38t40 -115q0 -46 -12.5 -92t-38 -83t-64 -60t-90.5 -23zM655 71
q27 0 45 17t28.5 42.5t14.5 55.5t4 56q0 78 -54 78q-28 0 -46 -17t-29 -42t-15.5 -53.5t-4.5 -51.5q0 -40 15 -62.5t42 -22.5zM1038 -10q-67 0 -108.5 40t-41.5 121q0 43 13 87.5t39 80.5t65 59t92 23q66 0 106 -38t40 -115q0 -46 -12.5 -92t-38 -83t-64 -60t-90.5 -23z
M1048 71q27 0 45 17t28.5 42.5t14.5 55.5t4 56q0 78 -54 78q-28 0 -46 -17t-29 -42t-15.5 -53.5t-4.5 -51.5q0 -40 15 -62.5t42 -22.5z" />
    <glyph glyph-name="plus" unicode="+" horiz-adv-x="582" 
d="M340 402h186q15 0 14 -17l-9 -63q-3 -17 -18 -17h-186l-27 -189q-3 -16 -19 -16h-63q-18 0 -15 16l27 189h-185q-17 0 -14 17l9 63q1 17 18 17h185l27 188q1 16 19 16h63q16 0 15 -16z" />
    <glyph glyph-name="minus" unicode="&#x2212;" horiz-adv-x="582" 
d="M45 305q-17 0 -14 17l9 63q1 17 18 17h468q15 0 14 -17l-9 -63q-3 -17 -18 -17h-468z" />
    <glyph glyph-name="multiply" unicode="&#xd7;" horiz-adv-x="582" 
d="M291 422l150 131q15 12 23 -1l42 -44q10 -13 -3 -23l-150 -132l115 -134q9 -11 -4 -23l-49 -45q-13 -12 -23 0l-116 134l-149 -131q-12 -12 -23 0l-41 45q-11 11 2 23l150 132l-113 132q-10 11 3 23l49 45q14 11 23 1z" />
    <glyph glyph-name="less" unicode="&#x3c;" horiz-adv-x="582" 
d="M52 376q2 11 5.5 16t11.5 9l435 234q17 10 23 -5l20 -55q7 -19 -8 -27l-367 -198l312 -192q13 -8 2 -27l-35 -47q-11 -15 -25 -5l-370 230q-6 4 -8.5 9t-1.5 16z" />
    <glyph glyph-name="divide" unicode="&#xf7;" horiz-adv-x="582" 
d="M45 305q-17 0 -14 17l9 63q1 17 18 17h468q15 0 14 -17l-9 -63q-3 -17 -18 -17h-468zM197 71q-19 0 -18 19l14 96q3 19 23 19h97q21 0 18 -19l-14 -96q-1 -19 -23 -19h-97zM257 502q-20 0 -17 19l13 96q3 19 23 19h97q21 0 18 -19l-13 -96q-3 -19 -24 -19h-97z" />
    <glyph glyph-name="equal" unicode="=" horiz-adv-x="582" 
d="M60 418q-16 0 -13 17l9 63q1 17 18 17h468q15 0 14 -17l-9 -63q-3 -17 -19 -17h-468zM29 192q-17 0 -14 17l9 63q3 17 18 17h468q17 0 14 -17l-9 -63q-3 -17 -18 -17h-468z" />
    <glyph glyph-name="logicalnot" unicode="&#xac;" horiz-adv-x="582" 
d="M515 208q-3 -16 -19 -16h-63q-18 0 -15 16l31 210h-389q-16 0 -13 17l9 63q1 17 18 17h468q15 0 14 -17z" />
    <glyph glyph-name="greater" unicode="&#x3e;" horiz-adv-x="582" 
d="M524 334q-2 -13 -5.5 -17t-11.5 -8l-435 -234q-17 -10 -23 5l-20 55q-7 19 8 27l367 198l-312 192q-13 8 -2 27l35 47q11 15 25 5l370 -230q6 -4 9 -9t1 -16z" />
    <glyph glyph-name="notequal" unicode="&#x2260;" horiz-adv-x="582" 
d="M133 192h-104q-17 0 -14 17l9 63q3 17 18 17h154l84 129h-220q-16 0 -13 17l9 63q1 17 18 17h270l65 98q4 6 7.5 8.5t11.5 2.5h74q5 0 7 -3.5t-3 -9.5l-63 -96h99q15 0 14 -17l-9 -63q-3 -17 -19 -17h-149l-84 -129h215q17 0 14 -17l-9 -63q-3 -17 -18 -17h-265l-64 -97
q-4 -6 -8 -8.5t-12 -2.5h-74q-5 0 -6.5 3.5t2.5 9.5z" />
    <glyph glyph-name="approxequal" unicode="&#x2248;" horiz-adv-x="582" 
d="M414 469q25 0 43 15.5t30 42.5q3 8 7.5 11t13.5 1l45 -13q11 -3 11.5 -7.5t-1.5 -11.5q-20 -57 -64.5 -91.5t-100.5 -34.5q-39 0 -65.5 12t-47.5 26t-41 26t-45 12t-43 -15.5t-30 -42.5q-3 -8 -7.5 -11t-13.5 -1l-45 13q-11 3 -11.5 7.5t1.5 11.5q20 57 64.5 91.5
t100.5 34.5q37 0 63.5 -12t48 -26t42 -26t45.5 -12zM382 243q25 0 43 15.5t30 42.5q3 8 7.5 11t14.5 1l44 -13q11 -3 12 -7.5t-2 -11.5q-20 -57 -64 -91.5t-100 -34.5q-39 0 -65.5 12t-48 26t-41.5 26t-45 12t-42.5 -15.5t-29.5 -42.5q-4 -8 -8.5 -11t-13.5 -1l-45 13
q-11 3 -11.5 7.5t1.5 11.5q20 57 64.5 91.5t100.5 34.5q37 0 63.5 -12t48 -26t42 -26t45.5 -12z" />
    <glyph glyph-name="plusminus" unicode="&#xb1;" horiz-adv-x="582" 
d="M354 501h186q15 0 14 -17l-9 -63q-3 -17 -18 -17h-186l-27 -189q-3 -16 -19 -16h-63q-18 0 -15 16l27 189h-185q-17 0 -14 17l9 63q1 17 18 17h185l27 188q1 16 19 16h63q16 0 15 -16zM2 0q-17 0 -14 17l9 63q3 17 18 17h468q17 0 14 -17l-9 -63q-3 -17 -18 -17h-468z
" />
    <glyph glyph-name="lessequal" unicode="&#x2264;" horiz-adv-x="582" 
d="M1 0q-15 0 -14 17l9 63q3 17 19 17h468q16 0 13 -17l-9 -63q-1 -17 -18 -17h-468zM63 465q2 11 5.5 16t11.5 9l435 234q17 10 23 -5l20 -60q7 -19 -9 -27l-366 -193l312 -188q13 -8 1 -27l-32 -49q-11 -15 -25 -5l-372 228q-7 5 -9.5 9.5t-0.5 15.5z" />
    <glyph glyph-name="greaterequal" unicode="&#x2265;" horiz-adv-x="582" 
d="M1 0q-15 0 -14 17l9 63q3 17 19 17h468q16 0 13 -17l-9 -63q-1 -17 -18 -17h-468zM531 423q-2 -11 -5.5 -16t-11.5 -9l-435 -234q-17 -10 -23 5l-20 60q-7 19 9 27l366 193l-312 188q-13 8 -1 27l32 49q11 15 25 5l372 -228q7 -5 9.5 -9.5t0.5 -15.5z" />
    <glyph glyph-name="asciicircum" unicode="^" horiz-adv-x="582" 
d="M511 339q2 -7 -0.5 -13t-12.5 -6h-65q-10 0 -14 2t-7 10l-85 271l-170 -271q-5 -8 -9 -10t-14 -2h-77q-10 0 -12 6t3 13l229 370q5 8 9.5 11.5t15.5 3.5h71q11 0 14 -3.5t5 -11.5z" />
    <glyph glyph-name="asciitilde" unicode="~" 
d="M405 385q25 0 43 15.5t30 42.5q3 8 7.5 11t14.5 1l44 -13q11 -3 12 -7.5t-2 -11.5q-20 -57 -62.5 -92.5t-98.5 -35.5q-39 0 -65.5 12.5t-48.5 27.5t-42 27.5t-45 12.5t-44 -16.5t-31 -43.5q-3 -8 -7.5 -11t-13.5 -1l-45 13q-11 3 -11.5 7.5t1.5 11.5q20 57 63.5 92.5
t99.5 35.5q37 0 63.5 -12t49 -27t43 -27t45.5 -12z" />
    <glyph glyph-name="lozenge" unicode="&#x25ca;" horiz-adv-x="600" 
d="M571 353q-2 -14 -5 -21t-11 -17l-262 -305q-10 -10 -23 -10h-50q-14 0 -19 10l-174 305q-5 10 -5.5 17t1.5 21l2 14q2 14 4.5 21t10.5 17l259 305q9 10 22 10h50q14 0 20 -10l177 -305q5 -10 6 -17t-1 -21zM334 591l-201 -231l129 -231l201 231z" />
    <glyph glyph-name="degree" unicode="&#xb0;" horiz-adv-x="345" 
d="M181 446q-54 0 -88.5 31.5t-34.5 88.5q0 33 13 63t35.5 52.5t53.5 35.5t68 13q57 0 90 -31.5t33 -85.5q0 -34 -13 -64t-35.5 -53t-53.5 -36.5t-68 -13.5zM191 513q36 0 59 26t23 65q0 27 -14.5 43t-42.5 16q-35 0 -58 -25t-23 -63q-1 -28 13.5 -45t42.5 -17z" />
    <glyph glyph-name="quotesingle" unicode="'" horiz-adv-x="235" 
d="M96 441q-11 0 -14 4.5t-2 12.5l24 245q1 8 5 12.5t15 4.5h79q11 0 14 -4.5t2 -12.5l-47 -245q-2 -8 -5.5 -12.5t-14.5 -4.5h-56z" />
    <glyph glyph-name="quotedbl" unicode="&#x22;" horiz-adv-x="423" 
d="M96 441q-11 0 -14 4.5t-2 12.5l24 245q1 8 5 12.5t15 4.5h79q11 0 14 -4.5t2 -12.5l-47 -245q-2 -8 -5.5 -12.5t-14.5 -4.5h-56zM284 441q-11 0 -14 4.5t-2 12.5l24 245q1 8 5 12.5t15 4.5h79q11 0 14 -4.5t2 -12.5l-47 -245q-2 -8 -5.5 -12.5t-14.5 -4.5h-56z" />
    <glyph glyph-name="radical" unicode="&#x221a;" horiz-adv-x="655" 
d="M62 544q2 11 6 15t14 4h121q15 0 21.5 -5t9.5 -22l66 -380l330 743q5 15 19 15h87q18 0 13 -15l-410 -887q-6 -12 -22 -12h-83q-15 0 -18 12l-91 456h-57q-10 0 -13 4t-1 15z" />
    <glyph glyph-name="currency" unicode="&#xa4;" 
d="M489 407q0 -51 -16 -98.5t-51 -89.5l55 -124q5 -13 -9 -13h-70q-11 0 -15 2t-8 10l-32 71q-35 -13 -80 -13q-43 0 -73 13l-52 -71q-5 -8 -10 -10t-14 -2h-75q-5 0 -7.5 3.5t2.5 9.5l90 125q-11 19 -16 45t-4 53q0 51 16 96.5t51 86.5l-55 124q-7 13 9 13h72q11 0 15 -2
t7 -10l32 -71q35 13 81 13q42 0 72 -13l52 71q6 8 11 10t14 2h73q5 0 7.5 -3.5t-2.5 -9.5l-91 -125q11 -18 16 -42.5t5 -50.5zM281 247q25 0 43.5 12t31 32t18.5 45.5t6 53.5q0 35 -14.5 59t-49.5 24q-27 0 -46.5 -13.5t-32 -33.5t-18.5 -45t-6 -47q0 -38 16.5 -62.5
t51.5 -24.5z" />
    <glyph glyph-name="infinity" unicode="&#x221e;" horiz-adv-x="815" 
d="M198 159q-69 0 -112 37.5t-43 108.5q0 37 15 70.5t41 58.5t61.5 40t76.5 15q55 0 97 -26t79 -74q44 44 94 71t107 27q66 0 107.5 -37.5t40.5 -102.5q0 -39 -15 -73t-41.5 -59t-62.5 -39.5t-78 -14.5q-50 0 -89.5 23.5t-80.5 73.5q-44 -43 -94.5 -71t-102.5 -28zM210 252
q37 0 68.5 21t60.5 52q-23 31 -47.5 53t-62.5 22q-17 0 -33 -5.5t-28.5 -15.5t-20 -25t-7.5 -34q0 -31 19 -49.5t51 -18.5zM573 252q36 0 63.5 23t27.5 60q-1 32 -21 47.5t-49 15.5q-36 0 -67.5 -21.5t-60.5 -51.5q29 -39 53 -56t54 -17z" />
    <glyph glyph-name="uni00B5" unicode="&#xb5;" horiz-adv-x="591" 
d="M228 -10q-23 0 -46.5 8.5t-35.5 19.5l-8 -66q-6 -45 -9.5 -93t-3.5 -84q0 -17 -20 -17h-82q-9 0 -11.5 4t-2.5 13q0 12 2 35t5.5 54t8 68t9.5 75l68 505q3 16 20 16h85q17 0 14 -16l-37 -265q-3 -23 -5 -42t-2 -33q0 -78 85 -78q21 0 41 7.5t37 19.5q14 10 22.5 24.5
t14.5 37.5q4 19 9 47t10 62l31 220q3 16 21 16h83q17 0 14 -16l-44 -313q-9 -63 -13 -108.5t-6 -74.5q-1 -16 -27 -16h-67q-11 0 -15 4.5t-4 13.5q0 11 1 22t2 20q-32 -32 -69.5 -51t-74.5 -19z" />
    <glyph glyph-name="Ohm" unicode="&#x2126;" horiz-adv-x="756" 
d="M416 623q-60 0 -102.5 -28t-70 -72t-40.5 -98t-13 -106q0 -83 30 -143.5t78 -88.5q8 -5 9.5 -11.5t-0.5 -26.5l-5 -31q-1 -8 -5 -13t-15 -5h-251q-20 0 -17 19l8 62q3 19 23 19h109q-41 36 -66 94t-25 133q0 78 25.5 150.5t72.5 128.5t115 90t153 34q61 0 111 -19.5
t86 -55.5t56 -87.5t20 -115.5q0 -112 -41 -203.5t-122 -148.5h102q20 0 17 -19l-8 -62q-3 -19 -23 -19h-251q-11 0 -14 5t-2 13l5 31q2 20 5.5 26.5t13.5 11.5q46 25 81 63t59 83.5t36 96.5t12 103q0 91 -42 140.5t-114 49.5z" />
    <glyph glyph-name="glyph190" unicode="&#x2206;" horiz-adv-x="646" 
d="M421 720q17 0 20 -17l132 -594q6 -26 2 -50l-6 -45q-1 -5 -3 -9.5t-12 -4.5h-562q-14 0 -13 14l6 50q2 14 5.5 25t10.5 25l301 589q5 9 9.5 13t14.5 4h95zM438 108l-83 460l-226 -460h309z" />
    <glyph glyph-name="partialdiff" unicode="&#x2202;" 
d="M242 -10q-52 0 -91.5 16t-66 44t-40 66t-13.5 82q0 51 16.5 99.5t48 85.5t76 59.5t101.5 22.5q36 0 71.5 -11.5t61.5 -29.5q1 43 -4.5 81t-20 66.5t-38 44.5t-59.5 16q-28 0 -53.5 -6t-49.5 -17q-18 -9 -23 8l-18 48q-4 10 -1.5 15.5t10.5 10.5q31 17 72 28t81 11
q113 0 169.5 -84t56.5 -233q0 -46 -5.5 -94.5t-18.5 -94.5t-34.5 -87t-53 -73t-75 -51.5t-99.5 -22.5zM246 90q33 0 58.5 17.5t44.5 49.5t31.5 77t18.5 99q-22 14 -53 23.5t-60 9.5q-32 0 -57 -13t-41.5 -35t-25 -51.5t-8.5 -63.5q0 -48 23 -80.5t69 -32.5z" />
    <glyph glyph-name="summation" unicode="&#x2211;" horiz-adv-x="581" 
d="M483 -64q20 0 17 -19l-9 -65q-3 -19 -22 -19h-494q-16 0 -13 14l6 45q2 14 8 23.5t17 20.5l325 343l-229 324q-8 11 -12 20.5t-2 23.5l8 57q3 16 17 16h486q19 0 18 -19l-10 -65q-1 -19 -22 -19h-335l201 -291q5 -8 6 -14t-1 -17l-5 -27q-2 -11 -5 -19.5t-10 -14.5
l-285 -298h345z" />
    <glyph glyph-name="product" unicode="&#x220f;" horiz-adv-x="751" 
d="M535 617h-247l-108 -765q-3 -19 -22 -19h-87q-21 0 -18 19l108 765h-80q-19 0 -18 19l10 65q1 19 22 19h663q19 0 18 -19l-10 -65q-1 -19 -22 -19h-82l-108 -765q-3 -19 -22 -19h-87q-21 0 -18 19z" />
    <glyph glyph-name="integral" unicode="&#x222b;" horiz-adv-x="370" 
d="M-32 -133q-8 4 -8 10t4 20l13 46q3 12 7 15.5t12 1.5q9 -2 21 -4.5t23 -2.5q29 0 47 15t27.5 38.5t12.5 51t3 53.5q0 39 -4.5 83.5t-10.5 91t-10.5 94t-4.5 92.5q0 50 10.5 96.5t36 82.5t66.5 57.5t103 21.5q39 0 67 -11q8 -3 8.5 -9.5t-4.5 -20.5l-16 -44
q-5 -12 -8.5 -17t-11.5 -3q-9 2 -19 3t-21 1q-26 0 -43.5 -11t-27.5 -31.5t-14 -50.5t-4 -67q0 -41 4.5 -82t10.5 -83.5t10.5 -87t4.5 -91.5q0 -45 -10 -93.5t-35 -88t-66.5 -65t-105.5 -25.5q-19 0 -36.5 4t-30.5 10z" />
    <glyph glyph-name="litre" unicode="&#x2113;" horiz-adv-x="267" 
d="M143 -4q-26 0 -46 7t-34 25q-19 25 -19 70q0 11 2.5 35t7.5 56l43 309q10 72 15.5 118.5t8 75t3 41.5t1.5 18q3 15 20 15h80q19 0 19 -16q0 -10 -2 -36t-6.5 -64t-11 -85.5t-13.5 -101.5l-40 -284q-4 -24 -5.5 -38.5t-1.5 -19.5q0 -30 27 -30h12q9 0 10.5 -3.5
t-0.5 -13.5l-6 -47q-3 -16 -14 -21q-8 -4 -21.5 -7t-28.5 -3z" />
    <glyph glyph-name="estimated" unicode="&#x212e;" horiz-adv-x="922" 
d="M462 -10q-85 0 -160 29t-131 79.5t-88.5 117.5t-32.5 144t32.5 144.5t88.5 117.5t131 79t160 29t159.5 -29t130 -79t88 -117.5t32.5 -144.5v-8h-666q-5 0 -5 -6v-202q0 -12 9 -24q48 -48 113 -78t140 -30q80 0 148 32.5t116 89.5h60q-57 -66 -141 -105t-184 -39zM716 371
q5 0 5 6v203q0 13 -10 25q-48 48 -112 75.5t-136 27.5q-75 0 -139 -29t-113 -77q-10 -10 -10 -26v-199q0 -6 5 -6h510z" />
    <glyph glyph-name="numero" unicode="&#x2116;" horiz-adv-x="1134" 
d="M875 251q-77 0 -119.5 44t-42.5 122q0 48 14.5 93t42.5 80.5t70 56.5t98 21q77 0 119 -45t41 -123q0 -48 -14 -92.5t-42 -79.5t-70 -56t-97 -21zM889 346q28 0 47 13t31 33.5t17 46t5 50.5q0 34 -15.5 59t-50.5 25q-27 0 -46.5 -13t-31.5 -34t-18 -46.5t-6 -49.5
q0 -35 16.5 -59.5t51.5 -24.5zM296 322q-26 55 -48 103.5t-39 93.5q-2 -21 -5 -49t-6.5 -58.5t-7.5 -61.5t-8 -57l-38 -274q-3 -19 -23 -19h-78q-20 0 -17 19l96 682q3 19 22 19h66q15 0 22 -4t12 -14l151 -312q10 -21 21 -45.5t22 -49.5t20.5 -48.5t17.5 -43.5q2 21 5 48.5
t6.5 57.5t7.5 60t8 57l39 275q3 19 22 19h76q21 0 18 -19l-96 -682q-3 -19 -23 -19h-67q-15 0 -21 4t-11 14z" />
    <glyph glyph-name="ordfeminine" unicode="&#xaa;" horiz-adv-x="406" 
d="M346 442q-5 -36 -8.5 -67.5t-4.5 -55.5q0 -14 -16 -14h-57q-12 0 -12 11v37q-14 -23 -39.5 -39t-59.5 -16q-56 0 -88.5 36.5t-32.5 104.5q0 41 11.5 81.5t34 72t55.5 51t76 19.5q29 0 50 -9.5t34 -25.5q8 19 12 23.5t13 4.5h49q9 0 11 -3t1 -9zM266 556q-8 13 -22 20.5
t-30 7.5q-23 0 -39.5 -13t-27 -33t-15 -43.5t-4.5 -43.5q0 -32 12 -53t43 -21q24 0 43 17.5t26 65.5z" />
    <glyph glyph-name="ordmasculine" unicode="&#xba;" horiz-adv-x="408" 
d="M216 584q-24 0 -40.5 -12.5t-27.5 -32t-16 -42t-5 -43.5q-1 -34 12 -55.5t43 -21.5q24 0 41 13t27.5 33t15.5 43.5t5 44.5q0 32 -13 52.5t-42 20.5zM230 663q61 0 101 -37.5t40 -106.5q0 -44 -13 -83.5t-38 -70.5t-62 -49t-85 -18q-73 0 -109.5 38.5t-36.5 111.5
q0 42 14 81t40 68.5t63.5 47.5t85.5 18z" />
    <glyph glyph-name="onesuperior" unicode="&#xb9;" horiz-adv-x="309" 
d="M303 473q10 0 9 -12l-6 -48q-3 -12 -13 -12h-213q-13 0 -10 12l6 48q1 12 14 12h64l31 221l-70 -33q-12 -5 -16 5l-17 46q-4 10 7 16l112 57q14 7 22 9t20 2h37q13 0 12 -10l-44 -313h55z" />
    <glyph glyph-name="twosuperior" unicode="&#xb2;" horiz-adv-x="312" 
d="M335 700q0 -32 -11.5 -55t-29 -40.5t-39.5 -31.5t-43 -28.5t-39 -31t-28 -38.5h155q7 0 10.5 -3t1.5 -13l-6 -42q-2 -10 -5.5 -13t-10.5 -3h-235q-7 0 -10.5 3t-1.5 13l5 36q5 33 20.5 58t36.5 44.5t44.5 35t43 30t32.5 28.5t13 32q0 20 -11.5 29t-30.5 9q-31 0 -69 -19
q-10 -5 -14.5 -4t-7.5 8l-18 40q-4 8 -1.5 12t9.5 9q26 16 59.5 25.5t66.5 9.5q50 0 82 -24.5t32 -75.5z" />
    <glyph glyph-name="threesuperior" unicode="&#xb3;" horiz-adv-x="321" 
d="M345 796q9 0 8 -8l-2 -17q-1 -6 -2 -11t-4 -10.5t-9 -12.5t-15 -17l-83 -90q46 -5 68.5 -28t22.5 -62q0 -36 -14 -63t-36.5 -45t-52 -26.5t-60.5 -8.5q-37 0 -67 8.5t-54 21.5q-12 7 -5 20l20 41q4 8 8 9t12 -3q16 -8 39 -14.5t43 -6.5q32 0 51.5 14t19.5 40
q0 22 -15 30.5t-48 8.5h-33q-8 0 -7 8l5 33q2 10 3.5 14.5t6.5 9.5l79 86h-130q-9 0 -7 8l9 64q0 7 9 7h240z" />
    <glyph glyph-name="fraction" unicode="&#x2044;" horiz-adv-x="375" 
d="M-6 9q-5 -8 -9 -11.5t-13 -3.5h-75q-8 0 -11 4t2 12l492 702q5 8 9 11.5t13 3.5h75q8 0 11.5 -4t-1.5 -12z" />
    <glyph glyph-name="onehalf" unicode="&#xbd;" horiz-adv-x="932" 
d="M852 299q0 -32 -11.5 -55t-29 -40.5t-39.5 -31.5t-43 -28.5t-39 -31t-28 -38.5h155q7 0 10.5 -3t1.5 -13l-6 -42q-2 -10 -5.5 -13t-10.5 -3h-235q-7 0 -10.5 3t-1.5 13l5 36q4 33 20 58t37 44.5t44.5 35t43 30t32.5 28.5t13 32q0 20 -11.5 29t-30.5 9q-31 0 -69 -19
q-10 -5 -14.5 -4t-7.5 8l-18 40q-4 8 -1.5 12t9.5 9q26 16 59.5 25.5t66.5 9.5q50 0 82 -24.5t32 -75.5zM289 397q10 0 9 -12l-6 -48q-3 -12 -13 -12h-213q-13 0 -10 12l6 48q1 12 14 12h64l31 221l-70 -33q-12 -5 -16 5l-17 46q-4 10 7 16l112 57q14 7 22 9t20 2h37
q13 0 12 -10l-44 -313h55zM263 9q-5 -8 -9 -11.5t-13 -3.5h-75q-8 0 -11 4t2 12l492 702q5 8 9 11.5t13 3.5h75q8 0 11.5 -4t-1.5 -12z" />
    <glyph glyph-name="onequarter" unicode="&#xbc;" horiz-adv-x="932" 
d="M836 167q12 0 11 -12l-8 -54q-2 -12 -14 -12h-34l-10 -77q-3 -12 -14 -12h-68q-12 0 -9 12l10 77h-162q-12 0 -10 12l3 19q2 14 5.5 24t10.5 22l128 221q5 8 15 8h70q15 0 8 -13l-128 -215h71l9 65q3 12 13 12h68q13 0 10 -12l-9 -65h34zM289 397q10 0 9 -12l-6 -48
q-3 -12 -13 -12h-213q-13 0 -10 12l6 48q1 12 14 12h64l31 221l-70 -33q-12 -5 -16 5l-17 46q-4 10 7 16l112 57q14 7 22 9t20 2h37q13 0 12 -10l-44 -313h55zM263 9q-5 -8 -9 -11.5t-13 -3.5h-75q-8 0 -11 4t2 12l492 702q5 8 9 11.5t13 3.5h75q8 0 11.5 -4t-1.5 -12z" />
    <glyph glyph-name="threequarters" unicode="&#xbe;" horiz-adv-x="932" 
d="M836 167q12 0 11 -12l-8 -54q-2 -12 -14 -12h-34l-10 -77q-3 -12 -14 -12h-68q-12 0 -9 12l10 77h-162q-12 0 -10 12l3 19q2 14 5.5 24t10.5 22l128 221q5 8 15 8h70q15 0 8 -13l-128 -215h71l9 65q3 12 13 12h68q13 0 10 -12l-9 -65h34zM351 720q9 0 8 -8l-2 -17
q-1 -6 -2 -11t-4 -10.5t-9 -12.5t-15 -17l-83 -90q46 -5 68.5 -28t22.5 -62q0 -36 -14 -63t-36.5 -45t-52 -26.5t-60.5 -8.5q-37 0 -67 8.5t-54 21.5q-12 7 -5 20l20 41q4 8 8 9t12 -3q16 -8 39 -14.5t43 -6.5q32 0 51.5 14t19.5 40q0 22 -15 30.5t-48 8.5h-33q-8 0 -7 8
l5 33q2 10 3.5 14.5t6.5 9.5l79 86h-130q-9 0 -7 8l9 64q0 7 9 7h240zM263 9q-5 -8 -9 -11.5t-13 -3.5h-75q-8 0 -11 4t2 12l492 702q5 8 9 11.5t13 3.5h75q8 0 11.5 -4t-1.5 -12z" />
    <glyph glyph-name="Agrave" unicode="&#xc0;" horiz-adv-x="642" 
d="M422 175h-256l-72 -156q-10 -19 -30 -19h-83q-21 0 -10 22l331 680q5 10 11 14t19 4h76q23 0 26 -18l144 -682q3 -20 -17 -20h-82q-14 0 -19.5 5.5t-7.5 16.5zM214 274h188l-8 49l-43 252q-29 -66 -58.5 -133t-52.5 -114zM366 779q-8 0 -12 2.5t-8 7.5l-96 151
q-5 7 -1.5 11t11.5 4h89q8 0 11.5 -2.5t6.5 -8.5l70 -152q2 -5 0 -9t-8 -4h-63z" />
    <glyph glyph-name="Aacute" unicode="&#xc1;" horiz-adv-x="642" 
d="M422 175h-256l-72 -156q-10 -19 -30 -19h-83q-21 0 -10 22l331 680q5 10 11 14t19 4h76q23 0 26 -18l144 -682q3 -20 -17 -20h-82q-14 0 -19.5 5.5t-7.5 16.5zM214 274h188l-8 49l-43 252q-29 -66 -58.5 -133t-52.5 -114zM320 780q-13 0 -4 13l115 151q8 11 22 11h89
q19 0 6 -15l-138 -150q-10 -10 -24 -10h-66z" />
    <glyph glyph-name="Acircumflex" unicode="&#xc2;" horiz-adv-x="642" 
d="M422 175h-256l-72 -156q-10 -19 -30 -19h-83q-21 0 -10 22l331 680q5 10 11 14t19 4h76q23 0 26 -18l144 -682q3 -20 -17 -20h-82q-14 0 -19.5 5.5t-7.5 16.5zM214 274h188l-8 49l-43 252q-29 -66 -58.5 -133t-52.5 -114zM530 831q5 -7 5 -11t-8 -11l-31 -26
q-7 -6 -11 -6t-9 5l-84 89l-120 -91q-6 -5 -10.5 -5t-9.5 6l-33 33q-6 7 -4 11.5t7 9.5l104 97q9 8 16 11.5t18 3.5h70q11 0 17.5 -3.5t12.5 -11.5z" />
    <glyph glyph-name="Atilde" unicode="&#xc3;" horiz-adv-x="642" 
d="M422 175h-256l-72 -156q-10 -19 -30 -19h-83q-21 0 -10 22l331 680q5 10 11 14t19 4h76q23 0 26 -18l144 -682q3 -20 -17 -20h-82q-14 0 -19.5 5.5t-7.5 16.5zM214 274h188l-8 49l-43 252q-29 -66 -58.5 -133t-52.5 -114zM550 858q-23 -25 -53 -43t-63 -18q-19 0 -33.5 6
t-27 13t-24.5 13t-26 6q-15 0 -30 -9t-32 -23q-4 -3 -7 -4t-8 4l-31 39q-7 8 4 19q23 25 53 43t63 18q19 0 33.5 -6t27.5 -13t25 -13t26 -6q15 0 29.5 9t31.5 23q3 3 6.5 4t8.5 -4l30 -39q8 -8 -3 -19z" />
    <glyph glyph-name="Adieresis" unicode="&#xc4;" horiz-adv-x="642" 
d="M422 175h-256l-72 -156q-10 -19 -30 -19h-83q-21 0 -10 22l331 680q5 10 11 14t19 4h76q23 0 26 -18l144 -682q3 -20 -17 -20h-82q-14 0 -19.5 5.5t-7.5 16.5zM214 274h188l-8 49l-43 252q-29 -66 -58.5 -133t-52.5 -114zM225 791q-16 0 -15 16l12 86q3 16 20 16h87
q18 0 15 -16l-12 -86q-1 -16 -20 -16h-87zM446 791q-16 0 -15 16l12 86q3 16 20 16h87q18 0 15 -16l-12 -86q-1 -16 -20 -16h-87z" />
    <glyph glyph-name="Aring" unicode="&#xc5;" horiz-adv-x="642" 
d="M422 175h-256l-72 -156q-10 -19 -30 -19h-83q-21 0 -10 22l331 680q5 10 11 14t19 4h76q23 0 26 -18l144 -682q3 -20 -17 -20h-82q-14 0 -19.5 5.5t-7.5 16.5zM214 274h188l-8 49l-43 252q-29 -66 -58.5 -133t-52.5 -114zM376 773q-41 0 -67.5 27t-26.5 65q0 22 9.5 42.5
t26 36.5t38 25t45.5 9q20 0 37.5 -6.5t30.5 -18.5t20.5 -28t7.5 -35q0 -24 -10 -45.5t-26.5 -37t-38.5 -25t-46 -9.5zM384 835q15 0 30 12.5t15 32.5q0 15 -10 25.5t-25 10.5q-18 0 -31.5 -12t-13.5 -31q0 -17 9 -27.5t26 -10.5z" />
    <glyph glyph-name="AE" unicode="&#xc6;" horiz-adv-x="928" 
d="M493 591q-22 -38 -53.5 -84.5t-63.5 -91.5l-97 -136h170zM209 181l-111 -159q-16 -22 -57 -22h-62q-17 0 -22 6t3 16l496 682q7 9 16.5 12.5t38.5 3.5h398q21 0 18 -19l-9 -65q-3 -19 -23 -19h-274l-28 -202h231q20 0 17 -18l-9 -65q-3 -19 -23 -19h-231l-29 -210h278
q20 0 17 -19l-9 -65q-3 -19 -23 -19h-382q-20 0 -17 19l22 162h-226z" />
    <glyph glyph-name="Ccedilla" unicode="&#xc7;" horiz-adv-x="570" 
d="M259 -233q-25 0 -44.5 4t-32.5 9q-9 4 -5 16l15 42q3 8 6 9t10 -1q8 -2 22.5 -4t25.5 -2q6 0 14.5 1t15.5 4.5t12 10t5 17.5q0 27 -43 27q-22 0 -49 -3q-8 0 -9 3t1 11l24 86q-96 20 -144 95.5t-48 192.5q0 79 20.5 158t64 143t111 104t160.5 40q54 0 100 -13.5t78 -37.5
q16 -13 4 -31l-33 -50q-14 -20 -30 -10q-30 18 -59.5 26.5t-64.5 8.5q-62 0 -105 -31.5t-69 -79.5t-37.5 -105.5t-11.5 -109.5q0 -45 8.5 -81.5t27.5 -62.5t48 -40.5t70 -14.5q32 0 68 9.5t65 20.5q22 8 28 -8l20 -54q4 -11 0.5 -17.5t-12.5 -11.5q-37 -20 -82.5 -32.5
t-97.5 -14.5l-6 -28h2q42 0 68 -19t25 -64q0 -24 -11 -44.5t-29.5 -35.5t-43.5 -23.5t-52 -8.5z" />
    <glyph glyph-name="Eth" unicode="&#xd0;" horiz-adv-x="666" 
d="M57 0q-20 0 -17 19l42 297h-60q-16 0 -13 17l9 63q3 17 18 17h60l41 288q3 19 22 19h154q98 0 162 -22.5t100 -67.5q28 -34 43 -82.5t15 -116.5q0 -58 -9.5 -113.5t-30 -104.5t-52.5 -90.5t-78 -72.5q-40 -27 -99.5 -38.5t-131.5 -11.5h-175zM249 618l-29 -205h115
q17 0 14 -17l-9 -63q-3 -17 -19 -17h-115l-30 -214h76q92 0 149 44t80.5 117t23.5 161q0 39 -7.5 71.5t-21.5 54.5q-23 37 -63 52.5t-104 15.5h-60z" />
    <glyph glyph-name="Egrave" unicode="&#xc8;" horiz-adv-x="541" 
d="M43 0q-20 0 -17 19l96 682q3 19 22 19h378q21 0 18 -19l-9 -65q-3 -19 -23 -19h-274l-28 -202h231q20 0 17 -18l-9 -65q-3 -19 -23 -19h-231l-29 -210h278q20 0 17 -19l-9 -65q-3 -19 -23 -19h-382zM343 779q-8 0 -12 2.5t-8 7.5l-96 151q-5 7 -1.5 11t11.5 4h89
q8 0 11.5 -2.5t6.5 -8.5l70 -152q2 -5 0 -9t-8 -4h-63z" />
    <glyph glyph-name="Eacute" unicode="&#xc9;" horiz-adv-x="541" 
d="M43 0q-20 0 -17 19l96 682q3 19 22 19h378q21 0 18 -19l-9 -65q-3 -19 -23 -19h-274l-28 -202h231q20 0 17 -18l-9 -65q-3 -19 -23 -19h-231l-29 -210h278q20 0 17 -19l-9 -65q-3 -19 -23 -19h-382zM286 780q-13 0 -4 13l115 151q8 11 22 11h89q19 0 6 -15l-138 -150
q-10 -10 -24 -10h-66z" />
    <glyph glyph-name="Ecircumflex" unicode="&#xca;" horiz-adv-x="541" 
d="M43 0q-20 0 -17 19l96 682q3 19 22 19h378q21 0 18 -19l-9 -65q-3 -19 -23 -19h-274l-28 -202h231q20 0 17 -18l-9 -65q-3 -19 -23 -19h-231l-29 -210h278q20 0 17 -19l-9 -65q-3 -19 -23 -19h-382zM508 831q5 -7 5 -11t-8 -11l-31 -26q-7 -6 -11 -6t-9 5l-84 89
l-120 -91q-6 -5 -10.5 -5t-9.5 6l-33 33q-6 7 -4 11.5t7 9.5l104 97q9 8 16 11.5t18 3.5h70q11 0 17.5 -3.5t12.5 -11.5z" />
    <glyph glyph-name="Edieresis" unicode="&#xcb;" horiz-adv-x="541" 
d="M43 0q-20 0 -17 19l96 682q3 19 22 19h378q21 0 18 -19l-9 -65q-3 -19 -23 -19h-274l-28 -202h231q20 0 17 -18l-9 -65q-3 -19 -23 -19h-231l-29 -210h278q20 0 17 -19l-9 -65q-3 -19 -23 -19h-382zM194 791q-16 0 -15 16l12 86q3 16 20 16h87q18 0 15 -16l-12 -86
q-1 -16 -20 -16h-87zM415 791q-16 0 -15 16l12 86q3 16 20 16h87q18 0 15 -16l-12 -86q-1 -16 -20 -16h-87z" />
    <glyph glyph-name="Igrave" unicode="&#xcc;" horiz-adv-x="280" 
d="M47 0q-20 0 -17 19l96 682q3 19 22 19h84q21 0 18 -19l-96 -682q-3 -19 -23 -19h-84zM194 779q-8 0 -12 2.5t-8 7.5l-96 151q-5 7 -1.5 11t11.5 4h89q8 0 11.5 -2.5t6.5 -8.5l70 -152q2 -5 0 -9t-8 -4h-63z" />
    <glyph glyph-name="Iacute" unicode="&#xcd;" horiz-adv-x="280" 
d="M47 0q-20 0 -17 19l96 682q3 19 22 19h84q21 0 18 -19l-96 -682q-3 -19 -23 -19h-84zM139 780q-13 0 -4 13l115 151q8 11 22 11h89q19 0 6 -15l-138 -150q-10 -10 -24 -10h-66z" />
    <glyph glyph-name="Icircumflex" unicode="&#xce;" horiz-adv-x="280" 
d="M47 0q-20 0 -17 19l96 682q3 19 22 19h84q21 0 18 -19l-96 -682q-3 -19 -23 -19h-84zM348 831q5 -7 5 -11t-8 -11l-31 -26q-7 -6 -11 -6t-9 5l-84 89l-120 -91q-6 -5 -10.5 -5t-9.5 6l-33 33q-6 7 -4 11.5t7 9.5l104 97q9 8 16 11.5t18 3.5h70q11 0 17.5 -3.5t12.5 -11.5
z" />
    <glyph glyph-name="Idieresis" unicode="&#xcf;" horiz-adv-x="280" 
d="M47 0q-20 0 -17 19l96 682q3 19 22 19h84q21 0 18 -19l-96 -682q-3 -19 -23 -19h-84zM40 791q-16 0 -15 16l12 86q3 16 20 16h87q18 0 15 -16l-12 -86q-1 -16 -20 -16h-87zM261 791q-16 0 -15 16l12 86q3 16 20 16h87q18 0 15 -16l-12 -86q-1 -16 -20 -16h-87z" />
    <glyph glyph-name="Lslash" unicode="&#x141;" horiz-adv-x="516" 
d="M226 456l130 73q10 5 13 1t2 -9l-11 -76q-1 -10 -4 -14.5t-11 -9.5l-134 -75l-34 -243h263q20 0 17 -19l-9 -65q-3 -19 -23 -19h-368q-20 0 -17 19l35 251l-73 -41q-10 -5 -13 -1t-2 9l11 76q2 10 4.5 14.5t10.5 9.5l78 43l45 321q3 19 22 19h85q21 0 18 -19z" />
    <glyph glyph-name="Ntilde" unicode="&#xd1;" horiz-adv-x="684" 
d="M296 322q-26 55 -48 103.5t-39 93.5q-2 -21 -5 -49t-6.5 -58.5t-7.5 -61.5t-8 -57l-38 -274q-3 -19 -23 -19h-78q-20 0 -17 19l96 682q3 19 22 19h66q15 0 22 -4t12 -14l151 -312q10 -21 21 -45.5t22 -49.5t20.5 -48.5t17.5 -43.5q2 21 5 48.5t6.5 57.5t7.5 60t8 57
l39 275q3 19 22 19h76q21 0 18 -19l-96 -682q-3 -19 -23 -19h-67q-15 0 -21 4t-11 14zM581 856q-23 -25 -53 -43t-63 -18q-19 0 -33.5 6t-27 13t-24.5 13t-26 6q-15 0 -30 -9t-32 -23q-4 -3 -7 -4t-8 4l-31 39q-7 8 4 19q23 25 53 43t63 18q19 0 33.5 -6t27.5 -13t25 -13
t26 -6q15 0 29.5 9t31.5 23q3 3 6.5 4t8.5 -4l30 -39q8 -8 -3 -19z" />
    <glyph glyph-name="Ograve" unicode="&#xd2;" horiz-adv-x="687" 
d="M654 441q0 -80 -20 -160.5t-63.5 -145t-112.5 -105t-166 -40.5q-59 0 -106.5 18.5t-81.5 55.5t-52.5 90.5t-18.5 124.5q0 80 21 160.5t65 145t113 105t165 40.5q58 0 105.5 -20t81 -57t52 -91t18.5 -121zM307 96q60 0 102 32t68 81.5t37.5 109t11.5 115.5q0 46 -11 81.5
t-30 59.5t-45.5 36.5t-56.5 12.5q-62 0 -104.5 -32.5t-68.5 -82t-37.5 -109.5t-11.5 -114q0 -95 39.5 -142.5t106.5 -47.5zM411 779q-8 0 -12 2.5t-8 7.5l-96 151q-5 7 -1.5 11t11.5 4h89q8 0 11.5 -2.5t6.5 -8.5l70 -152q2 -5 0 -9t-8 -4h-63z" />
    <glyph glyph-name="Oacute" unicode="&#xd3;" horiz-adv-x="687" 
d="M654 441q0 -80 -20 -160.5t-63.5 -145t-112.5 -105t-166 -40.5q-59 0 -106.5 18.5t-81.5 55.5t-52.5 90.5t-18.5 124.5q0 80 21 160.5t65 145t113 105t165 40.5q58 0 105.5 -20t81 -57t52 -91t18.5 -121zM307 96q60 0 102 32t68 81.5t37.5 109t11.5 115.5q0 46 -11 81.5
t-30 59.5t-45.5 36.5t-56.5 12.5q-62 0 -104.5 -32.5t-68.5 -82t-37.5 -109.5t-11.5 -114q0 -95 39.5 -142.5t106.5 -47.5zM342 780q-13 0 -4 13l115 151q8 11 22 11h89q19 0 6 -15l-138 -150q-10 -10 -24 -10h-66z" />
    <glyph glyph-name="Ocircumflex" unicode="&#xd4;" horiz-adv-x="687" 
d="M654 441q0 -80 -20 -160.5t-63.5 -145t-112.5 -105t-166 -40.5q-59 0 -106.5 18.5t-81.5 55.5t-52.5 90.5t-18.5 124.5q0 80 21 160.5t65 145t113 105t165 40.5q58 0 105.5 -20t81 -57t52 -91t18.5 -121zM307 96q60 0 102 32t68 81.5t37.5 109t11.5 115.5q0 46 -11 81.5
t-30 59.5t-45.5 36.5t-56.5 12.5q-62 0 -104.5 -32.5t-68.5 -82t-37.5 -109.5t-11.5 -114q0 -95 39.5 -142.5t106.5 -47.5zM571 831q5 -7 5 -11t-8 -11l-31 -26q-7 -6 -11 -6t-9 5l-84 89l-120 -91q-6 -5 -10.5 -5t-9.5 6l-33 33q-6 7 -4 11.5t7 9.5l104 97q9 8 16 11.5
t18 3.5h70q11 0 17.5 -3.5t12.5 -11.5z" />
    <glyph glyph-name="Otilde" unicode="&#xd5;" horiz-adv-x="687" 
d="M654 441q0 -80 -20 -160.5t-63.5 -145t-112.5 -105t-166 -40.5q-59 0 -106.5 18.5t-81.5 55.5t-52.5 90.5t-18.5 124.5q0 80 21 160.5t65 145t113 105t165 40.5q58 0 105.5 -20t81 -57t52 -91t18.5 -121zM307 96q60 0 102 32t68 81.5t37.5 109t11.5 115.5q0 46 -11 81.5
t-30 59.5t-45.5 36.5t-56.5 12.5q-62 0 -104.5 -32.5t-68.5 -82t-37.5 -109.5t-11.5 -114q0 -95 39.5 -142.5t106.5 -47.5zM586 856q-23 -25 -53 -43t-63 -18q-19 0 -33.5 6t-27 13t-24.5 13t-26 6q-15 0 -30 -9t-32 -23q-4 -3 -7 -4t-8 4l-31 39q-7 8 4 19q23 25 53 43
t63 18q19 0 33.5 -6t27.5 -13t25 -13t26 -6q15 0 29.5 9t31.5 23q3 3 6.5 4t8.5 -4l30 -39q8 -8 -3 -19z" />
    <glyph glyph-name="Odieresis" unicode="&#xd6;" horiz-adv-x="687" 
d="M654 441q0 -80 -20 -160.5t-63.5 -145t-112.5 -105t-166 -40.5q-59 0 -106.5 18.5t-81.5 55.5t-52.5 90.5t-18.5 124.5q0 80 21 160.5t65 145t113 105t165 40.5q58 0 105.5 -20t81 -57t52 -91t18.5 -121zM307 96q60 0 102 32t68 81.5t37.5 109t11.5 115.5q0 46 -11 81.5
t-30 59.5t-45.5 36.5t-56.5 12.5q-62 0 -104.5 -32.5t-68.5 -82t-37.5 -109.5t-11.5 -114q0 -95 39.5 -142.5t106.5 -47.5zM253 794q-16 0 -15 16l12 86q3 16 20 16h87q18 0 15 -16l-12 -86q-1 -16 -20 -16h-87zM474 794q-16 0 -15 16l12 86q3 16 20 16h87q18 0 15 -16
l-12 -86q-1 -16 -20 -16h-87z" />
    <glyph glyph-name="Oslash" unicode="&#xd8;" horiz-adv-x="688" 
d="M655 441q0 -80 -20 -160.5t-63.5 -145t-112.5 -105t-166 -40.5q-84 0 -142 36l-54 -72q-6 -9 -14.5 -9t-25.5 12l-16 11q-17 12 -21 19t1 14l64 87q-25 36 -38 83.5t-13 107.5q0 80 21 160.5t65 145t113 105t165 40.5q77 0 135 -35l52 70q6 9 14.5 9t27.5 -12l15 -12
q19 -12 22 -18.5t-1 -13.5l-63 -85q26 -36 40.5 -84t14.5 -108zM308 96q60 0 102 32t68 81.5t37.5 109t11.5 115.5q0 24 -3.5 45t-8.5 39l-293 -395q34 -27 86 -27zM162 286q0 -48 10 -81l290 393q-34 26 -78 26q-62 0 -104.5 -32.5t-68.5 -82t-37.5 -109.5t-11.5 -114z" />
    <glyph glyph-name="OE" unicode="&#x152;" horiz-adv-x="950" 
d="M522 0q-45 0 -102.5 -5t-117.5 -5q-62 0 -111.5 18.5t-84.5 54.5t-54 88.5t-19 120.5q0 88 22.5 170.5t70 146.5t120.5 102.5t175 38.5q51 0 99 -5t104 -5h307q21 0 18 -19l-9 -65q-3 -19 -23 -19h-274l-28 -202h231q20 0 17 -18l-9 -65q-3 -19 -23 -19h-231l-29 -210
h278q20 0 17 -19l-9 -65q-3 -19 -23 -19h-312zM327 95q30 0 61.5 2t57.5 4l72 514q-21 4 -46 7t-57 3q-67 0 -114.5 -30.5t-77.5 -79t-44 -110t-14 -122.5q0 -96 41 -142t121 -46z" />
    <glyph glyph-name="Thorn" unicode="&#xde;" horiz-adv-x="550" 
d="M47 0q-20 0 -17 19l96 682q3 19 22 19h84q21 0 18 -19l-17 -121q11 2 24 2.5t26 0.5q51 0 95.5 -8.5t77.5 -30t52 -58.5t19 -94q0 -48 -14.5 -94t-47.5 -82t-86 -58t-129 -22q-18 0 -41 1.5t-38 3.5l-17 -122q-3 -19 -23 -19h-84zM275 481q-17 0 -31 -0.5t-26 -1.5
l-33 -237q14 -2 33.5 -3t34.5 -1q75 0 111 39.5t36 102.5q0 33 -10.5 52.5t-27.5 30.5t-40 14.5t-47 3.5z" />
    <glyph glyph-name="Scaron" unicode="&#x160;" horiz-adv-x="508" 
d="M54 148q33 -22 72.5 -37t77.5 -15q53 0 86 27t33 74q0 22 -9 39t-23.5 31.5t-33.5 27t-39 25.5q-29 18 -55.5 37t-46.5 42t-32.5 52.5t-12.5 68.5q0 47 18.5 86t51.5 66.5t80 42.5t104 15q49 0 92.5 -14.5t72.5 -34.5q14 -10 1 -32l-29 -51q-12 -20 -30 -8q-24 16 -55 26
t-60 10q-54 0 -88 -25t-34 -66q0 -20 7.5 -35.5t22.5 -29t37 -27.5t50 -30q77 -46 106.5 -93t29.5 -105q0 -55 -21 -97t-55.5 -70.5t-79 -43t-90.5 -14.5q-60 0 -117 19.5t-93 48.5q-13 11 -1 31l33 53q7 10 14.5 10.5t15.5 -4.5zM392 791q-9 -8 -16.5 -11.5t-18.5 -3.5h-70
q-11 0 -17 3.5t-12 11.5l-73 97q-4 5 -4.5 9.5t7.5 11.5l35 31q7 6 11 6t9 -5l85 -89l120 91q6 5 10.5 5t9.5 -6l30 -33q6 -7 4 -12t-7 -10z" />
    <glyph glyph-name="Ugrave" unicode="&#xd9;" horiz-adv-x="666" 
d="M590 286q-11 -74 -33 -129t-58.5 -92.5t-90 -56t-125.5 -18.5q-122 0 -178.5 52.5t-56.5 152.5q0 27 4.5 64t12.5 94l49 348q3 19 23 19h84q20 0 17 -19l-52 -359q-6 -44 -9.5 -78.5t-3.5 -51.5q0 -58 30 -87t96 -29q73 0 113 44t51 129l61 432q3 19 23 19h84
q20 0 17 -19zM377 779q-8 0 -12 2.5t-8 7.5l-96 151q-5 7 -1.5 11t11.5 4h89q8 0 11.5 -2.5t6.5 -8.5l70 -152q2 -5 0 -9t-8 -4h-63z" />
    <glyph glyph-name="Uacute" unicode="&#xda;" horiz-adv-x="666" 
d="M590 286q-11 -74 -33 -129t-58.5 -92.5t-90 -56t-125.5 -18.5q-122 0 -178.5 52.5t-56.5 152.5q0 27 4.5 64t12.5 94l49 348q3 19 23 19h84q20 0 17 -19l-52 -359q-6 -44 -9.5 -78.5t-3.5 -51.5q0 -58 30 -87t96 -29q73 0 113 44t51 129l61 432q3 19 23 19h84
q20 0 17 -19zM332 780q-13 0 -4 13l115 151q8 11 22 11h89q19 0 6 -15l-138 -150q-10 -10 -24 -10h-66z" />
    <glyph glyph-name="Ucircumflex" unicode="&#xdb;" horiz-adv-x="666" 
d="M590 286q-11 -74 -33 -129t-58.5 -92.5t-90 -56t-125.5 -18.5q-122 0 -178.5 52.5t-56.5 152.5q0 27 4.5 64t12.5 94l49 348q3 19 23 19h84q20 0 17 -19l-52 -359q-6 -44 -9.5 -78.5t-3.5 -51.5q0 -58 30 -87t96 -29q73 0 113 44t51 129l61 432q3 19 23 19h84
q20 0 17 -19zM551 831q5 -7 5 -11t-8 -11l-31 -26q-7 -6 -11 -6t-9 5l-84 89l-120 -91q-6 -5 -10.5 -5t-9.5 6l-33 33q-6 7 -4 11.5t7 9.5l104 97q9 8 16 11.5t18 3.5h70q11 0 17.5 -3.5t12.5 -11.5z" />
    <glyph glyph-name="Udieresis" unicode="&#xdc;" horiz-adv-x="666" 
d="M590 286q-11 -74 -33 -129t-58.5 -92.5t-90 -56t-125.5 -18.5q-122 0 -178.5 52.5t-56.5 152.5q0 27 4.5 64t12.5 94l49 348q3 19 23 19h84q20 0 17 -19l-52 -359q-6 -44 -9.5 -78.5t-3.5 -51.5q0 -58 30 -87t96 -29q73 0 113 44t51 129l61 432q3 19 23 19h84
q20 0 17 -19zM239 791q-16 0 -15 16l12 86q3 16 20 16h87q18 0 15 -16l-12 -86q-1 -16 -20 -16h-87zM460 791q-16 0 -15 16l12 86q3 16 20 16h87q18 0 15 -16l-12 -86q-1 -16 -20 -16h-87z" />
    <glyph glyph-name="Yacute" unicode="&#xdd;" horiz-adv-x="542" 
d="M171 0q-20 0 -17 19l37 261l-144 420q-4 9 0.5 14.5t14.5 5.5h85q28 0 33 -19l38 -123q15 -49 29 -94.5t26 -87.5q19 35 44 80t54 93l81 133q7 11 14 14.5t21 3.5h83q10 0 13 -5.5t-2 -14.5l-265 -420l-37 -261q-3 -19 -23 -19h-85zM267 784q-13 0 -4 13l115 151
q8 11 22 11h89q19 0 6 -15l-138 -150q-10 -10 -24 -10h-66z" />
    <glyph glyph-name="Ydieresis" unicode="&#x178;" horiz-adv-x="542" 
d="M171 0q-20 0 -17 19l37 261l-144 420q-4 9 0.5 14.5t14.5 5.5h85q28 0 33 -19l38 -123q15 -49 29 -94.5t26 -87.5q19 35 44 80t54 93l81 133q7 11 14 14.5t21 3.5h83q10 0 13 -5.5t-2 -14.5l-265 -420l-37 -261q-3 -19 -23 -19h-85zM165 791q-16 0 -15 16l12 86
q3 16 20 16h87q18 0 15 -16l-12 -86q-1 -16 -20 -16h-87zM386 791q-16 0 -15 16l12 86q3 16 20 16h87q18 0 15 -16l-12 -86q-1 -16 -20 -16h-87z" />
    <glyph glyph-name="Zcaron" unicode="&#x17d;" horiz-adv-x="539" 
d="M-2 0q-20 0 -17 19l6 46q2 16 7 27.5t18 28.5l379 496h-289q-20 0 -17 19l9 65q3 19 22 19h418q21 0 18 -19l-7 -46q-3 -17 -7.5 -27.5t-15.5 -24.5l-384 -500h320q20 0 17 -19l-9 -65q-3 -19 -23 -19h-445zM398 791q-9 -8 -16.5 -11.5t-18.5 -3.5h-70q-11 0 -17 3.5
t-12 11.5l-73 97q-4 5 -4.5 9.5t7.5 11.5l35 31q7 6 11 6t9 -5l85 -89l120 91q6 5 10.5 5t9.5 -6l30 -33q6 -7 4 -12t-7 -10z" />
    <glyph glyph-name="agrave" unicode="&#xe0;" horiz-adv-x="559" 
d="M366 73q-12 -16 -26.5 -31t-33.5 -26.5t-42 -18.5t-52 -7q-85 0 -132 57t-47 161q0 61 16.5 120.5t49 106t81 75t111.5 28.5q42 0 74.5 -18t49.5 -44l10 34q3 10 8 14t16 4h64q20 0 17 -16l-29 -190l-19 -135q-7 -46 -9.5 -92t-4.5 -79q0 -16 -19 -16h-63q-20 0 -20 15
v58zM393 387q-15 20 -39.5 33.5t-54.5 13.5q-35 0 -62 -19.5t-45 -50t-27 -69.5t-9 -78q0 -56 21 -90.5t68 -34.5q53 0 85 40.5t43 113.5zM316 591q-14 0 -21 10l-98 150q-8 15 11 15h89q8 0 11.5 -2.5t6.5 -8.5l68 -151q3 -6 0 -9.5t-8 -3.5h-59z" />
    <glyph glyph-name="aacute" unicode="&#xe1;" horiz-adv-x="559" 
d="M366 73q-12 -16 -26.5 -31t-33.5 -26.5t-42 -18.5t-52 -7q-85 0 -132 57t-47 161q0 61 16.5 120.5t49 106t81 75t111.5 28.5q42 0 74.5 -18t49.5 -44l10 34q3 10 8 14t16 4h64q20 0 17 -16l-29 -190l-19 -135q-7 -46 -9.5 -92t-4.5 -79q0 -16 -19 -16h-63q-20 0 -20 15
v58zM393 387q-15 20 -39.5 33.5t-54.5 13.5q-35 0 -62 -19.5t-45 -50t-27 -69.5t-9 -78q0 -56 21 -90.5t68 -34.5q53 0 85 40.5t43 113.5zM280 591q-16 0 -4 17l108 147q8 11 22 11h89q8 0 10 -4t-5 -11l-136 -150q-5 -5 -10 -7.5t-13 -2.5h-61z" />
    <glyph glyph-name="acircumflex" unicode="&#xe2;" horiz-adv-x="559" 
d="M366 73q-12 -16 -26.5 -31t-33.5 -26.5t-42 -18.5t-52 -7q-85 0 -132 57t-47 161q0 61 16.5 120.5t49 106t81 75t111.5 28.5q42 0 74.5 -18t49.5 -44l10 34q3 10 8 14t16 4h64q20 0 17 -16l-29 -190l-19 -135q-7 -46 -9.5 -92t-4.5 -79q0 -16 -19 -16h-63q-20 0 -20 15
v58zM393 387q-15 20 -39.5 33.5t-54.5 13.5q-35 0 -62 -19.5t-45 -50t-27 -69.5t-9 -78q0 -56 21 -90.5t68 -34.5q53 0 85 40.5t43 113.5zM479 646q9 -12 -3 -22l-30 -28q-11 -10 -20 -1l-87 91l-126 -91q-12 -9 -20 1l-30 35q-5 7 -3.5 11.5t6.5 9.5l104 95q9 8 16 11.5
t18 3.5h70q11 0 17.5 -3.5t12.5 -11.5z" />
    <glyph glyph-name="atilde" unicode="&#xe3;" horiz-adv-x="559" 
d="M366 73q-12 -16 -26.5 -31t-33.5 -26.5t-42 -18.5t-52 -7q-85 0 -132 57t-47 161q0 61 16.5 120.5t49 106t81 75t111.5 28.5q42 0 74.5 -18t49.5 -44l10 34q3 10 8 14t16 4h64q20 0 17 -16l-29 -190l-19 -135q-7 -46 -9.5 -92t-4.5 -79q0 -16 -19 -16h-63q-20 0 -20 15
v58zM393 387q-15 20 -39.5 33.5t-54.5 13.5q-35 0 -62 -19.5t-45 -50t-27 -69.5t-9 -78q0 -56 21 -90.5t68 -34.5q53 0 85 40.5t43 113.5zM509 677q-23 -25 -53 -43t-63 -18q-19 0 -33.5 6t-27 12.5t-24.5 12.5t-26 6q-15 0 -30 -8.5t-32 -22.5q-3 -3 -6.5 -4t-8.5 4l-30 39
q-7 9 3 19q23 25 53 43t63 18q19 0 33.5 -6t27.5 -12.5l25 -12.5t26 -6q15 0 29.5 8.5t31.5 22.5q4 3 7 4t8 -4l31 -39q7 -8 -4 -19z" />
    <glyph glyph-name="adieresis" unicode="&#xe4;" horiz-adv-x="559" 
d="M366 73q-12 -16 -26.5 -31t-33.5 -26.5t-42 -18.5t-52 -7q-85 0 -132 57t-47 161q0 61 16.5 120.5t49 106t81 75t111.5 28.5q42 0 74.5 -18t49.5 -44l10 34q3 10 8 14t16 4h64q20 0 17 -16l-29 -190l-19 -135q-7 -46 -9.5 -92t-4.5 -79q0 -16 -19 -16h-63q-20 0 -20 15
v58zM393 387q-15 20 -39.5 33.5t-54.5 13.5q-35 0 -62 -19.5t-45 -50t-27 -69.5t-9 -78q0 -56 21 -90.5t68 -34.5q53 0 85 40.5t43 113.5zM160 612q-17 0 -14 16l12 86q1 16 19 16h87q17 0 16 -16l-12 -86q-3 -16 -21 -16h-87zM379 612q-17 0 -14 16l12 86q1 16 19 16h87
q17 0 16 -16l-12 -86q-3 -16 -21 -16h-87z" />
    <glyph glyph-name="aring" unicode="&#xe5;" horiz-adv-x="559" 
d="M366 73q-12 -16 -26.5 -31t-33.5 -26.5t-42 -18.5t-52 -7q-85 0 -132 57t-47 161q0 61 16.5 120.5t49 106t81 75t111.5 28.5q42 0 74.5 -18t49.5 -44l10 34q3 10 8 14t16 4h64q20 0 17 -16l-29 -190l-19 -135q-7 -46 -9.5 -92t-4.5 -79q0 -16 -19 -16h-63q-20 0 -20 15
v58zM393 387q-15 20 -39.5 33.5t-54.5 13.5q-35 0 -62 -19.5t-45 -50t-27 -69.5t-9 -78q0 -56 21 -90.5t68 -34.5q53 0 85 40.5t43 113.5zM316 586q-42 0 -68 27.5t-26 66.5q0 24 10.5 44.5t27.5 35t39 23t45 8.5q20 0 37 -7t29.5 -19.5t19.5 -29t7 -35.5q0 -23 -10 -43.5
t-26.5 -36t-38.5 -25t-46 -9.5zM324 648q17 0 31 12.5t14 30.5q0 14 -7.5 26t-25.5 12q-16 0 -31.5 -12t-15.5 -33q0 -16 9.5 -26t25.5 -10z" />
    <glyph glyph-name="ae" unicode="&#xe6;" horiz-adv-x="850" 
d="M567 -10q-72 0 -119.5 26.5t-72.5 72.5q-36 -46 -88 -72.5t-112 -26.5q-85 0 -130.5 40t-45.5 106q0 48 19 81.5t51.5 55t76.5 31t94 9.5q32 0 63 -4.5t53 -10.5q5 24 6 34t1 18q0 17 -4.5 30.5t-12.5 23.5q-14 17 -36 24t-58 7q-25 0 -60.5 -6.5t-72.5 -20.5
q-14 -5 -19.5 -3t-8.5 11l-12 47q-4 13 -3 19.5t12 11.5q42 20 92.5 32t102.5 12q57 0 101 -19t62 -49q34 32 77.5 50t97.5 18q48 0 85 -15.5t62 -43t37.5 -66.5t12.5 -85q0 -14 -1 -29t-3 -30q-5 -29 -12 -39t-18 -10h-313q2 -61 31 -93.5t96 -32.5q36 0 68 8.5t61 21.5
q19 9 24 -10l16 -51q2 -11 0 -17t-13 -12q-37 -20 -85 -32t-102 -12zM198 88q61 0 99 32t47 87q0 1 -0.5 1.5t-0.5 1.5q-26 6 -54.5 9t-54.5 3q-22 0 -42 -3t-35 -11t-24 -21.5t-9 -35.5q0 -26 18 -44.5t56 -18.5zM611 436q-52 0 -83 -35.5t-45 -90.5h216q3 25 -1.5 47.5
t-15.5 40t-28.5 28t-42.5 10.5z" />
    <glyph glyph-name="ccedilla" unicode="&#xe7;" horiz-adv-x="487" 
d="M231 -233q-25 0 -44.5 4t-32.5 9q-9 4 -5 16l15 42q3 8 6 9t10 -1q8 -2 22.5 -4t25.5 -2q6 0 14.5 1t15.5 4.5t12 10t5 17.5q0 27 -43 27q-22 0 -49 -3q-8 0 -9 3t1 11l24 83q-83 14 -124.5 73.5t-41.5 152.5q0 61 18 118t53.5 101.5t88.5 71.5t122 27q48 0 90 -15.5
t70 -37.5q8 -6 7.5 -13.5t-7.5 -17.5l-27 -45q-12 -19 -30 -7q-24 14 -50.5 22.5t-55.5 8.5q-40 0 -69.5 -18t-48.5 -47.5t-28 -66.5t-9 -75q0 -59 27 -95t89 -36q29 0 57.5 8t55.5 20q21 10 26 -9l15 -48q3 -11 1.5 -18t-10.5 -12q-28 -17 -64 -28.5t-76 -15.5l-6 -30h2
q42 0 68 -19t25 -64q0 -24 -11 -44.5t-29.5 -35.5t-43.5 -23.5t-52 -8.5z" />
    <glyph glyph-name="eth" unicode="&#xf0;" horiz-adv-x="594" 
d="M245 -10q-51 0 -90.5 16.5t-66.5 46t-41 69t-14 86.5q0 63 18.5 118t53.5 95.5t84 64t111 23.5q26 0 54.5 -9t48.5 -23q-10 32 -25 59t-31 45l-125 -41q-12 -4 -16 9l-9 42q-3 14 9 17l85 29q-15 13 -32.5 25t-37.5 23q-4 2 -5.5 7.5t4.5 13.5l40 51q8 9 13.5 10t12.5 -3
q38 -20 70.5 -41.5t58.5 -47.5l122 41q6 2 9 0.5t5 -9.5l9 -42q3 -14 -9 -17l-85 -29q35 -44 56 -110.5t21 -142.5q0 -73 -17.5 -141t-54.5 -120t-93 -83.5t-133 -31.5zM259 92q48 0 78.5 28.5t48 71t24 91t7.5 88.5q-20 17 -48.5 28t-60.5 11q-38 0 -66 -17.5t-47 -45.5
t-28.5 -63t-9.5 -70q-1 -58 26.5 -90t75.5 -32z" />
    <glyph glyph-name="egrave" unicode="&#xe8;" horiz-adv-x="535" 
d="M252 -10q-57 0 -98 16.5t-68 46.5t-40 71t-13 89q0 66 18.5 125t53.5 103.5t85.5 70.5t115.5 26q48 0 85 -15.5t62 -43t37.5 -66.5t12.5 -85q0 -14 -1 -29t-3 -30q-5 -29 -12 -39t-18 -10h-313q2 -61 31 -93.5t96 -32.5q36 0 68 8.5t61 21.5q19 9 24 -10l16 -51
q2 -11 0 -17t-13 -12q-37 -20 -85 -32t-102 -12zM296 436q-52 0 -83 -35.5t-45 -90.5h216q3 25 -1.5 47.5t-15.5 40t-28.5 28t-42.5 10.5zM318 591q-14 0 -21 10l-98 150q-8 15 11 15h89q8 0 11.5 -2.5t6.5 -8.5l68 -151q3 -6 0 -9.5t-8 -3.5h-59z" />
    <glyph glyph-name="eacute" unicode="&#xe9;" horiz-adv-x="535" 
d="M252 -10q-57 0 -98 16.5t-68 46.5t-40 71t-13 89q0 66 18.5 125t53.5 103.5t85.5 70.5t115.5 26q48 0 85 -15.5t62 -43t37.5 -66.5t12.5 -85q0 -14 -1 -29t-3 -30q-5 -29 -12 -39t-18 -10h-313q2 -61 31 -93.5t96 -32.5q36 0 68 8.5t61 21.5q19 9 24 -10l16 -51
q2 -11 0 -17t-13 -12q-37 -20 -85 -32t-102 -12zM296 436q-52 0 -83 -35.5t-45 -90.5h216q3 25 -1.5 47.5t-15.5 40t-28.5 28t-42.5 10.5zM261 591q-16 0 -4 17l108 147q8 11 22 11h89q8 0 10 -4t-5 -11l-136 -150q-5 -5 -10 -7.5t-13 -2.5h-61z" />
    <glyph glyph-name="ecircumflex" unicode="&#xea;" horiz-adv-x="535" 
d="M252 -10q-57 0 -98 16.5t-68 46.5t-40 71t-13 89q0 66 18.5 125t53.5 103.5t85.5 70.5t115.5 26q48 0 85 -15.5t62 -43t37.5 -66.5t12.5 -85q0 -14 -1 -29t-3 -30q-5 -29 -12 -39t-18 -10h-313q2 -61 31 -93.5t96 -32.5q36 0 68 8.5t61 21.5q19 9 24 -10l16 -51
q2 -11 0 -17t-13 -12q-37 -20 -85 -32t-102 -12zM296 436q-52 0 -83 -35.5t-45 -90.5h216q3 25 -1.5 47.5t-15.5 40t-28.5 28t-42.5 10.5zM480 646q9 -12 -3 -22l-30 -28q-11 -10 -20 -1l-87 91l-126 -91q-12 -9 -20 1l-30 35q-5 7 -3.5 11.5t6.5 9.5l104 95q9 8 16 11.5
t18 3.5h70q11 0 17.5 -3.5t12.5 -11.5z" />
    <glyph glyph-name="edieresis" unicode="&#xeb;" horiz-adv-x="535" 
d="M252 -10q-57 0 -98 16.5t-68 46.5t-40 71t-13 89q0 66 18.5 125t53.5 103.5t85.5 70.5t115.5 26q48 0 85 -15.5t62 -43t37.5 -66.5t12.5 -85q0 -14 -1 -29t-3 -30q-5 -29 -12 -39t-18 -10h-313q2 -61 31 -93.5t96 -32.5q36 0 68 8.5t61 21.5q19 9 24 -10l16 -51
q2 -11 0 -17t-13 -12q-37 -20 -85 -32t-102 -12zM296 436q-52 0 -83 -35.5t-45 -90.5h216q3 25 -1.5 47.5t-15.5 40t-28.5 28t-42.5 10.5zM160 612q-17 0 -14 16l12 86q1 16 19 16h87q17 0 16 -16l-12 -86q-3 -16 -21 -16h-87zM379 612q-17 0 -14 16l12 86q1 16 19 16h87
q17 0 16 -16l-12 -86q-3 -16 -21 -16h-87z" />
    <glyph glyph-name="dotlessi" unicode="&#x131;" horiz-adv-x="264" 
d="M54 0q-16 0 -15 16l70 496q1 16 19 16h86q16 0 15 -16l-70 -496q-1 -16 -19 -16h-86z" />
    <glyph glyph-name="igrave" unicode="&#xec;" horiz-adv-x="264" 
d="M167 591q-14 0 -21 10l-98 150q-8 15 11 15h89q8 0 11.5 -2.5t6.5 -8.5l68 -151q3 -6 0 -9.5t-8 -3.5h-59zM54 0q-16 0 -15 16l70 496q1 16 19 16h86q16 0 15 -16l-70 -496q-1 -16 -19 -16h-86z" />
    <glyph glyph-name="iacute" unicode="&#xed;" horiz-adv-x="264" 
d="M127 591q-16 0 -4 17l108 147q8 11 22 11h89q8 0 10 -4t-5 -11l-136 -150q-5 -5 -10 -7.5t-13 -2.5h-61zM54 0q-16 0 -15 16l70 496q1 16 19 16h86q16 0 15 -16l-70 -496q-1 -16 -19 -16h-86z" />
    <glyph glyph-name="icircumflex" unicode="&#xee;" horiz-adv-x="264" 
d="M54 0q-16 0 -15 16l70 496q1 16 19 16h86q16 0 15 -16l-70 -496q-1 -16 -19 -16h-86zM337 646q9 -12 -3 -22l-30 -28q-11 -10 -20 -1l-87 91l-126 -91q-12 -9 -20 1l-30 35q-5 7 -3.5 11.5t6.5 9.5l104 95q9 8 16 11.5t18 3.5h70q11 0 17.5 -3.5t12.5 -11.5z" />
    <glyph glyph-name="idieresis" unicode="&#xef;" horiz-adv-x="264" 
d="M25 612q-17 0 -14 16l12 86q1 16 19 16h87q17 0 16 -16l-12 -86q-3 -16 -21 -16h-87zM244 612q-17 0 -14 16l12 86q1 16 19 16h87q17 0 16 -16l-12 -86q-3 -16 -21 -16h-87zM54 0q-16 0 -15 16l70 496q1 16 19 16h86q16 0 15 -16l-70 -496q-1 -16 -19 -16h-86z" />
    <glyph glyph-name="lslash" unicode="&#x142;" horiz-adv-x="320" 
d="M28 237q-9 -5 -12.5 -1.5t-1.5 11.5l10 73q3 16 15 23l80 45l15 110q10 71 15 117.5t8 75t3.5 42t1.5 18.5q3 15 20 15h79q19 0 19 -16q0 -10 -2 -37t-6.5 -65.5t-11 -86.5t-13.5 -100l91 52q9 5 12.5 1.5t2.5 -11.5l-10 -73q-2 -9 -5 -13.5t-11 -9.5l-95 -54l-24 -174
q-3 -24 -5 -38.5t-2 -19.5q0 -30 27 -30h12q9 0 10.5 -3.5t-0.5 -13.5l-6 -47q-3 -16 -14 -21q-8 -4 -21.5 -7t-28.5 -3q-26 0 -46 7t-34 25q-19 25 -19 70q0 11 2.5 35t7.5 56l13 91z" />
    <glyph glyph-name="ntilde" unicode="&#xf1;" horiz-adv-x="572" 
d="M212 473q32 30 75.5 47.5t81.5 17.5t71.5 -13.5t53.5 -39.5q17 -21 24.5 -46.5t7.5 -60.5q0 -13 -2.5 -41.5t-7.5 -60.5l-38 -260q-3 -16 -20 -16h-83q-18 0 -15 16l34 242q5 30 8 56.5t3 40.5q0 40 -21 57.5t-59 17.5q-21 0 -42 -5t-38 -16q-15 -9 -25 -24t-16 -43
q-4 -19 -8.5 -46t-9.5 -61l-31 -219q-3 -16 -19 -16h-84q-18 0 -15 16l43 313q9 63 14.5 111t7.5 72q1 16 19 16h72q19 0 19 -20v-35zM527 677q-23 -25 -53 -43t-63 -18q-19 0 -33.5 6t-27 12.5t-24.5 12.5t-26 6q-15 0 -30 -8.5t-32 -22.5q-3 -3 -6.5 -4t-8.5 4l-30 39
q-7 9 3 19q23 25 53 43t63 18q19 0 33.5 -6t27.5 -12.5l25 -12.5t26 -6q15 0 29.5 8.5t31.5 22.5q4 3 7 4t8 -4l31 -39q7 -8 -4 -19z" />
    <glyph glyph-name="ograve" unicode="&#xf2;" horiz-adv-x="557" 
d="M243 -10q-101 0 -155.5 56t-54.5 157q0 72 18.5 133t54.5 106t89 70.5t122 25.5q99 0 153 -56t54 -157q0 -65 -15 -125t-49 -107t-87.5 -75t-129.5 -28zM256 94q42 0 70 20t45 51.5t24 70t7 75.5q0 53 -23.5 88t-75.5 35q-41 0 -69 -20t-45.5 -51t-25.5 -69t-8 -75
q0 -54 24.5 -89.5t76.5 -35.5zM326 591q-14 0 -21 10l-98 150q-8 15 11 15h89q8 0 11.5 -2.5t6.5 -8.5l68 -151q3 -6 0 -9.5t-8 -3.5h-59z" />
    <glyph glyph-name="oacute" unicode="&#xf3;" horiz-adv-x="557" 
d="M243 -10q-101 0 -155.5 56t-54.5 157q0 72 18.5 133t54.5 106t89 70.5t122 25.5q99 0 153 -56t54 -157q0 -65 -15 -125t-49 -107t-87.5 -75t-129.5 -28zM256 94q42 0 70 20t45 51.5t24 70t7 75.5q0 53 -23.5 88t-75.5 35q-41 0 -69 -20t-45.5 -51t-25.5 -69t-8 -75
q0 -54 24.5 -89.5t76.5 -35.5zM269 591q-16 0 -4 17l108 147q8 11 22 11h89q8 0 10 -4t-5 -11l-136 -150q-5 -5 -10 -7.5t-13 -2.5h-61z" />
    <glyph glyph-name="ocircumflex" unicode="&#xf4;" horiz-adv-x="557" 
d="M243 -10q-101 0 -155.5 56t-54.5 157q0 72 18.5 133t54.5 106t89 70.5t122 25.5q99 0 153 -56t54 -157q0 -65 -15 -125t-49 -107t-87.5 -75t-129.5 -28zM256 94q42 0 70 20t45 51.5t24 70t7 75.5q0 53 -23.5 88t-75.5 35q-41 0 -69 -20t-45.5 -51t-25.5 -69t-8 -75
q0 -54 24.5 -89.5t76.5 -35.5zM492 646q9 -12 -3 -22l-30 -28q-11 -10 -20 -1l-87 91l-126 -91q-12 -9 -20 1l-30 35q-5 7 -3.5 11.5t6.5 9.5l104 95q9 8 16 11.5t18 3.5h70q11 0 17.5 -3.5t12.5 -11.5z" />
    <glyph glyph-name="otilde" unicode="&#xf5;" horiz-adv-x="557" 
d="M243 -10q-101 0 -155.5 56t-54.5 157q0 72 18.5 133t54.5 106t89 70.5t122 25.5q99 0 153 -56t54 -157q0 -65 -15 -125t-49 -107t-87.5 -75t-129.5 -28zM256 94q42 0 70 20t45 51.5t24 70t7 75.5q0 53 -23.5 88t-75.5 35q-41 0 -69 -20t-45.5 -51t-25.5 -69t-8 -75
q0 -54 24.5 -89.5t76.5 -35.5zM501 677q-23 -25 -53 -43t-63 -18q-19 0 -33.5 6t-27 12.5t-24.5 12.5t-26 6q-15 0 -30 -8.5t-32 -22.5q-3 -3 -6.5 -4t-8.5 4l-30 39q-7 9 3 19q23 25 53 43t63 18q19 0 33.5 -6t27.5 -12.5l25 -12.5t26 -6q15 0 29.5 8.5t31.5 22.5q4 3 7 4
t8 -4l31 -39q7 -8 -4 -19z" />
    <glyph glyph-name="odieresis" unicode="&#xf6;" horiz-adv-x="557" 
d="M243 -10q-101 0 -155.5 56t-54.5 157q0 72 18.5 133t54.5 106t89 70.5t122 25.5q99 0 153 -56t54 -157q0 -65 -15 -125t-49 -107t-87.5 -75t-129.5 -28zM256 94q42 0 70 20t45 51.5t24 70t7 75.5q0 53 -23.5 88t-75.5 35q-41 0 -69 -20t-45.5 -51t-25.5 -69t-8 -75
q0 -54 24.5 -89.5t76.5 -35.5zM179 612q-17 0 -14 16l12 86q1 16 19 16h87q17 0 16 -16l-12 -86q-3 -16 -21 -16h-87zM398 612q-17 0 -14 16l12 86q1 16 19 16h87q17 0 16 -16l-12 -86q-3 -16 -21 -16h-87z" />
    <glyph glyph-name="oslash" unicode="&#xf8;" horiz-adv-x="556" 
d="M242 -10q-29 0 -54 5t-46 13l-39 -53q-11 -14 -17 -15t-17 7l-33 24q-8 6 -11 14t5 18l43 58q-41 55 -41 142q0 72 18.5 133t54.5 106t89 70.5t122 25.5q53 0 97 -19l39 53q9 13 16 14.5t18 -6.5l33 -24q8 -6 11 -14t-5 -18l-43 -58q20 -27 30.5 -62t10.5 -79
q0 -65 -15 -125t-49 -107t-87.5 -75t-129.5 -28zM154 219q0 -11 1 -22t3 -21l186 250q-19 8 -42 8q-41 0 -69 -20t-45.5 -51t-25.5 -69t-8 -75zM255 94q42 0 70 20t45 51.5t24 70t7 75.5q0 11 -1 21t-3 19l-185 -249q19 -8 43 -8z" />
    <glyph glyph-name="oe" unicode="&#x153;" horiz-adv-x="898" 
d="M615 -10q-63 0 -107.5 21.5t-71.5 60.5q-34 -35 -81 -58.5t-112 -23.5q-101 0 -155.5 56t-54.5 157q0 72 18.5 133t54.5 106t89 70.5t122 25.5q57 0 101.5 -24t65.5 -57q34 35 81 58t104 23q48 0 85 -15.5t62 -43t37.5 -66.5t12.5 -85q0 -14 -1 -29t-3 -30
q-5 -29 -12 -39t-18 -10h-313q2 -61 31 -93.5t96 -32.5q36 0 68 8.5t61 21.5q19 9 24 -10l16 -51q2 -11 0 -17t-13 -12q-37 -20 -85 -32t-102 -12zM256 94q33 0 57.5 13t41.5 35t27 50t15 58q1 8 1.5 15t2.5 15q1 8 1 15.5v15.5q0 53 -23.5 88t-75.5 35q-41 0 -69 -20
t-45.5 -51t-25.5 -69t-8 -75q0 -54 24.5 -89.5t76.5 -35.5zM659 436q-52 0 -83 -35.5t-45 -90.5h216q3 25 -1.5 47.5t-15.5 40t-28.5 28t-42.5 10.5z" />
    <glyph glyph-name="thorn" unicode="&#xfe;" horiz-adv-x="566" 
d="M220 485q25 24 60.5 38.5t77.5 14.5q39 0 71 -15.5t55 -43.5t35.5 -67.5t12.5 -87.5q0 -56 -15.5 -115t-47 -107.5t-80.5 -80t-116 -31.5q-35 0 -63.5 10t-52.5 27l-36 -252q-1 -17 -19 -17h-84q-16 0 -15 17l136 975q3 16 20 16h85q17 0 14 -16zM262 95q38 0 66 20
t46 51.5t26.5 70.5t8.5 76q0 55 -23.5 88.5t-72.5 33.5q-25 0 -47 -8.5t-37 -24.5q-11 -13 -19.5 -34t-13.5 -56l-25 -183q18 -16 41 -25t50 -9z" />
    <glyph glyph-name="scaron" unicode="&#x161;" horiz-adv-x="457" 
d="M42 119q6 12 13.5 13t15.5 -4q27 -16 58.5 -27.5t69.5 -11.5q17 0 33.5 3t29.5 10.5t21 19t8 28.5q0 11 -4.5 20t-15.5 16.5t-30 15.5t-47 17q-27 9 -51 20.5t-42 28t-28 39.5t-10 55q0 42 16.5 74.5t46 55t69.5 34.5t87 12q38 0 79 -12.5t70 -34.5q15 -12 1 -30l-31 -44
q-8 -11 -15 -11.5t-15 4.5q-20 13 -45.5 22t-55.5 9q-15 0 -30.5 -3t-28 -10t-20.5 -18.5t-8 -28.5q0 -15 7 -25t19 -17.5t28 -13t34 -11.5q31 -11 56.5 -22.5t43.5 -27t27.5 -37.5t9.5 -53q0 -41 -15.5 -75t-44 -58t-68.5 -37.5t-89 -13.5q-56 0 -100 15t-72 37
q-12 9 -1 30zM342 603q-9 -8 -16 -11.5t-18 -3.5h-70q-11 0 -17.5 3.5t-12.5 11.5l-75 96q-4 5 -4.5 10t6.5 11l39 34q7 6 11 6t9 -5l89 -91l115 91q6 5 10.5 5t9.5 -6l30 -33q5 -7 3.5 -12t-6.5 -10z" />
    <glyph glyph-name="germandbls" unicode="&#xdf;" horiz-adv-x="653" 
d="M592 626q0 -33 -13.5 -58.5t-33.5 -45.5t-44 -36.5t-44 -31.5t-33.5 -29.5t-13.5 -30.5t15.5 -28.5t39 -24.5t51 -25.5t51 -32t39 -44t15.5 -61.5q0 -43 -16.5 -78t-44 -59.5t-64.5 -37.5t-79 -13q-55 0 -101 14t-76 35q-5 3 -6.5 9.5t4.5 18.5l24 45q5 10 12 11.5
t17 -3.5q32 -16 60.5 -24t58.5 -8q13 0 29.5 4t31 12t24.5 21.5t10 33.5t-16 34.5t-39.5 26.5t-51 25t-51.5 30t-39.5 41t-15.5 60q0 34 13 59.5t33 45.5t43 35.5t43 30.5t33 30.5t13 34.5q0 28 -22 46.5t-67 18.5q-57 0 -99 -36t-52 -114l-69 -511q-3 -16 -19 -16h-84
q-18 0 -15 16l72 510q10 66 33.5 113t59.5 77.5t82.5 45t102.5 14.5q45 0 81.5 -11t63 -31t40.5 -47.5t14 -60.5z" />
    <glyph glyph-name="ugrave" unicode="&#xf9;" horiz-adv-x="568" 
d="M366 60q-32 -30 -72 -50t-88 -20q-40 0 -72.5 14t-52.5 40q-14 20 -22 44t-8 59q0 14 3 47.5t8 68.5l36 249q3 16 20 16h84q17 0 14 -16l-37 -266q-3 -23 -5 -40t-2 -31q0 -40 18.5 -60t66.5 -20q21 0 40.5 7t36.5 19q14 10 22.5 24.5t14.5 37.5q4 19 9 47t10 62l31 220
q3 16 21 16h83q17 0 14 -16l-44 -313q-9 -63 -13 -108.5t-6 -74.5q-1 -16 -27 -16h-66q-11 0 -15 4.5t-4 13.5v18t2 24zM314 591q-14 0 -21 10l-98 150q-8 15 11 15h89q8 0 11.5 -2.5t6.5 -8.5l68 -151q3 -6 0 -9.5t-8 -3.5h-59z" />
    <glyph glyph-name="uacute" unicode="&#xfa;" horiz-adv-x="568" 
d="M366 60q-32 -30 -72 -50t-88 -20q-40 0 -72.5 14t-52.5 40q-14 20 -22 44t-8 59q0 14 3 47.5t8 68.5l36 249q3 16 20 16h84q17 0 14 -16l-37 -266q-3 -23 -5 -40t-2 -31q0 -40 18.5 -60t66.5 -20q21 0 40.5 7t36.5 19q14 10 22.5 24.5t14.5 37.5q4 19 9 47t10 62l31 220
q3 16 21 16h83q17 0 14 -16l-44 -313q-9 -63 -13 -108.5t-6 -74.5q-1 -16 -27 -16h-66q-11 0 -15 4.5t-4 13.5v18t2 24zM273 591q-16 0 -4 17l108 147q8 11 22 11h89q8 0 10 -4t-5 -11l-136 -150q-5 -5 -10 -7.5t-13 -2.5h-61z" />
    <glyph glyph-name="ucircumflex" unicode="&#xfb;" horiz-adv-x="568" 
d="M366 60q-32 -30 -72 -50t-88 -20q-40 0 -72.5 14t-52.5 40q-14 20 -22 44t-8 59q0 14 3 47.5t8 68.5l36 249q3 16 20 16h84q17 0 14 -16l-37 -266q-3 -23 -5 -40t-2 -31q0 -40 18.5 -60t66.5 -20q21 0 40.5 7t36.5 19q14 10 22.5 24.5t14.5 37.5q4 19 9 47t10 62l31 220
q3 16 21 16h83q17 0 14 -16l-44 -313q-9 -63 -13 -108.5t-6 -74.5q-1 -16 -27 -16h-66q-11 0 -15 4.5t-4 13.5v18t2 24zM485 646q9 -12 -3 -22l-30 -28q-11 -10 -20 -1l-87 91l-126 -91q-12 -9 -20 1l-30 35q-5 7 -3.5 11.5t6.5 9.5l104 95q9 8 16 11.5t18 3.5h70
q11 0 17.5 -3.5t12.5 -11.5z" />
    <glyph glyph-name="udieresis" unicode="&#xfc;" horiz-adv-x="568" 
d="M366 60q-32 -30 -72 -50t-88 -20q-40 0 -72.5 14t-52.5 40q-14 20 -22 44t-8 59q0 14 3 47.5t8 68.5l36 249q3 16 20 16h84q17 0 14 -16l-37 -266q-3 -23 -5 -40t-2 -31q0 -40 18.5 -60t66.5 -20q21 0 40.5 7t36.5 19q14 10 22.5 24.5t14.5 37.5q4 19 9 47t10 62l31 220
q3 16 21 16h83q17 0 14 -16l-44 -313q-9 -63 -13 -108.5t-6 -74.5q-1 -16 -27 -16h-66q-11 0 -15 4.5t-4 13.5v18t2 24zM175 612q-17 0 -14 16l12 86q1 16 19 16h87q17 0 16 -16l-12 -86q-3 -16 -21 -16h-87zM394 612q-17 0 -14 16l12 86q1 16 19 16h87q17 0 16 -16l-12 -86
q-3 -16 -21 -16h-87z" />
    <glyph glyph-name="yacute" unicode="&#xfd;" horiz-adv-x="565" 
d="M210 -152q66 0 96 39t41 120l5 40q-30 -26 -67 -41.5t-79 -15.5q-40 0 -72.5 14t-52.5 40q-14 20 -22 44t-8 59q0 14 3 47.5t8 68.5l36 249q3 16 20 16h84q17 0 14 -16l-37 -266q-3 -23 -5 -40t-2 -31q0 -40 18.5 -60t66.5 -20q21 0 40.5 7t36.5 19q14 10 22.5 24.5
t14.5 37.5q4 19 9 47t10 62l31 220q3 16 21 16h83q17 0 14 -16l-67 -473q-10 -72 -29 -126t-50 -91t-75.5 -55.5t-105.5 -18.5q-43 0 -86.5 9.5t-75.5 25.5q-9 5 -11 10t1 14l19 52q8 22 25 15q31 -11 64 -18.5t62 -7.5zM271 591q-16 0 -4 17l108 147q8 11 22 11h89
q8 0 10 -4t-5 -11l-136 -150q-5 -5 -10 -7.5t-13 -2.5h-61z" />
    <glyph glyph-name="ydieresis" unicode="&#xff;" horiz-adv-x="565" 
d="M210 -152q66 0 96 39t41 120l5 40q-30 -26 -67 -41.5t-79 -15.5q-40 0 -72.5 14t-52.5 40q-14 20 -22 44t-8 59q0 14 3 47.5t8 68.5l36 249q3 16 20 16h84q17 0 14 -16l-37 -266q-3 -23 -5 -40t-2 -31q0 -40 18.5 -60t66.5 -20q21 0 40.5 7t36.5 19q14 10 22.5 24.5
t14.5 37.5q4 19 9 47t10 62l31 220q3 16 21 16h83q17 0 14 -16l-67 -473q-10 -72 -29 -126t-50 -91t-75.5 -55.5t-105.5 -18.5q-43 0 -86.5 9.5t-75.5 25.5q-9 5 -11 10t1 14l19 52q8 22 25 15q31 -11 64 -18.5t62 -7.5zM176 612q-17 0 -14 16l12 86q1 16 19 16h87
q17 0 16 -16l-12 -86q-3 -16 -21 -16h-87zM395 612q-17 0 -14 16l12 86q1 16 19 16h87q17 0 16 -16l-12 -86q-3 -16 -21 -16h-87z" />
    <glyph glyph-name="zcaron" unicode="&#x17e;" horiz-adv-x="461" 
d="M300 433h-216q-15 0 -14 18l9 60q1 17 18 17h349q16 0 15 -17l-4 -33q-4 -24 -22 -46l-275 -337h231q18 0 15 -18l-9 -60q-1 -17 -19 -17h-366q-15 0 -14 17l4 31q2 14 7 23t15 21zM351 603q-9 -8 -16 -11.5t-18 -3.5h-70q-11 0 -17.5 3.5t-12.5 11.5l-75 96
q-4 5 -4.5 10t6.5 11l39 34q7 6 11 6t9 -5l89 -91l115 91q6 5 10.5 5t9.5 -6l30 -33q5 -7 3.5 -12t-6.5 -10z" />
    <glyph glyph-name="Alpha" unicode="&#x391;" horiz-adv-x="642" 
d="M422 175h-256l-72 -156q-10 -19 -30 -19h-83q-21 0 -10 22l331 680q5 10 11 14t19 4h76q23 0 26 -18l144 -682q3 -20 -17 -20h-82q-14 0 -19.5 5.5t-7.5 16.5zM214 274h188l-8 49l-43 252q-29 -66 -58.5 -133t-52.5 -114z" />
    <glyph glyph-name="Beta" unicode="&#x392;" horiz-adv-x="579" 
d="M43 0q-20 0 -17 19l97 682q3 19 22 19h138q128 0 189 -39t61 -127q0 -26 -7.5 -53t-23 -51t-38.5 -43t-54 -29q52 -18 81.5 -55t29.5 -90q0 -63 -23 -107.5t-64 -72.5t-96.5 -40.5t-120.5 -12.5h-174zM228 101q30 0 59.5 5t53 18.5t38 37t14.5 60.5q0 100 -132 100h-68
l-31 -221h66zM259 419q67 0 107 29t40 89q0 18 -5.5 32t-14.5 23q-17 17 -44 21.5t-59 4.5h-48l-28 -199h52z" />
    <glyph glyph-name="Gamma" unicode="&#x393;" horiz-adv-x="539" 
d="M150 19q-3 -19 -23 -19h-84q-20 0 -17 19l96 682q3 19 22 19h395q21 0 18 -19l-9 -65q-3 -19 -23 -19h-291z" />
    <glyph glyph-name="Delta" unicode="&#x394;" horiz-adv-x="646" 
d="M421 720q17 0 20 -17l132 -594q6 -26 2 -50l-6 -45q-1 -5 -3 -9.5t-12 -4.5h-562q-14 0 -13 14l6 50q2 14 5.5 25t10.5 25l301 589q5 9 9.5 13t14.5 4h95zM438 108l-83 460l-226 -460h309z" />
    <glyph glyph-name="Epsilon" unicode="&#x395;" horiz-adv-x="541" 
d="M43 0q-20 0 -17 19l96 682q3 19 22 19h378q21 0 18 -19l-9 -65q-3 -19 -23 -19h-274l-28 -202h231q20 0 17 -18l-9 -65q-3 -19 -23 -19h-231l-29 -210h278q20 0 17 -19l-9 -65q-3 -19 -23 -19h-382z" />
    <glyph glyph-name="Zeta" unicode="&#x396;" horiz-adv-x="539" 
d="M-2 0q-20 0 -17 19l6 46q2 16 7 27.5t18 28.5l379 496h-289q-20 0 -17 19l9 65q3 19 22 19h418q21 0 18 -19l-7 -46q-3 -17 -7.5 -27.5t-15.5 -24.5l-384 -500h320q20 0 17 -19l-9 -65q-3 -19 -23 -19h-445z" />
    <glyph glyph-name="Eta" unicode="&#x397;" horiz-adv-x="666" 
d="M43 0q-20 0 -17 19l96 682q3 19 22 19h84q21 0 18 -19l-40 -286h270l40 286q3 19 22 19h84q21 0 18 -19l-96 -682q-3 -19 -23 -19h-84q-20 0 -17 19l41 294h-269l-41 -294q-3 -19 -23 -19h-85z" />
    <glyph glyph-name="Theta" unicode="&#x398;" horiz-adv-x="687" 
d="M654 441q0 -80 -20 -160.5t-63.5 -145t-112.5 -105t-166 -40.5q-59 0 -106.5 18.5t-81.5 55.5t-52.5 90.5t-18.5 124.5q0 80 21 160.5t65 145t113 105t165 40.5q58 0 105.5 -20t81 -57t52 -91t18.5 -121zM307 96q60 0 102 32t68 81.5t37.5 109t11.5 115.5q0 46 -11 81.5
t-30 59.5t-45.5 36.5t-56.5 12.5q-62 0 -104.5 -32.5t-68.5 -82t-37.5 -109.5t-11.5 -114q0 -95 39.5 -142.5t106.5 -47.5zM218 315q-16 0 -13 17l8 54q3 17 18 17h238q16 0 13 -17l-8 -54q-3 -17 -18 -17h-238z" />
    <glyph glyph-name="Iota" unicode="&#x399;" horiz-adv-x="280" 
d="M47 0q-20 0 -17 19l96 682q3 19 22 19h84q21 0 18 -19l-96 -682q-3 -19 -23 -19h-84z" />
    <glyph glyph-name="Kappa" unicode="&#x39a;" horiz-adv-x="597" 
d="M43 0q-20 0 -17 19l96 682q3 19 22 19h84q21 0 18 -19l-41 -284h29q17 0 26.5 5.5t18.5 16.5l215 263q8 11 15.5 14.5t20.5 3.5h86q12 0 14 -7.5t-6 -16.5l-272 -328l189 -346q5 -10 0.5 -16t-13.5 -6h-88q-14 0 -21 5t-12 15l-139 267q-8 15 -16 19.5t-26 4.5h-35
l-41 -292q-3 -19 -23 -19h-84z" />
    <glyph glyph-name="Lambda" unicode="&#x39b;" horiz-adv-x="642" 
d="M394 323q-5 26 -10.5 57.5t-11 65t-11 66.5l-10.5 63q-29 -66 -57 -129t-54 -118l-146 -309q-10 -19 -30 -19h-83q-21 0 -10 22l331 680q5 10 11 14t19 4h76q23 0 26 -18l144 -682q3 -20 -17 -20h-82q-14 0 -19.5 5.5t-7.5 16.5z" />
    <glyph glyph-name="Mu" unicode="&#x39c;" horiz-adv-x="799" 
d="M346 119q-17 0 -24.5 4t-9.5 16l-40 151q-14 53 -27.5 109.5t-27.5 118.5q-3 -26 -8 -61.5t-11 -75.5t-12.5 -80.5t-12.5 -76.5l-35 -202q-4 -22 -24 -22h-72q-14 0 -18 5t-2 18l122 675q3 12 8.5 17t18.5 5h77q14 0 20.5 -4t9.5 -15l57 -220q8 -30 16 -61.5t15 -61
t12.5 -56t9.5 -45.5q14 28 29.5 58.5t31 60.5t30 58t26.5 51l114 216q6 11 13.5 15t19.5 4h81q24 0 21 -22l-69 -675q-1 -23 -26 -23h-72q-23 0 -20 22l30 261q8 76 15 130.5t14 104.5q-22 -46 -52 -107.5t-61 -118.5l-79 -153q-7 -12 -14.5 -16t-24.5 -4h-49z" />
    <glyph glyph-name="Nu" unicode="&#x39d;" horiz-adv-x="684" 
d="M296 322q-26 55 -48 103.5t-39 93.5q-2 -21 -5 -49t-6.5 -58.5t-7.5 -61.5t-8 -57l-38 -274q-3 -19 -23 -19h-78q-20 0 -17 19l96 682q3 19 22 19h66q15 0 22 -4t12 -14l151 -312q10 -21 21 -45.5t22 -49.5t20.5 -48.5t17.5 -43.5q2 21 5 48.5t6.5 57.5t7.5 60t8 57
l39 275q3 19 22 19h76q21 0 18 -19l-96 -682q-3 -19 -23 -19h-67q-15 0 -21 4t-11 14z" />
    <glyph glyph-name="Xi" unicode="&#x39e;" horiz-adv-x="541" 
d="M102 617q-20 0 -17 19l9 65q3 19 22 19h411q21 0 18 -19l-9 -65q-3 -19 -23 -19h-411zM78 313q-20 0 -17 19l9 65q3 19 22 19h375q21 0 18 -19l-9 -65q-3 -19 -23 -19h-375zM9 0q-20 0 -17 19l9 65q3 19 22 19h432q21 0 18 -19l-9 -65q-3 -19 -23 -19h-432z" />
    <glyph glyph-name="Omicron" unicode="&#x39f;" horiz-adv-x="687" 
d="M654 441q0 -80 -20 -160.5t-63.5 -145t-112.5 -105t-166 -40.5q-59 0 -106.5 18.5t-81.5 55.5t-52.5 90.5t-18.5 124.5q0 80 21 160.5t65 145t113 105t165 40.5q58 0 105.5 -20t81 -57t52 -91t18.5 -121zM307 96q60 0 102 32t68 81.5t37.5 109t11.5 115.5q0 46 -11 81.5
t-30 59.5t-45.5 36.5t-56.5 12.5q-62 0 -104.5 -32.5t-68.5 -82t-37.5 -109.5t-11.5 -114q0 -95 39.5 -142.5t106.5 -47.5z" />
    <glyph glyph-name="Pi" unicode="&#x3a0;" horiz-adv-x="667" 
d="M505 617h-271l-84 -598q-3 -19 -23 -19h-84q-20 0 -17 19l96 682q3 19 22 19h479q21 0 18 -19l-96 -682q-3 -19 -23 -19h-84q-20 0 -17 19z" />
    <glyph glyph-name="Rho" unicode="&#x3a1;" horiz-adv-x="551" 
d="M43 0q-20 0 -17 19l96 682q3 19 22 19h141q58 0 106 -9.5t82 -32t52.5 -60t18.5 -93.5q0 -59 -19.5 -108t-56 -84t-89 -54t-119.5 -19q-20 0 -39.5 0.5t-36.5 2.5l-34 -244q-3 -19 -23 -19h-84zM234 618l-36 -254q15 -2 32.5 -2.5t34.5 -0.5q74 0 112.5 41.5t38.5 112.5
q0 59 -36 81t-94 22h-52z" />
    <glyph glyph-name="Sigma" unicode="&#x3a3;" horiz-adv-x="533" 
d="M15 0q-10 0 -16 4t-4 18l6 44q3 22 12.5 37.5t26.5 32.5l244 244l-174 222q-11 15 -11 30q0 14 3 37l4 31q2 13 6.5 16.5t15.5 3.5h395q20 0 17 -19l-9 -63q-3 -19 -23 -19h-269l150 -192q10 -14 12 -22t-1 -25l-3 -16q-4 -18 -8 -25.5t-17 -20.5l-218 -217h284
q20 0 17 -19l-9 -63q-3 -19 -23 -19h-408z" />
    <glyph glyph-name="Tau" unicode="&#x3a4;" horiz-adv-x="511" 
d="M348 617l-84 -598q-3 -19 -23 -19h-84q-20 0 -17 19l84 598h-164q-20 0 -17 19l9 65q3 19 22 19h452q21 0 18 -19l-9 -65q-3 -19 -23 -19h-164z" />
    <glyph glyph-name="Upsilon" unicode="&#x3a5;" horiz-adv-x="561" 
d="M474 703q7 11 14 14t21 3h88q10 0 14 -6t-1 -15l-74 -114q-51 -79 -90.5 -143.5t-68 -121t-45.5 -106.5t-24 -99l-13 -96q-3 -19 -23 -19h-85q-20 0 -17 19l13 96q6 51 4.5 99t-13 102t-32.5 119t-53 150l-43 114q-4 9 0.5 15t14.5 6h87q15 0 22.5 -4.5t11.5 -15.5
l22 -64q16 -48 28 -87t20.5 -74t14 -68t9.5 -68h3q29 75 67 150t93 160z" />
    <glyph glyph-name="Phi" unicode="&#x3a6;" horiz-adv-x="811" 
d="M648 407q0 71 -39 117t-113 55l-61 -439q49 6 89 29t67.5 59t42 82t14.5 97zM163 317q0 -71 39 -120t112 -57l62 439q-48 -5 -87 -28t-67.5 -58.5t-43.5 -81t-15 -94.5zM512 679q61 -6 110 -28t83.5 -56.5t53.5 -81t19 -102.5q0 -78 -27 -142t-75 -112t-113 -77.5
t-141 -37.5l-8 -59q-3 -19 -23 -19h-84q-20 0 -17 18l9 59q-126 12 -195 83.5t-70 183.5q-1 75 25.5 139t74 113t113 79.5t142.5 38.5l8 55q3 19 23 19h83q20 0 17 -18z" />
    <glyph glyph-name="Chi" unicode="&#x3a7;" horiz-adv-x="584" 
d="M117 223q36 49 65.5 89t49.5 65q-12 25 -31.5 68t-40.5 92l-71 162q-3 8 1 14.5t14 6.5h87q13 0 19.5 -3t11.5 -14l49 -119q12 -30 24 -58.5t22 -56.5l76 115l81 119q7 10 14 13.5t21 3.5h92q10 0 12 -6t-4 -14l-156 -211q-21 -29 -46.5 -62t-45.5 -59q11 -22 28.5 -60.5
t33.5 -74.5l94 -211q5 -9 0.5 -15.5t-14.5 -6.5h-88q-14 0 -20 4t-11 14l-65 151q-11 26 -22.5 54t-20.5 51l-71 -103l-104 -153q-12 -18 -37 -18h-89q-10 0 -12.5 6t5.5 16z" />
    <glyph glyph-name="Psi" unicode="&#x3a8;" horiz-adv-x="745" 
d="M423 299q36 3 64 17.5t48.5 42.5t34 71.5t22.5 104.5l23 166q3 19 22 19h83q21 0 18 -19l-24 -164q-13 -89 -37 -152.5t-61.5 -105t-89 -63t-118.5 -25.5l-23 -172q-3 -19 -23 -19h-84q-20 0 -17 19l24 170q-107 11 -164.5 68.5t-56.5 154.5q0 25 2 50t6 51l26 188
q3 19 22 19h83q21 0 18 -19l-27 -189q-4 -24 -6 -44.5t-2 -44.5q1 -57 29 -87t85 -37l56 402q3 19 22 19h83q21 0 18 -19z" />
    <glyph glyph-name="Omega" unicode="&#x3a9;" horiz-adv-x="756" 
d="M416 623q-60 0 -102.5 -28t-70 -72t-40.5 -98t-13 -106q0 -83 30 -143.5t78 -88.5q8 -5 9.5 -11.5t-0.5 -26.5l-5 -31q-1 -8 -5 -13t-15 -5h-251q-20 0 -17 19l8 62q3 19 23 19h109q-41 36 -66 94t-25 133q0 78 25.5 150.5t72.5 128.5t115 90t153 34q61 0 111 -19.5
t86 -55.5t56 -87.5t20 -115.5q0 -112 -41 -203.5t-122 -148.5h102q20 0 17 -19l-8 -62q-3 -19 -23 -19h-251q-11 0 -14 5t-2 13l5 31q2 20 5.5 26.5t13.5 11.5q46 25 81 63t59 83.5t36 96.5t12 103q0 91 -42 140.5t-114 49.5z" />
    <glyph glyph-name="Alphatonos" unicode="&#x386;" horiz-adv-x="642" 
d="M422 175h-256l-72 -156q-10 -19 -30 -19h-83q-21 0 -10 22l331 680q5 10 11 14t19 4h76q23 0 26 -18l144 -682q3 -20 -17 -20h-82q-14 0 -19.5 5.5t-7.5 16.5zM214 274h188l-8 49l-43 252q-29 -66 -58.5 -133t-52.5 -114zM114 704q4 10 9.5 13t16.5 3h63q24 0 14 -21
l-82 -165q-4 -8 -10.5 -10t-12.5 -2h-44q-11 0 -15 3.5t1 15.5z" />
    <glyph glyph-name="Epsilontonos" unicode="&#x388;" horiz-adv-x="657" 
d="M159 0q-20 0 -17 19l96 682q3 19 22 19h378q21 0 18 -19l-9 -65q-3 -19 -23 -19h-274l-28 -202h231q20 0 17 -18l-9 -65q-3 -19 -23 -19h-231l-29 -210h278q20 0 17 -19l-9 -65q-3 -19 -23 -19h-382zM88 704q4 10 9.5 13t16.5 3h63q24 0 14 -21l-82 -165q-4 -8 -10.5 -10
t-12.5 -2h-44q-11 0 -15 3.5t1 15.5z" />
    <glyph glyph-name="Etatonos" unicode="&#x389;" horiz-adv-x="785" 
d="M162 0q-20 0 -17 19l96 682q3 19 22 19h84q21 0 18 -19l-40 -286h270l40 286q3 19 22 19h84q21 0 18 -19l-96 -682q-3 -19 -23 -19h-84q-20 0 -17 19l41 294h-269l-41 -294q-3 -19 -23 -19h-85zM88 704q4 10 9.5 13t16.5 3h63q24 0 14 -21l-82 -165q-4 -8 -10.5 -10
t-12.5 -2h-44q-11 0 -15 3.5t1 15.5z" />
    <glyph glyph-name="Iotatonos" unicode="&#x38a;" horiz-adv-x="411" 
d="M178 0q-20 0 -17 19l96 682q3 19 22 19h84q21 0 18 -19l-96 -682q-3 -19 -23 -19h-84zM88 704q4 10 9.5 13t16.5 3h63q24 0 14 -21l-82 -165q-4 -8 -10.5 -10t-12.5 -2h-44q-11 0 -15 3.5t1 15.5z" />
    <glyph glyph-name="Iotadieresis" unicode="&#x3aa;" horiz-adv-x="280" 
d="M47 0q-20 0 -17 19l96 682q3 19 22 19h84q21 0 18 -19l-96 -682q-3 -19 -23 -19h-84zM40 791q-16 0 -15 16l12 86q3 16 20 16h87q18 0 15 -16l-12 -86q-1 -16 -20 -16h-87zM261 791q-16 0 -15 16l12 86q3 16 20 16h87q18 0 15 -16l-12 -86q-1 -16 -20 -16h-87z" />
    <glyph glyph-name="Omicrontonos" unicode="&#x38c;" horiz-adv-x="797" 
d="M764 441q0 -80 -20 -160.5t-63.5 -145t-112.5 -105t-166 -40.5q-59 0 -106.5 18.5t-81.5 55.5t-52.5 90.5t-18.5 124.5q0 80 21 160.5t65 145t113 105t165 40.5q58 0 105.5 -20t81 -57t52 -91t18.5 -121zM417 96q60 0 102 32t68 81.5t37.5 109t11.5 115.5q0 46 -11 81.5
t-30 59.5t-45.5 36.5t-56.5 12.5q-62 0 -104.5 -32.5t-68.5 -82t-37.5 -109.5t-11.5 -114q0 -95 39.5 -142.5t106.5 -47.5zM88 704q4 10 9.5 13t16.5 3h63q24 0 14 -21l-82 -165q-4 -8 -10.5 -10t-12.5 -2h-44q-11 0 -15 3.5t1 15.5z" />
    <glyph glyph-name="Upsilontonos" unicode="&#x38e;" horiz-adv-x="747" 
d="M660 703q7 11 14 14t21 3h88q10 0 14 -6t-1 -15l-74 -114q-51 -79 -90.5 -143.5t-68 -121t-45.5 -106.5t-24 -99l-13 -96q-3 -19 -23 -19h-85q-20 0 -17 19l13 96q6 51 4.5 99t-13 102t-32.5 119t-53 150l-43 114q-4 9 0.5 15t14.5 6h87q15 0 22.5 -4.5t11.5 -15.5
l22 -64q16 -48 28 -87t20.5 -74t14 -68t9.5 -68h3q29 75 67 150t93 160zM88 704q4 10 9.5 13t16.5 3h63q24 0 14 -21l-82 -165q-4 -8 -10.5 -10t-12.5 -2h-44q-11 0 -15 3.5t1 15.5z" />
    <glyph glyph-name="Upsilondieresis" unicode="&#x3ab;" horiz-adv-x="561" 
d="M474 703q7 11 14 14t21 3h88q10 0 14 -6t-1 -15l-74 -114q-51 -79 -90.5 -143.5t-68 -121t-45.5 -106.5t-24 -99l-13 -96q-3 -19 -23 -19h-85q-20 0 -17 19l13 96q6 51 4.5 99t-13 102t-32.5 119t-53 150l-43 114q-4 9 0.5 15t14.5 6h87q15 0 22.5 -4.5t11.5 -15.5
l22 -64q16 -48 28 -87t20.5 -74t14 -68t9.5 -68h3q29 75 67 150t93 160zM191 791q-16 0 -15 16l12 86q3 16 20 16h87q18 0 15 -16l-12 -86q-1 -16 -20 -16h-87zM412 791q-16 0 -15 16l12 86q3 16 20 16h87q18 0 15 -16l-12 -86q-1 -16 -20 -16h-87z" />
    <glyph glyph-name="Omegatonos" unicode="&#x38f;" horiz-adv-x="841" 
d="M501 623q-60 0 -102.5 -28t-70 -72t-40.5 -98t-13 -106q0 -83 30 -143.5t78 -88.5q8 -5 9.5 -11.5t-0.5 -26.5l-5 -31q-1 -8 -5 -13t-15 -5h-251q-20 0 -17 19l8 62q3 19 23 19h109q-41 36 -66 94t-25 133q0 78 25.5 150.5t72.5 128.5t115 90t153 34q61 0 111 -19.5
t86 -55.5t56 -87.5t20 -115.5q0 -112 -41 -203.5t-122 -148.5h102q20 0 17 -19l-8 -62q-3 -19 -23 -19h-251q-11 0 -14 5t-2 13l5 31q2 20 5.5 26.5t13.5 11.5q46 25 81 63t59 83.5t36 96.5t12 103q0 91 -42 140.5t-114 49.5zM88 704q4 10 9.5 13t16.5 3h63q24 0 14 -21
l-82 -165q-4 -8 -10.5 -10t-12.5 -2h-44q-11 0 -15 3.5t1 15.5z" />
    <glyph glyph-name="tonos.cap" horiz-adv-x="343" 
d="M173 704q4 10 9.5 13t16.5 3h63q24 0 14 -21l-82 -165q-4 -8 -10.5 -10t-12.5 -2h-44q-11 0 -15 3.5t1 15.5z" />
    <glyph glyph-name="alpha" unicode="&#x3b1;" horiz-adv-x="623" 
d="M384 281q2 79 -20 116t-68 37q-32 0 -58 -18t-44 -48.5t-28 -70.5t-10 -85q0 -57 23.5 -88.5t65.5 -31.5q33 0 56.5 16t40 42.5t26.5 60.5t16 70zM558 -2q-6 -1 -15 -1.5t-17 -0.5q-58 0 -85 30.5t-32 77.5h-2q-29 -53 -76.5 -83.5t-110.5 -30.5q-92 0 -139.5 55.5
t-47.5 158.5q0 65 17.5 125.5t51 107t83.5 74t116 27.5q67 0 107 -36.5t50 -99.5h3q9 27 20.5 57.5t22.5 54.5q4 8 9 11t14 3h63q24 0 14 -21q-15 -32 -31 -68t-31 -73t-28.5 -72t-23.5 -66q-2 -70 12 -107t53 -37h14q8 0 9.5 -5t-0.5 -15l-7 -49q-2 -10 -5 -13t-8 -4z" />
    <glyph glyph-name="beta" unicode="&#x3b2;" horiz-adv-x="579" 
d="M562 612q0 -54 -27 -100t-74 -80q36 -32 57.5 -77t21.5 -96q0 -55 -19.5 -104t-55.5 -85.5t-87 -58t-114 -21.5q-225 0 -225 263q0 61 12 122t34.5 116.5t55 103.5t73 83.5t89 55.5t102.5 20q32 0 60.5 -9t50 -26.5t34 -44t12.5 -62.5zM275 91q31 0 57 12.5t45 34
t29.5 51t10.5 63.5q0 39 -10.5 72.5t-30.5 57.5q-86 -47 -210 -76q-2 -17 -3 -30t-1 -25q0 -76 26.5 -118t86.5 -42zM180 395q57 16 105 38t82.5 47.5t54 55t19.5 61.5q0 55 -58 55q-31 0 -61.5 -18t-57.5 -52t-49 -81.5t-35 -105.5z" />
    <glyph glyph-name="gamma" unicode="&#x3b3;" horiz-adv-x="499" 
d="M187 -220q-5 -13 -12.5 -17.5t-24.5 -4.5h-51q-17 0 -24 8.5t-4 17.5q23 67 38.5 145t15.5 149q0 116 -28.5 222t-76.5 202q-5 9 -1 17.5t19 8.5h81q14 0 21 -4t12 -15q36 -81 58.5 -173.5t22.5 -181.5q68 85 108 176.5t40 175.5q0 22 23 22h72q22 0 23 -20
q0 -49 -15.5 -106t-47 -119.5t-80 -129t-114.5 -133.5q-3 -30 -8.5 -62t-13 -63.5t-16 -61t-17.5 -53.5z" />
    <glyph glyph-name="delta" unicode="&#x3b4;" horiz-adv-x="565" 
d="M540 711q9 -5 9 -11.5t-5 -15.5l-35 -63q-6 -11 -12 -12t-13 4q-24 17 -54.5 27.5t-57.5 10.5q-51 0 -73 -18t-22 -48q0 -21 10.5 -37.5t28 -31t40.5 -28.5t47 -30t46.5 -34.5t40 -42t28 -53t10.5 -67.5q0 -58 -19.5 -107.5t-55.5 -86t-86 -57t-111 -20.5
q-57 0 -100.5 16t-73 43.5t-44 65t-14.5 80.5q0 78 46 145t138 109q-21 18 -37.5 47t-16.5 75q0 44 17.5 78t48 57t71.5 35t88 12q51 0 90.5 -11.5t70.5 -30.5zM281 394q-61 -29 -97.5 -75.5t-36.5 -112.5q0 -52 30 -83.5t84 -31.5q36 0 63 12.5t45 33t27 46.5t9 52
q0 42 -22 73.5t-52 52.5q-10 7 -23 16t-27 17z" />
    <glyph glyph-name="epsilon" unicode="&#x3b5;" horiz-adv-x="470" 
d="M272 230q-63 0 -93 -21.5t-30 -56.5q0 -31 25.5 -49t79.5 -18q33 0 71.5 6t66.5 15q13 4 16.5 0.5t5.5 -11.5l9 -54q3 -16 -14 -22q-32 -13 -80 -21t-92 -8q-109 0 -160 38.5t-51 105.5q0 48 28 86.5t91 57.5v3q-28 12 -47 37.5t-19 63.5q0 33 14 61.5t41.5 49.5t68.5 33
t95 12q50 0 94 -10.5t67 -24.5q8 -5 10.5 -9.5t-2.5 -15.5l-25 -53q-8 -16 -29 -7q-22 10 -50.5 17.5t-59.5 7.5q-42 0 -71.5 -16.5t-29.5 -51.5q0 -30 26.5 -42t73.5 -12h64q8 0 10 -4.5t1 -14.5l-6 -52q-3 -20 -18 -20h-81z" />
    <glyph glyph-name="zeta" unicode="&#x3b6;" horiz-adv-x="442" 
d="M134 660q-18 0 -15 20l6 50q3 19 19 19h95q53 1 118.5 4t141.5 12q11 2 13 -3t1 -14l-3 -30q-2 -14 -7.5 -21.5t-15.5 -13.5q-72 -41 -132 -93.5t-103.5 -111t-67.5 -121t-24 -123.5q0 -45 18 -70.5t45.5 -41.5t59.5 -26.5t59.5 -24.5t45.5 -37.5t18 -64.5
q0 -26 -6.5 -50t-17 -46t-22.5 -42t-24 -38q-8 -12 -14 -15t-21 -3h-46q-12 0 -17.5 5t1.5 16q24 40 38 73.5t14 62.5q0 28 -19 43.5t-47 27.5t-61 24.5t-61 34t-47 57t-19 93.5q0 63 22.5 126.5t62.5 123t95 112t119 93.5v2q-20 -2 -45.5 -4t-52.5 -3t-54.5 -1.5
t-49.5 -0.5z" />
    <glyph glyph-name="eta" unicode="&#x3b7;" horiz-adv-x="579" 
d="M53 439q-16 0 -13 18l9 51q2 11 5.5 16.5t13.5 5.5h36q18 0 35.5 -2.5t32.5 -10t26 -20.5t16 -34q29 35 74.5 55t93.5 20q73 0 113 -42.5t40 -116.5q0 -32 -9 -92q-4 -31 -9 -64.5t-9.5 -66.5t-9 -63t-7.5 -53l-5 -36q-7 -54 -13 -96.5t-5 -80.5v-49q0 -11 -3.5 -15.5
t-14.5 -4.5h-73q-12 0 -16 5t-6 15q-2 11 -2 28v30q0 45 6.5 102.5t18.5 144.5q3 25 9 65t12 81t10.5 76t4.5 50q0 38 -19 56.5t-64 18.5q-23 0 -43.5 -6.5t-34.5 -15.5q-13 -9 -21.5 -20.5t-15 -33t-12.5 -58t-14 -95.5l-26 -185q-3 -16 -19 -16h-85q-18 0 -15 16l46 330
q3 20 5 37t2 25q0 14 -5.5 22.5t-22.5 8.5h-17z" />
    <glyph glyph-name="theta" unicode="&#x3b8;" horiz-adv-x="602" 
d="M261 -10q-59 0 -101 21.5t-68.5 60t-39 90.5t-12.5 113q0 48 7 102t22.5 107t40.5 101.5t61.5 86t85 59.5t111.5 22q58 0 99 -21.5t67 -60t38.5 -90t12.5 -111.5q0 -49 -7 -104t-23 -108t-41 -101.5t-61 -85.5t-84 -59t-108 -22zM273 95q36 0 65 18t50.5 50t36.5 76
t24 95h-283q-2 -17 -3 -34.5t-1 -31.5q0 -81 25.5 -127t85.5 -46zM459 416q2 16 3 32t1 31q0 78 -24.5 124t-84.5 46q-36 0 -64.5 -17.5t-50.5 -48.5t-37.5 -73.5t-24.5 -93.5h282z" />
    <glyph glyph-name="iota" unicode="&#x3b9;" horiz-adv-x="297" 
d="M94 512q3 16 19 16h84q16 0 15 -16l-38 -266q-6 -40 -11 -71.5t-5 -48.5q0 -34 33 -34q8 0 16.5 2.5t16.5 6.5q15 8 22 -9l14 -39q3 -9 3.5 -15t-9.5 -13q-20 -14 -49 -22.5t-59 -8.5q-52 0 -79.5 27t-27.5 77q0 24 4.5 63.5t13.5 98.5z" />
    <glyph glyph-name="kappa" unicode="&#x3ba;" horiz-adv-x="541" 
d="M241 230l-63 -55l-22 -159q-3 -16 -19 -16h-85q-18 0 -15 16l45 323q6 45 9.5 90t4.5 83q0 9 4 12.5t16 3.5h76q22 0 22 -17q0 -15 -1 -35.5t-2.5 -42.5t-4 -44t-5.5 -39l-7 -42l143 135q26 25 48 42t42 28t39.5 16t42.5 5h24q11 0 14 -4t2 -11l-10 -68q-2 -12 -7 -15
t-13 -3h-10q-22 0 -47.5 -17.5t-57.5 -46.5l-78 -69l166 -281q5 -8 -1 -13.5t-15 -5.5h-82q-19 0 -28 15z" />
    <glyph glyph-name="lambda" unicode="&#x3bb;" horiz-adv-x="514" 
d="M247 552l-6 26q-10 45 -35 63t-67 18q-17 0 -30.5 -1.5t-23.5 -3.5q-21 -1 -22 15l-4 55q-2 17 17 22q13 4 35 6.5t43 2.5q42 0 73.5 -8.5t55 -28t39 -51.5t25.5 -78l126 -569q4 -20 -16 -20h-82q-11 0 -15 3.5t-6 11.5l-33 181q-10 51 -18.5 102t-16.5 110
q-24 -63 -47 -112.5t-44 -93.5l-88 -187q-3 -7 -7 -11t-15 -4h-82q-9 0 -15 4.5t-1 15.5z" />
    <glyph glyph-name="mu" unicode="&#x3bc;" horiz-adv-x="591" 
d="M228 -10q-23 0 -46.5 8.5t-35.5 19.5l-8 -66q-6 -45 -9.5 -93t-3.5 -84q0 -17 -20 -17h-82q-9 0 -11.5 4t-2.5 13q0 12 2 35t5.5 54t8 68t9.5 75l68 505q3 16 20 16h85q17 0 14 -16l-37 -265q-3 -23 -5 -42t-2 -33q0 -78 85 -78q21 0 41 7.5t37 19.5q14 10 22.5 24.5
t14.5 37.5q4 19 9 47t10 62l31 220q3 16 21 16h83q17 0 14 -16l-44 -313q-9 -63 -13 -108.5t-6 -74.5q-1 -16 -27 -16h-67q-11 0 -15 4.5t-4 13.5q0 11 1 22t2 20q-32 -32 -69.5 -51t-74.5 -19z" />
    <glyph glyph-name="nu" unicode="&#x3bd;" horiz-adv-x="512" 
d="M511 510q1 -6 1 -13v-13q0 -59 -19.5 -120t-52.5 -121t-77.5 -118t-94.5 -109q-11 -11 -18 -13.5t-21 -2.5h-67q-10 0 -16.5 4.5t-8.5 16.5l-102 487q-5 20 15 20h79q11 0 16.5 -3t7.5 -12q9 -48 19 -100.5l20 -105t18.5 -102.5t15.5 -93h1q84 91 126 184t42 181v31
q0 10 2.5 15t11.5 5h77q11 0 17 -3.5t8 -14.5z" />
    <glyph glyph-name="xi" unicode="&#x3be;" horiz-adv-x="452" 
d="M361 349q-45 0 -83.5 -10t-67 -29.5t-44.5 -47.5t-16 -64q0 -33 19 -51.5t47.5 -30t61.5 -21t61.5 -24t47.5 -38.5t19 -66q0 -39 -18 -81.5t-52 -93.5q-8 -12 -14 -14.5t-21 -2.5h-50q-8 0 -13.5 5t1.5 16q20 34 36 69.5t16 64.5t-19.5 46t-48.5 28.5t-63 22.5t-63 29
t-48.5 47t-19.5 77q0 59 39.5 111t120.5 81v1q-42 12 -64 44t-22 74q0 26 11.5 52.5t33 50.5t53 44.5t70.5 33.5v3q-36 -4 -69 -6t-60 -2q-18 0 -15 20l5 46q3 19 19 19h76q45 0 106.5 3.5t140.5 9.5q12 1 15 -2t2 -13q-3 -23 -5 -36.5t-5 -21.5t-7.5 -11.5t-11.5 -4.5
q-62 -10 -107 -27.5t-74 -39.5t-43 -46.5t-14 -49.5q0 -35 32 -52.5t112 -17.5h47q8 0 10 -4.5t1 -14.5l-6 -55q-3 -20 -18 -20h-41z" />
    <glyph glyph-name="xi.salt" horiz-adv-x="457" 
d="M347 358q-45 0 -80.5 -12.5t-60.5 -34t-38.5 -50.5t-13.5 -62q0 -38 19 -57t47.5 -29t61.5 -16.5t61.5 -20t47.5 -38.5t19 -73q0 -38 -17.5 -79.5t-52.5 -92.5q-8 -13 -16 -15.5t-18 -2.5h-46q-14 0 -19 5.5t2 16.5q23 38 37.5 69.5t14.5 61.5q0 32 -19.5 48t-48.5 26
t-63.5 18.5t-63.5 25.5t-48.5 48t-19.5 86q0 36 12 69.5t33.5 62t51.5 51t66 34.5v1q-88 40 -88 133q0 49 18.5 89.5t53 69.5t83 44.5t108.5 15.5q41 0 71.5 -5.5t53.5 -15.5q16 -7 8 -26l-21 -50q-5 -12 -8.5 -16t-14.5 1q-16 7 -41 12t-48 5q-63 0 -101.5 -29.5
t-38.5 -86.5q0 -44 31 -65.5t97 -21.5h52q8 0 10 -4.5t1 -14.5l-6 -55q-3 -20 -18 -20h-50z" />
    <glyph glyph-name="omicron" unicode="&#x3bf;" horiz-adv-x="557" 
d="M243 -10q-101 0 -155.5 56t-54.5 157q0 72 18.5 133t54.5 106t89 70.5t122 25.5q99 0 153 -56t54 -157q0 -65 -15 -125t-49 -107t-87.5 -75t-129.5 -28zM256 94q42 0 70 20t45 51.5t24 70t7 75.5q0 53 -23.5 88t-75.5 35q-41 0 -69 -20t-45.5 -51t-25.5 -69t-8 -75
q0 -54 24.5 -89.5t76.5 -35.5z" />
    <glyph glyph-name="pi" unicode="&#x3c0;" horiz-adv-x="684" 
d="M139 433h-85q-16 0 -13 17l8 61q3 17 19 17h592q16 0 13 -17l-8 -61q-3 -17 -19 -17h-93l-34 -242q-3 -20 -5 -36t-2 -26q0 -19 8 -29t28 -10q23 0 54 13q8 4 12 1t6 -12l12 -47q2 -8 -0.5 -13.5t-12.5 -10.5q-26 -14 -53.5 -22.5t-59.5 -8.5q-63 0 -89.5 29.5
t-26.5 83.5q0 12 2.5 36t6.5 53l34 241h-174l-58 -417q-3 -16 -20 -16h-86q-17 0 -14 16z" />
    <glyph glyph-name="rho" unicode="&#x3c1;" horiz-adv-x="566" 
d="M264 95q36 0 63.5 19.5t46 50t27.5 68.5t9 75q0 127 -95 127q-59 0 -91 -43t-44 -128l-17 -127q17 -17 43.5 -29.5t57.5 -12.5zM148 38q-8 -48 -13 -92.5t-5 -83.5q0 -26 0.5 -47.5t0.5 -35.5q0 -21 -19 -21h-66q-24 0 -29 23q-2 15 -3 36t0 39q0 35 5 83t13 112l30 210
q11 78 33.5 131t55.5 85.5t77 46.5t99 14q104 0 155 -59t51 -163q0 -57 -16 -115t-48.5 -105t-81.5 -76.5t-115 -29.5q-36 0 -69.5 12.5t-54.5 35.5z" />
    <glyph glyph-name="sigma" unicode="&#x3c3;" horiz-adv-x="603" 
d="M156 213q0 -57 24.5 -90t78.5 -33q37 0 66 16t49 43.5t30 64.5t10 79q0 47 -11.5 83.5t-30.5 54.5h-38q-45 0 -78.5 -18t-55.5 -48.5t-33 -70t-11 -81.5zM486 431q23 -27 37 -65.5t14 -82.5q0 -59 -19.5 -112t-57.5 -93t-93 -64t-125 -24q-100 0 -154.5 59.5t-54.5 158.5
q0 68 21 126.5t61 101.5t98.5 67.5t132.5 24.5h261q16 0 13 -17l-8 -63q-3 -17 -19 -17h-107z" />
    <glyph glyph-name="sigma1" unicode="&#x3c2;" horiz-adv-x="463" 
d="M422 416q-25 7 -48 11t-42 4q-43 0 -75.5 -15t-55 -41t-34 -61t-11.5 -75q0 -44 18 -68.5t44.5 -39.5t57.5 -25.5t57.5 -26t44.5 -41t18 -70.5q0 -24 -7 -49t-17.5 -48t-22 -42.5t-20.5 -32.5t-15 -17t-20 -4h-47q-20 0 -21 6.5t5 17.5q20 33 35 67t15 69q0 28 -18.5 44
t-46 28.5t-59.5 26t-59.5 36t-46 60t-18.5 97.5q0 71 23 128.5t62.5 98t93 62.5t114.5 22q45 0 79 -7.5t57 -18.5q9 -5 8.5 -12.5t-5.5 -19.5l-23 -51q-7 -16 -20 -13z" />
    <glyph glyph-name="tau" unicode="&#x3c4;" horiz-adv-x="459" 
d="M42 431q-17 0 -14 19l8 61q3 17 19 17h413q16 0 13 -17l-8 -63q-3 -17 -19 -17h-172l-29 -205q-5 -29 -7 -49.5t-2 -37.5q0 -21 11 -31.5t40 -10.5q30 0 56 10q20 8 24 -11l12 -50q2 -10 -3 -16t-14 -11q-23 -11 -51 -18t-63 -7q-55 0 -93 29t-38 91q0 27 3 54.5t8 61.5
l28 201h-122z" />
    <glyph glyph-name="upsilon" unicode="&#x3c5;" horiz-adv-x="566" 
d="M57 441q-21 0 -17 22l9 53q2 11 6 14t12 3h36q34 0 56.5 -4.5t35.5 -14.5t18 -24.5t5 -34.5q0 -17 -3.5 -50t-7.5 -59q-3 -23 -6.5 -46.5t-6.5 -45t-5 -39t-2 -27.5q0 -47 22.5 -69t60.5 -22q43 0 71 25t44.5 64t23 88t6.5 97q0 35 -3 64.5t-11 61.5q-8 31 21 31h64
q23 0 28 -17q6 -22 13 -54.5t7 -80.5q0 -81 -17.5 -151.5t-52.5 -122.5t-88 -82t-124 -30q-41 0 -75.5 10t-59 31t-38.5 54.5t-13 80.5q1 38 10 96.5t23 148.5q3 19 -1.5 24.5t-21.5 5.5h-19z" />
    <glyph glyph-name="phi" unicode="&#x3c6;" horiz-adv-x="713" 
d="M262 499q-25 -28 -44.5 -60t-33 -65t-21 -65.5t-7.5 -62.5q0 -77 28.5 -113.5t85.5 -44.5l34 251q7 55 24.5 93t43.5 61.5t59.5 34t74.5 10.5q78 0 126 -50.5t48 -147.5q0 -74 -21 -133.5t-60.5 -103.5t-97 -72.5t-129.5 -39.5l-28 -213q-2 -8 -6.5 -14t-13.5 -6h-76
q-13 0 -17.5 4t-2.5 16l29 214q-53 6 -95 24.5t-70.5 48.5t-43.5 69.5t-15 87.5q0 82 32.5 153.5t86.5 134.5q8 10 16.5 14t22.5 4h62q17 0 17.5 -9t-8.5 -20zM384 89q47 8 80 31.5t53.5 56.5t30 73t9.5 81q0 57 -16.5 82t-42.5 25q-32 0 -52.5 -26.5t-29.5 -90.5z" />
    <glyph glyph-name="chi" unicode="&#x3c7;" horiz-adv-x="470" 
d="M388 -148q8 0 11.5 -4.5t1.5 -16.5l-6 -49q-2 -10 -5.5 -13t-7.5 -4q-11 -2 -18 -2h-15q-44 0 -73 10t-47.5 32.5t-28 58.5t-13.5 89l-7 87h-2l-146 -257q-9 -16 -34 -16h-70q-13 0 -15 6t7 20l239 382l-10 144q-3 43 -8 68t-13.5 37.5t-20 15.5t-27.5 3h-25
q-18 0 -15 21l9 55q2 14 17 14h42q66 0 97.5 -32.5t38.5 -107.5l9 -106h2l128 227q5 8 10 11t19 3h71q12 0 15.5 -7t-8.5 -26l-216 -340l8 -106q5 -66 12.5 -105t18 -59.5t25 -26.5t34.5 -6h16z" />
    <glyph glyph-name="psi" unicode="&#x3c8;" horiz-adv-x="684" 
d="M334 -224q-2 -10 -5.5 -14t-14.5 -4h-83q-11 0 -14 4.5t-1 13.5l32 214q-47 6 -85 20.5t-64 40t-39 63t-10 87.5q1 25 6.5 57.5t11.5 67t10.5 67.5t4.5 60q0 11 -0.5 29.5t-0.5 28.5q0 17 19 17h69q14 0 20 -5t8 -16t2 -27.5v-27.5q0 -28 -4.5 -63.5t-10.5 -71.5
t-10.5 -70t-4.5 -58q0 -42 25.5 -63t68.5 -29l75 545q2 10 5.5 14t14.5 4h80q11 0 14 -4.5t1 -13.5l-76 -545q45 10 75 36t47.5 65t25 90.5t7.5 114.5q0 29 -3 58t-6 50q-2 10 5 13.5t17 3.5h67q11 0 17.5 -4.5t11.5 -21.5q3 -11 5.5 -27t4 -33.5t2 -35.5t-0.5 -34
q-2 -72 -17 -136t-48 -114.5t-88 -84.5t-136 -46z" />
    <glyph glyph-name="omega" unicode="&#x3c9;" horiz-adv-x="753" 
d="M333 360q3 16 19 16h81q18 0 15 -16l-16 -115q-3 -19 -5.5 -37.5t-2.5 -36.5q0 -16 2 -29.5t9 -24t18.5 -16.5t30.5 -6q31 0 53 27.5t36 70t20.5 94.5t6.5 102q0 34 -2 65.5t-7 52.5t23 21h56q24 0 33 -22q7 -17 12.5 -50.5t5.5 -71.5q0 -75 -13.5 -146t-43 -126
t-75.5 -88.5t-112 -33.5q-53 0 -85 25t-41 64q-18 -36 -52 -62.5t-90 -26.5q-47 0 -79.5 16.5t-53 44.5t-30 65.5t-9.5 79.5q0 79 20.5 163t62.5 153q7 11 13.5 13.5t14.5 2.5h67q26 0 17 -21q-33 -70 -53.5 -147.5t-20.5 -155.5q0 -57 18 -83t51 -26q17 0 31 8t25.5 26.5
t20 49t14.5 75.5z" />
    <glyph glyph-name="alphatonos" unicode="&#x3ac;" horiz-adv-x="623" 
d="M384 281q2 79 -20 116t-68 37q-32 0 -58 -18t-44 -48.5t-28 -70.5t-10 -85q0 -57 23.5 -88.5t65.5 -31.5q33 0 56.5 16t40 42.5t26.5 60.5t16 70zM558 -2q-6 -1 -15 -1.5t-17 -0.5q-58 0 -85 30.5t-32 77.5h-2q-29 -53 -76.5 -83.5t-110.5 -30.5q-92 0 -139.5 55.5
t-47.5 158.5q0 65 17.5 125.5t51 107t83.5 74t116 27.5q67 0 107 -36.5t50 -99.5h3q9 27 20.5 57.5t22.5 54.5q4 8 9 11t14 3h63q24 0 14 -21q-15 -32 -31 -68t-31 -73t-28.5 -72t-23.5 -66q-2 -70 12 -107t53 -37h14q8 0 9.5 -5t-0.5 -15l-7 -49q-2 -10 -5 -13t-8 -4z
M332 755q5 9 9 11.5t18 2.5h63q14 0 16 -5.5t-4 -16.5l-88 -145q-7 -11 -13 -14t-14 -3h-49q-19 0 -10 17z" />
    <glyph glyph-name="epsilontonos" unicode="&#x3ad;" horiz-adv-x="470" 
d="M272 230q-63 0 -93 -21.5t-30 -56.5q0 -31 25.5 -49t79.5 -18q33 0 71.5 6t66.5 15q13 4 16.5 0.5t5.5 -11.5l9 -54q3 -16 -14 -22q-32 -13 -80 -21t-92 -8q-109 0 -160 38.5t-51 105.5q0 48 28 86.5t91 57.5v3q-28 12 -47 37.5t-19 63.5q0 33 14 61.5t41.5 49.5t68.5 33
t95 12q50 0 94 -10.5t67 -24.5q8 -5 10.5 -9.5t-2.5 -15.5l-25 -53q-8 -16 -29 -7q-22 10 -50.5 17.5t-59.5 7.5q-42 0 -71.5 -16.5t-29.5 -51.5q0 -30 26.5 -42t73.5 -12h64q8 0 10 -4.5t1 -14.5l-6 -52q-3 -20 -18 -20h-81zM322 755q5 9 9 11.5t18 2.5h63q14 0 16 -5.5
t-4 -16.5l-88 -145q-7 -11 -13 -14t-14 -3h-49q-19 0 -10 17z" />
    <glyph glyph-name="etatonos" unicode="&#x3ae;" horiz-adv-x="579" 
d="M367 755q5 9 9 11.5t18 2.5h63q14 0 16 -5.5t-4 -16.5l-88 -145q-7 -11 -13 -14t-14 -3h-49q-19 0 -10 17zM53 439q-16 0 -13 18l9 51q2 11 5.5 16.5t13.5 5.5h36q18 0 35.5 -2.5t32.5 -10t26 -20.5t16 -34q29 35 74.5 55t93.5 20q73 0 113 -42.5t40 -116.5q0 -32 -9 -92
q-4 -31 -9 -64.5t-9.5 -66.5t-9 -63t-7.5 -53l-5 -36q-7 -54 -13 -96.5t-5 -80.5v-49q0 -11 -3.5 -15.5t-14.5 -4.5h-73q-12 0 -16 5t-6 15q-2 11 -2 28v30q0 45 6.5 102.5t18.5 144.5q3 25 9 65t12 81t10.5 76t4.5 50q0 38 -19 56.5t-64 18.5q-23 0 -43.5 -6.5t-34.5 -15.5
q-13 -9 -21.5 -20.5t-15 -33t-12.5 -58t-14 -95.5l-26 -185q-3 -16 -19 -16h-85q-18 0 -15 16l46 330q3 20 5 37t2 25q0 14 -5.5 22.5t-22.5 8.5h-17z" />
    <glyph glyph-name="iotatonos" unicode="&#x3af;" horiz-adv-x="297" 
d="M94 512q3 16 19 16h84q16 0 15 -16l-38 -266q-6 -40 -11 -71.5t-5 -48.5q0 -34 33 -34q8 0 16.5 2.5t16.5 6.5q15 8 22 -9l14 -39q3 -9 3.5 -15t-9.5 -13q-20 -14 -49 -22.5t-59 -8.5q-52 0 -79.5 27t-27.5 77q0 24 4.5 63.5t13.5 98.5zM181 755q5 9 9 11.5t18 2.5h63
q14 0 16 -5.5t-4 -16.5l-88 -145q-7 -11 -13 -14t-14 -3h-49q-19 0 -10 17z" />
    <glyph glyph-name="iotadieresis" unicode="&#x3ca;" horiz-adv-x="297" 
d="M94 512q3 16 19 16h84q16 0 15 -16l-38 -266q-6 -40 -11 -71.5t-5 -48.5q0 -34 33 -34q8 0 16.5 2.5t16.5 6.5q15 8 22 -9l14 -39q3 -9 3.5 -15t-9.5 -13q-20 -14 -49 -22.5t-59 -8.5q-52 0 -79.5 27t-27.5 77q0 24 4.5 63.5t13.5 98.5zM13 612q-17 0 -14 16l12 86
q1 16 19 16h87q17 0 16 -16l-12 -86q-3 -16 -21 -16h-87zM232 612q-17 0 -14 16l12 86q1 16 19 16h87q17 0 16 -16l-12 -86q-3 -16 -21 -16h-87z" />
    <glyph glyph-name="iotadieresistonos" unicode="&#x390;" horiz-adv-x="297" 
d="M94 512q3 16 19 16h84q16 0 15 -16l-38 -266q-6 -40 -11 -71.5t-5 -48.5q0 -34 33 -34q8 0 16.5 2.5t16.5 6.5q15 8 22 -9l14 -39q3 -9 3.5 -15t-9.5 -13q-20 -14 -49 -22.5t-59 -8.5q-52 0 -79.5 27t-27.5 77q0 24 4.5 63.5t13.5 98.5zM158 763q4 10 9.5 13t16.5 3h61
q24 0 16 -21l-65 -162q-4 -8 -10.5 -10t-12.5 -2h-37q-11 0 -15 3.5t1 15.5zM-24 608q-17 0 -14 16l12 86q1 16 19 16h87q17 0 16 -16l-12 -86q-3 -16 -21 -16h-87zM284 608q-17 0 -14 16l12 86q1 16 19 16h87q17 0 16 -16l-12 -86q-3 -16 -21 -16h-87z" />
    <glyph glyph-name="omicrontonos" unicode="&#x3cc;" horiz-adv-x="560" 
d="M243 -10q-101 0 -155.5 56t-54.5 157q0 72 18.5 133t54.5 106t89 70.5t122 25.5q99 0 153 -56t54 -157q0 -65 -15 -125t-49 -107t-87.5 -75t-129.5 -28zM256 94q42 0 70 20t45 51.5t24 70t7 75.5q0 53 -23.5 88t-75.5 35q-41 0 -69 -20t-45.5 -51t-25.5 -69t-8 -75
q0 -54 24.5 -89.5t76.5 -35.5zM326 755q5 9 9 11.5t18 2.5h63q14 0 16 -5.5t-4 -16.5l-88 -145q-7 -11 -13 -14t-14 -3h-49q-19 0 -10 17z" />
    <glyph glyph-name="upsilontonos" unicode="&#x3cd;" horiz-adv-x="566" 
d="M57 441q-21 0 -17 22l9 53q2 11 6 14t12 3h36q34 0 56.5 -4.5t35.5 -14.5t18 -24.5t5 -34.5q0 -17 -3.5 -50t-7.5 -59q-3 -23 -6.5 -46.5t-6.5 -45t-5 -39t-2 -27.5q0 -47 22.5 -69t60.5 -22q43 0 71 25t44.5 64t23 88t6.5 97q0 35 -3 64.5t-11 61.5q-8 31 21 31h64
q23 0 28 -17q6 -22 13 -54.5t7 -80.5q0 -81 -17.5 -151.5t-52.5 -122.5t-88 -82t-124 -30q-41 0 -75.5 10t-59 31t-38.5 54.5t-13 80.5q1 38 10 96.5t23 148.5q3 19 -1.5 24.5t-21.5 5.5h-19zM312 755q5 9 9 11.5t18 2.5h63q14 0 16 -5.5t-4 -16.5l-88 -145q-7 -11 -13 -14
t-14 -3h-49q-19 0 -10 17z" />
    <glyph glyph-name="upsilondieresistonos" unicode="&#x3b0;" horiz-adv-x="566" 
d="M57 441q-21 0 -17 22l9 53q2 11 6 14t12 3h36q34 0 56.5 -4.5t35.5 -14.5t18 -24.5t5 -34.5q0 -17 -3.5 -50t-7.5 -59q-3 -23 -6.5 -46.5t-6.5 -45t-5 -39t-2 -27.5q0 -47 22.5 -69t60.5 -22q43 0 71 25t44.5 64t23 88t6.5 97q0 35 -3 64.5t-11 61.5q-8 31 21 31h64
q23 0 28 -17q6 -22 13 -54.5t7 -80.5q0 -81 -17.5 -151.5t-52.5 -122.5t-88 -82t-124 -30q-41 0 -75.5 10t-59 31t-38.5 54.5t-13 80.5q1 38 10 96.5t23 148.5q3 19 -1.5 24.5t-21.5 5.5h-19zM292 763q4 10 9.5 13t16.5 3h61q24 0 16 -21l-65 -162q-4 -8 -10.5 -10t-12.5 -2
h-37q-11 0 -15 3.5t1 15.5zM110 608q-17 0 -14 16l12 86q1 16 19 16h87q17 0 16 -16l-12 -86q-3 -16 -21 -16h-87zM418 608q-17 0 -14 16l12 86q1 16 19 16h87q17 0 16 -16l-12 -86q-3 -16 -21 -16h-87z" />
    <glyph glyph-name="upsilondieresis" unicode="&#x3cb;" horiz-adv-x="566" 
d="M57 441q-21 0 -17 22l9 53q2 11 6 14t12 3h36q34 0 56.5 -4.5t35.5 -14.5t18 -24.5t5 -34.5q0 -17 -3.5 -50t-7.5 -59q-3 -23 -6.5 -46.5t-6.5 -45t-5 -39t-2 -27.5q0 -47 22.5 -69t60.5 -22q43 0 71 25t44.5 64t23 88t6.5 97q0 35 -3 64.5t-11 61.5q-8 31 21 31h64
q23 0 28 -17q6 -22 13 -54.5t7 -80.5q0 -81 -17.5 -151.5t-52.5 -122.5t-88 -82t-124 -30q-41 0 -75.5 10t-59 31t-38.5 54.5t-13 80.5q1 38 10 96.5t23 148.5q3 19 -1.5 24.5t-21.5 5.5h-19zM150 612q-17 0 -14 16l12 86q1 16 19 16h87q17 0 16 -16l-12 -86q-3 -16 -21 -16
h-87zM369 612q-17 0 -14 16l12 86q1 16 19 16h87q17 0 16 -16l-12 -86q-3 -16 -21 -16h-87z" />
    <glyph glyph-name="omegatonos" unicode="&#x3ce;" horiz-adv-x="753" 
d="M333 360q3 16 19 16h81q18 0 15 -16l-16 -115q-3 -19 -5.5 -37.5t-2.5 -36.5q0 -16 2 -29.5t9 -24t18.5 -16.5t30.5 -6q31 0 53 27.5t36 70t20.5 94.5t6.5 102q0 34 -2 65.5t-7 52.5t23 21h56q24 0 33 -22q7 -17 12.5 -50.5t5.5 -71.5q0 -75 -13.5 -146t-43 -126
t-75.5 -88.5t-112 -33.5q-53 0 -85 25t-41 64q-18 -36 -52 -62.5t-90 -26.5q-47 0 -79.5 16.5t-53 44.5t-30 65.5t-9.5 79.5q0 79 20.5 163t62.5 153q7 11 13.5 13.5t14.5 2.5h67q26 0 17 -21q-33 -70 -53.5 -147.5t-20.5 -155.5q0 -57 18 -83t51 -26q17 0 31 8t25.5 26.5
t20 49t14.5 75.5zM424 755q5 9 9 11.5t18 2.5h63q14 0 16 -5.5t-4 -16.5l-88 -145q-7 -11 -13 -14t-14 -3h-49q-19 0 -10 17z" />
    <glyph glyph-name="tonos" unicode="&#x384;" horiz-adv-x="343" 
d="M202 755q5 9 9 11.5t18 2.5h63q14 0 16 -5.5t-4 -16.5l-88 -145q-7 -11 -13 -14t-14 -3h-49q-19 0 -10 17z" />
    <glyph glyph-name="dieresistonos" unicode="&#x385;" horiz-adv-x="516" 
d="M283 763q4 10 9.5 13t16.5 3h61q24 0 16 -21l-65 -162q-4 -8 -10.5 -10t-12.5 -2h-37q-11 0 -15 3.5t1 15.5zM101 608q-17 0 -14 16l12 86q1 16 19 16h87q17 0 16 -16l-12 -86q-3 -16 -21 -16h-87zM409 608q-17 0 -14 16l12 86q1 16 19 16h87q17 0 16 -16l-12 -86
q-3 -16 -21 -16h-87z" />
    <glyph glyph-name="anoteleia" unicode="&#x387;" horiz-adv-x="241" 
d="M57 294q-21 0 -18 19l15 104q3 19 22 19h105q22 0 19 -19l-15 -104q-3 -19 -23 -19h-105z" />
    <glyph glyph-name="uni037E" unicode="&#x37e;" horiz-adv-x="242" 
d="M69 365q-21 0 -18 19l15 104q3 19 22 19h105q22 0 19 -19l-15 -104q-3 -19 -23 -19h-105zM5 -169q-20 0 -14 18l53 152l-24 12q-10 5 -13 11.5t-1 21.5l11 77q3 19 22 19h105q22 0 19 -19l-8 -53q-2 -15 -5 -28t-7 -26t-10 -26t-14 -29l-57 -112q-6 -11 -10.5 -14.5
t-15.5 -3.5h-31z" />
    <glyph glyph-name="uni0374" unicode="&#x374;" horiz-adv-x="343" 
d="M202 752q5 9 9 11.5t18 2.5h63q14 0 16 -5.5t-4 -16.5l-88 -145q-7 -11 -13 -14t-14 -3h-49q-19 0 -10 17z" />
    <glyph glyph-name="uni0375" unicode="&#x375;" horiz-adv-x="343" 
d="M128.992 -169.989q-5 -9 -9 -11.5q-3.99902 -2.49902 -17.998 -2.49902h-62.9961q-14 0 -15.999 5.49902q-2 5.5 3.99902 16.499l87.9951 144.991q6.99902 10.999 12.999 13.999t13.999 3h48.9971q18.999 0 9.99902 -16.999z" />
    <glyph glyph-name="apple" unicode="&#xf8ff;" horiz-adv-x="521" 
d="M465 542v-66h-201v-66h201v-202h-269v66h202v69h-202v199h269zM465 676v-66h-334v-543h74v-67h-141v676h401z" />
	k="29" />
  </font>
</defs>
</svg>
